G04 #@! TF.GenerationSoftware,KiCad,Pcbnew,5.1.5+dfsg1-2build2*
G04 #@! TF.CreationDate,2020-08-28T17:04:02+02:00*
G04 #@! TF.ProjectId,System Air,53797374-656d-4204-9169-722e6b696361,rev?*
G04 #@! TF.SameCoordinates,Original*
G04 #@! TF.FileFunction,Legend,Top*
G04 #@! TF.FilePolarity,Positive*
%FSLAX46Y46*%
G04 Gerber Fmt 4.6, Leading zero omitted, Abs format (unit mm)*
G04 Created by KiCad (PCBNEW 5.1.5+dfsg1-2build2) date 2020-08-28 17:04:02*
%MOMM*%
%LPD*%
G04 APERTURE LIST*
%ADD10C,0.120000*%
%ADD11C,0.150000*%
G04 APERTURE END LIST*
D10*
X148056600Y-101644533D02*
X149326600Y-101644533D01*
X149256600Y-102851200D02*
X149256600Y-101644533D01*
X149136600Y-102851200D02*
X149136600Y-101644533D01*
X149016600Y-102851200D02*
X149016600Y-101644533D01*
X148896600Y-102851200D02*
X148896600Y-101644533D01*
X148776600Y-102851200D02*
X148776600Y-101644533D01*
X148656600Y-102851200D02*
X148656600Y-101644533D01*
X148536600Y-102851200D02*
X148536600Y-101644533D01*
X148416600Y-102851200D02*
X148416600Y-101644533D01*
X148296600Y-102851200D02*
X148296600Y-101644533D01*
X148176600Y-102851200D02*
X148176600Y-101644533D01*
X148056600Y-99231200D02*
X148056600Y-102851200D01*
X149326600Y-99231200D02*
X148056600Y-99231200D01*
X149326600Y-102851200D02*
X149326600Y-99231200D01*
X148056600Y-102851200D02*
X149326600Y-102851200D01*
X145516600Y-101644533D02*
X146786600Y-101644533D01*
X146716600Y-102851200D02*
X146716600Y-101644533D01*
X146596600Y-102851200D02*
X146596600Y-101644533D01*
X146476600Y-102851200D02*
X146476600Y-101644533D01*
X146356600Y-102851200D02*
X146356600Y-101644533D01*
X146236600Y-102851200D02*
X146236600Y-101644533D01*
X146116600Y-102851200D02*
X146116600Y-101644533D01*
X145996600Y-102851200D02*
X145996600Y-101644533D01*
X145876600Y-102851200D02*
X145876600Y-101644533D01*
X145756600Y-102851200D02*
X145756600Y-101644533D01*
X145636600Y-102851200D02*
X145636600Y-101644533D01*
X145516600Y-99231200D02*
X145516600Y-102851200D01*
X146786600Y-99231200D02*
X145516600Y-99231200D01*
X146786600Y-102851200D02*
X146786600Y-99231200D01*
X145516600Y-102851200D02*
X146786600Y-102851200D01*
X142976600Y-101644533D02*
X144246600Y-101644533D01*
X144176600Y-102851200D02*
X144176600Y-101644533D01*
X144056600Y-102851200D02*
X144056600Y-101644533D01*
X143936600Y-102851200D02*
X143936600Y-101644533D01*
X143816600Y-102851200D02*
X143816600Y-101644533D01*
X143696600Y-102851200D02*
X143696600Y-101644533D01*
X143576600Y-102851200D02*
X143576600Y-101644533D01*
X143456600Y-102851200D02*
X143456600Y-101644533D01*
X143336600Y-102851200D02*
X143336600Y-101644533D01*
X143216600Y-102851200D02*
X143216600Y-101644533D01*
X143096600Y-102851200D02*
X143096600Y-101644533D01*
X142976600Y-99231200D02*
X142976600Y-102851200D01*
X144246600Y-99231200D02*
X142976600Y-99231200D01*
X144246600Y-102851200D02*
X144246600Y-99231200D01*
X142976600Y-102851200D02*
X144246600Y-102851200D01*
X140436600Y-101644533D02*
X141706600Y-101644533D01*
X141636600Y-102851200D02*
X141636600Y-101644533D01*
X141516600Y-102851200D02*
X141516600Y-101644533D01*
X141396600Y-102851200D02*
X141396600Y-101644533D01*
X141276600Y-102851200D02*
X141276600Y-101644533D01*
X141156600Y-102851200D02*
X141156600Y-101644533D01*
X141036600Y-102851200D02*
X141036600Y-101644533D01*
X140916600Y-102851200D02*
X140916600Y-101644533D01*
X140796600Y-102851200D02*
X140796600Y-101644533D01*
X140676600Y-102851200D02*
X140676600Y-101644533D01*
X140556600Y-102851200D02*
X140556600Y-101644533D01*
X140436600Y-99231200D02*
X140436600Y-102851200D01*
X141706600Y-99231200D02*
X140436600Y-99231200D01*
X141706600Y-102851200D02*
X141706600Y-99231200D01*
X140436600Y-102851200D02*
X141706600Y-102851200D01*
X137896600Y-101644533D02*
X139166600Y-101644533D01*
X139096600Y-102851200D02*
X139096600Y-101644533D01*
X138976600Y-102851200D02*
X138976600Y-101644533D01*
X138856600Y-102851200D02*
X138856600Y-101644533D01*
X138736600Y-102851200D02*
X138736600Y-101644533D01*
X138616600Y-102851200D02*
X138616600Y-101644533D01*
X138496600Y-102851200D02*
X138496600Y-101644533D01*
X138376600Y-102851200D02*
X138376600Y-101644533D01*
X138256600Y-102851200D02*
X138256600Y-101644533D01*
X138136600Y-102851200D02*
X138136600Y-101644533D01*
X138016600Y-102851200D02*
X138016600Y-101644533D01*
X137896600Y-99231200D02*
X137896600Y-102851200D01*
X139166600Y-99231200D02*
X137896600Y-99231200D01*
X139166600Y-102851200D02*
X139166600Y-99231200D01*
X137896600Y-102851200D02*
X139166600Y-102851200D01*
X135356600Y-101644533D02*
X136626600Y-101644533D01*
X136556600Y-102851200D02*
X136556600Y-101644533D01*
X136436600Y-102851200D02*
X136436600Y-101644533D01*
X136316600Y-102851200D02*
X136316600Y-101644533D01*
X136196600Y-102851200D02*
X136196600Y-101644533D01*
X136076600Y-102851200D02*
X136076600Y-101644533D01*
X135956600Y-102851200D02*
X135956600Y-101644533D01*
X135836600Y-102851200D02*
X135836600Y-101644533D01*
X135716600Y-102851200D02*
X135716600Y-101644533D01*
X135596600Y-102851200D02*
X135596600Y-101644533D01*
X135476600Y-102851200D02*
X135476600Y-101644533D01*
X135356600Y-99231200D02*
X135356600Y-102851200D01*
X136626600Y-99231200D02*
X135356600Y-99231200D01*
X136626600Y-102851200D02*
X136626600Y-99231200D01*
X135356600Y-102851200D02*
X136626600Y-102851200D01*
X132816600Y-101644533D02*
X134086600Y-101644533D01*
X134016600Y-102851200D02*
X134016600Y-101644533D01*
X133896600Y-102851200D02*
X133896600Y-101644533D01*
X133776600Y-102851200D02*
X133776600Y-101644533D01*
X133656600Y-102851200D02*
X133656600Y-101644533D01*
X133536600Y-102851200D02*
X133536600Y-101644533D01*
X133416600Y-102851200D02*
X133416600Y-101644533D01*
X133296600Y-102851200D02*
X133296600Y-101644533D01*
X133176600Y-102851200D02*
X133176600Y-101644533D01*
X133056600Y-102851200D02*
X133056600Y-101644533D01*
X132936600Y-102851200D02*
X132936600Y-101644533D01*
X132816600Y-99231200D02*
X132816600Y-102851200D01*
X134086600Y-99231200D02*
X132816600Y-99231200D01*
X134086600Y-102851200D02*
X134086600Y-99231200D01*
X132816600Y-102851200D02*
X134086600Y-102851200D01*
X130276600Y-101644533D02*
X131546600Y-101644533D01*
X131476600Y-102851200D02*
X131476600Y-101644533D01*
X131356600Y-102851200D02*
X131356600Y-101644533D01*
X131236600Y-102851200D02*
X131236600Y-101644533D01*
X131116600Y-102851200D02*
X131116600Y-101644533D01*
X130996600Y-102851200D02*
X130996600Y-101644533D01*
X130876600Y-102851200D02*
X130876600Y-101644533D01*
X130756600Y-102851200D02*
X130756600Y-101644533D01*
X130636600Y-102851200D02*
X130636600Y-101644533D01*
X130516600Y-102851200D02*
X130516600Y-101644533D01*
X130396600Y-102851200D02*
X130396600Y-101644533D01*
X130276600Y-99231200D02*
X130276600Y-102851200D01*
X131546600Y-99231200D02*
X130276600Y-99231200D01*
X131546600Y-102851200D02*
X131546600Y-99231200D01*
X130276600Y-102851200D02*
X131546600Y-102851200D01*
X127736600Y-101644533D02*
X129006600Y-101644533D01*
X128936600Y-102851200D02*
X128936600Y-101644533D01*
X128816600Y-102851200D02*
X128816600Y-101644533D01*
X128696600Y-102851200D02*
X128696600Y-101644533D01*
X128576600Y-102851200D02*
X128576600Y-101644533D01*
X128456600Y-102851200D02*
X128456600Y-101644533D01*
X128336600Y-102851200D02*
X128336600Y-101644533D01*
X128216600Y-102851200D02*
X128216600Y-101644533D01*
X128096600Y-102851200D02*
X128096600Y-101644533D01*
X127976600Y-102851200D02*
X127976600Y-101644533D01*
X127856600Y-102851200D02*
X127856600Y-101644533D01*
X127736600Y-99231200D02*
X127736600Y-102851200D01*
X129006600Y-99231200D02*
X127736600Y-99231200D01*
X129006600Y-102851200D02*
X129006600Y-99231200D01*
X127736600Y-102851200D02*
X129006600Y-102851200D01*
X125196600Y-101644533D02*
X126466600Y-101644533D01*
X126396600Y-102851200D02*
X126396600Y-101644533D01*
X126276600Y-102851200D02*
X126276600Y-101644533D01*
X126156600Y-102851200D02*
X126156600Y-101644533D01*
X126036600Y-102851200D02*
X126036600Y-101644533D01*
X125916600Y-102851200D02*
X125916600Y-101644533D01*
X125796600Y-102851200D02*
X125796600Y-101644533D01*
X125676600Y-102851200D02*
X125676600Y-101644533D01*
X125556600Y-102851200D02*
X125556600Y-101644533D01*
X125436600Y-102851200D02*
X125436600Y-101644533D01*
X125316600Y-102851200D02*
X125316600Y-101644533D01*
X125196600Y-99231200D02*
X125196600Y-102851200D01*
X126466600Y-99231200D02*
X125196600Y-99231200D01*
X126466600Y-102851200D02*
X126466600Y-99231200D01*
X125196600Y-102851200D02*
X126466600Y-102851200D01*
X122656600Y-101644533D02*
X123926600Y-101644533D01*
X123856600Y-102851200D02*
X123856600Y-101644533D01*
X123736600Y-102851200D02*
X123736600Y-101644533D01*
X123616600Y-102851200D02*
X123616600Y-101644533D01*
X123496600Y-102851200D02*
X123496600Y-101644533D01*
X123376600Y-102851200D02*
X123376600Y-101644533D01*
X123256600Y-102851200D02*
X123256600Y-101644533D01*
X123136600Y-102851200D02*
X123136600Y-101644533D01*
X123016600Y-102851200D02*
X123016600Y-101644533D01*
X122896600Y-102851200D02*
X122896600Y-101644533D01*
X122776600Y-102851200D02*
X122776600Y-101644533D01*
X122656600Y-99231200D02*
X122656600Y-102851200D01*
X123926600Y-99231200D02*
X122656600Y-99231200D01*
X123926600Y-102851200D02*
X123926600Y-99231200D01*
X122656600Y-102851200D02*
X123926600Y-102851200D01*
X120116600Y-101644533D02*
X121386600Y-101644533D01*
X121316600Y-102851200D02*
X121316600Y-101644533D01*
X121196600Y-102851200D02*
X121196600Y-101644533D01*
X121076600Y-102851200D02*
X121076600Y-101644533D01*
X120956600Y-102851200D02*
X120956600Y-101644533D01*
X120836600Y-102851200D02*
X120836600Y-101644533D01*
X120716600Y-102851200D02*
X120716600Y-101644533D01*
X120596600Y-102851200D02*
X120596600Y-101644533D01*
X120476600Y-102851200D02*
X120476600Y-101644533D01*
X120356600Y-102851200D02*
X120356600Y-101644533D01*
X120236600Y-102851200D02*
X120236600Y-101644533D01*
X120116600Y-99231200D02*
X120116600Y-102851200D01*
X121386600Y-99231200D02*
X120116600Y-99231200D01*
X121386600Y-102851200D02*
X121386600Y-99231200D01*
X120116600Y-102851200D02*
X121386600Y-102851200D01*
X118401600Y-104691200D02*
X119784600Y-104691200D01*
X118401600Y-104691200D02*
X118401600Y-103308200D01*
X121552600Y-97631200D02*
X122492600Y-97631200D01*
X118641600Y-97631200D02*
X119951600Y-97631200D01*
X124092600Y-97631200D02*
X125032600Y-97631200D01*
X126632600Y-97631200D02*
X127572600Y-97631200D01*
X129172600Y-97631200D02*
X130112600Y-97631200D01*
X131712600Y-97631200D02*
X132652600Y-97631200D01*
X134252600Y-97631200D02*
X135192600Y-97631200D01*
X136792600Y-97631200D02*
X137732600Y-97631200D01*
X139332600Y-97631200D02*
X140272600Y-97631200D01*
X141872600Y-97631200D02*
X142811600Y-97631200D01*
X144412600Y-97631200D02*
X145351600Y-97631200D01*
X146952600Y-97631200D02*
X147891600Y-97631200D01*
X149491600Y-97631200D02*
X150801600Y-97631200D01*
X149491600Y-104451200D02*
X150801600Y-104451200D01*
X146951600Y-104451200D02*
X147891600Y-104451200D01*
X144411600Y-104451200D02*
X145351600Y-104451200D01*
X141871600Y-104451200D02*
X142811600Y-104451200D01*
X139331600Y-104451200D02*
X140271600Y-104451200D01*
X136791600Y-104451200D02*
X137731600Y-104451200D01*
X134251600Y-104451200D02*
X135191600Y-104451200D01*
X131711600Y-104451200D02*
X132651600Y-104451200D01*
X129171600Y-104451200D02*
X130111600Y-104451200D01*
X126631600Y-104451200D02*
X127571600Y-104451200D01*
X124091600Y-104451200D02*
X125031600Y-104451200D01*
X121551600Y-104451200D02*
X122491600Y-104451200D01*
X118641600Y-104451200D02*
X119951600Y-104451200D01*
X150801600Y-104451200D02*
X150801600Y-97631200D01*
X118641600Y-104451200D02*
X118641600Y-97631200D01*
X135658104Y-85492794D02*
X135658104Y-86696922D01*
X133838104Y-85492794D02*
X133838104Y-86696922D01*
X107332864Y-112670000D02*
X106128736Y-112670000D01*
X107332864Y-110850000D02*
X106128736Y-110850000D01*
X143433862Y-92010068D02*
X143433862Y-90805940D01*
X145253862Y-92010068D02*
X145253862Y-90805940D01*
X148814862Y-92010068D02*
X148814862Y-90805940D01*
X146994862Y-92010068D02*
X146994862Y-90805940D01*
X99727936Y-109876000D02*
X100932064Y-109876000D01*
X99727936Y-108056000D02*
X100932064Y-108056000D01*
X148814862Y-85492794D02*
X148814862Y-86696922D01*
X146994862Y-85492794D02*
X146994862Y-86696922D01*
X122272400Y-83289064D02*
X122272400Y-82084936D01*
X120452400Y-83289064D02*
X120452400Y-82084936D01*
X155607936Y-101198000D02*
X156812064Y-101198000D01*
X155607936Y-103018000D02*
X156812064Y-103018000D01*
X138960104Y-86696922D02*
X138960104Y-85492794D01*
X137140104Y-86696922D02*
X137140104Y-85492794D01*
X132482000Y-92010068D02*
X132482000Y-90805940D01*
X130662000Y-92010068D02*
X130662000Y-90805940D01*
X99066000Y-82542000D02*
X103126000Y-82542000D01*
X103126000Y-82542000D02*
X103126000Y-80272000D01*
X103126000Y-80272000D02*
X99066000Y-80272000D01*
X109200332Y-82542000D02*
X113260332Y-82542000D01*
X109200332Y-80272000D02*
X109200332Y-82542000D01*
X113260332Y-80272000D02*
X109200332Y-80272000D01*
X103126000Y-83066000D02*
X99066000Y-83066000D01*
X103126000Y-85336000D02*
X103126000Y-83066000D01*
X99066000Y-85336000D02*
X103126000Y-85336000D01*
X113245332Y-83066000D02*
X109185332Y-83066000D01*
X109185332Y-83066000D02*
X109185332Y-85336000D01*
X109185332Y-85336000D02*
X113245332Y-85336000D01*
X168394000Y-105346000D02*
X167894000Y-104846000D01*
X167394000Y-105346000D02*
X168394000Y-105346000D01*
X167894000Y-104846000D02*
X167394000Y-105346000D01*
X181974000Y-104661000D02*
X181974000Y-89141000D01*
X164014000Y-89141000D02*
X181974000Y-89141000D01*
X164014000Y-89141000D02*
X164014000Y-104661000D01*
X164014000Y-104661000D02*
X181974000Y-104661000D01*
X154404000Y-87090000D02*
X154404000Y-91810000D01*
X154404000Y-91810000D02*
X160524000Y-91810000D01*
X160524000Y-91810000D02*
X160524000Y-87090000D01*
X160524000Y-87090000D02*
X154404000Y-87090000D01*
X156164000Y-87090000D02*
X156164000Y-86890000D01*
X156164000Y-86890000D02*
X155864000Y-86890000D01*
X155864000Y-86890000D02*
X155864000Y-87090000D01*
X156164000Y-86990000D02*
X155864000Y-86990000D01*
X156964000Y-87090000D02*
X156964000Y-87700000D01*
X156964000Y-87700000D02*
X155014000Y-87700000D01*
X155014000Y-87700000D02*
X155014000Y-91200000D01*
X155014000Y-91200000D02*
X159914000Y-91200000D01*
X159914000Y-91200000D02*
X159914000Y-87700000D01*
X159914000Y-87700000D02*
X157964000Y-87700000D01*
X157964000Y-87700000D02*
X157964000Y-87090000D01*
X154404000Y-88400000D02*
X155014000Y-88400000D01*
X154404000Y-89700000D02*
X155014000Y-89700000D01*
X160524000Y-88400000D02*
X159914000Y-88400000D01*
X160524000Y-89700000D02*
X159914000Y-89700000D01*
X157364000Y-91200000D02*
X157364000Y-90700000D01*
X157364000Y-90700000D02*
X157564000Y-90700000D01*
X157564000Y-90700000D02*
X157564000Y-91200000D01*
X157464000Y-91200000D02*
X157464000Y-90700000D01*
X155354000Y-86790000D02*
X154104000Y-86790000D01*
X154104000Y-86790000D02*
X154104000Y-88040000D01*
X147380000Y-112328000D02*
X147380000Y-109668000D01*
X134620000Y-112328000D02*
X147380000Y-112328000D01*
X134620000Y-109668000D02*
X147380000Y-109668000D01*
X134620000Y-112328000D02*
X134620000Y-109668000D01*
X133350000Y-112328000D02*
X132020000Y-112328000D01*
X132020000Y-112328000D02*
X132020000Y-110998000D01*
X162112000Y-98358000D02*
X162112000Y-95698000D01*
X154432000Y-98358000D02*
X162112000Y-98358000D01*
X154432000Y-95698000D02*
X162112000Y-95698000D01*
X154432000Y-98358000D02*
X154432000Y-95698000D01*
X153162000Y-98358000D02*
X151832000Y-98358000D01*
X151832000Y-98358000D02*
X151832000Y-97028000D01*
X149712000Y-92010068D02*
X149712000Y-90805940D01*
X151532000Y-92010068D02*
X151532000Y-90805940D01*
X105606102Y-82267000D02*
X106810230Y-82267000D01*
X105606102Y-80447000D02*
X106810230Y-80447000D01*
X105576102Y-83241000D02*
X106780230Y-83241000D01*
X105576102Y-85061000D02*
X106780230Y-85061000D01*
X106156936Y-108056000D02*
X107361064Y-108056000D01*
X106156936Y-109876000D02*
X107361064Y-109876000D01*
X135611862Y-92010068D02*
X135611862Y-90805940D01*
X133791862Y-92010068D02*
X133791862Y-90805940D01*
X116555436Y-80447000D02*
X117759564Y-80447000D01*
X116555436Y-82267000D02*
X117759564Y-82267000D01*
X116555436Y-85061000D02*
X117759564Y-85061000D01*
X116555436Y-83241000D02*
X117759564Y-83241000D01*
X115738000Y-109016000D02*
X115738000Y-108916000D01*
X111338000Y-110516000D02*
X115738000Y-110516000D01*
X115738000Y-107416000D02*
X111338000Y-107416000D01*
X111338000Y-109016000D02*
X111338000Y-108916000D01*
X116034000Y-105640000D02*
X116814000Y-105640000D01*
X116814000Y-105640000D02*
X116814000Y-104640000D01*
X116034000Y-87400000D02*
X116814000Y-87400000D01*
X116814000Y-87400000D02*
X116814000Y-88400000D01*
X91069000Y-105640000D02*
X91069000Y-87400000D01*
X91069000Y-87400000D02*
X97489000Y-87400000D01*
X91069000Y-105640000D02*
X97489000Y-105640000D01*
X97489000Y-105640000D02*
X97489000Y-106020000D01*
X138622862Y-93018004D02*
X140422862Y-93018004D01*
X140422862Y-89798004D02*
X137972862Y-89798004D01*
X156180000Y-106776000D02*
X154180000Y-106776000D01*
X155180000Y-103536000D02*
X152180000Y-103536000D01*
X126100100Y-91601800D02*
X126100100Y-92076800D01*
X126100100Y-92076800D02*
X125625100Y-92076800D01*
X121880100Y-88331800D02*
X121880100Y-87856800D01*
X121880100Y-87856800D02*
X122355100Y-87856800D01*
X121880100Y-91601800D02*
X121880100Y-92076800D01*
X121880100Y-92076800D02*
X122355100Y-92076800D01*
X126100100Y-88331800D02*
X126100100Y-87856800D01*
X144093604Y-84484858D02*
X142293604Y-84484858D01*
X142293604Y-87704858D02*
X144743604Y-87704858D01*
D11*
X133856361Y-102374533D02*
X133903980Y-102231676D01*
X133903980Y-101993580D01*
X133856361Y-101898342D01*
X133808742Y-101850723D01*
X133713504Y-101803104D01*
X133618266Y-101803104D01*
X133523028Y-101850723D01*
X133475409Y-101898342D01*
X133427790Y-101993580D01*
X133380171Y-102184057D01*
X133332552Y-102279295D01*
X133284933Y-102326914D01*
X133189695Y-102374533D01*
X133094457Y-102374533D01*
X132999219Y-102326914D01*
X132951600Y-102279295D01*
X132903980Y-102184057D01*
X132903980Y-101945961D01*
X132951600Y-101803104D01*
X132903980Y-101469771D02*
X133903980Y-101231676D01*
X133189695Y-101041200D01*
X133903980Y-100850723D01*
X132903980Y-100612628D01*
X132999219Y-100279295D02*
X132951600Y-100231676D01*
X132903980Y-100136438D01*
X132903980Y-99898342D01*
X132951600Y-99803104D01*
X132999219Y-99755485D01*
X133094457Y-99707866D01*
X133189695Y-99707866D01*
X133332552Y-99755485D01*
X133903980Y-100326914D01*
X133903980Y-99707866D01*
X136925246Y-86261524D02*
X136972865Y-86309143D01*
X137020484Y-86452000D01*
X137020484Y-86547238D01*
X136972865Y-86690096D01*
X136877627Y-86785334D01*
X136782389Y-86832953D01*
X136591913Y-86880572D01*
X136449056Y-86880572D01*
X136258580Y-86832953D01*
X136163342Y-86785334D01*
X136068104Y-86690096D01*
X136020484Y-86547238D01*
X136020484Y-86452000D01*
X136068104Y-86309143D01*
X136115723Y-86261524D01*
X137020484Y-85309143D02*
X137020484Y-85880572D01*
X137020484Y-85594858D02*
X136020484Y-85594858D01*
X136163342Y-85690096D01*
X136258580Y-85785334D01*
X136306199Y-85880572D01*
X106564133Y-113937142D02*
X106516514Y-113984761D01*
X106373657Y-114032380D01*
X106278419Y-114032380D01*
X106135561Y-113984761D01*
X106040323Y-113889523D01*
X105992704Y-113794285D01*
X105945085Y-113603809D01*
X105945085Y-113460952D01*
X105992704Y-113270476D01*
X106040323Y-113175238D01*
X106135561Y-113080000D01*
X106278419Y-113032380D01*
X106373657Y-113032380D01*
X106516514Y-113080000D01*
X106564133Y-113127619D01*
X106945085Y-113127619D02*
X106992704Y-113080000D01*
X107087942Y-113032380D01*
X107326038Y-113032380D01*
X107421276Y-113080000D01*
X107468895Y-113127619D01*
X107516514Y-113222857D01*
X107516514Y-113318095D01*
X107468895Y-113460952D01*
X106897466Y-114032380D01*
X107516514Y-114032380D01*
X142881004Y-91574670D02*
X142928623Y-91622289D01*
X142976242Y-91765146D01*
X142976242Y-91860384D01*
X142928623Y-92003242D01*
X142833385Y-92098480D01*
X142738147Y-92146099D01*
X142547671Y-92193718D01*
X142404814Y-92193718D01*
X142214338Y-92146099D01*
X142119100Y-92098480D01*
X142023862Y-92003242D01*
X141976242Y-91860384D01*
X141976242Y-91765146D01*
X142023862Y-91622289D01*
X142071481Y-91574670D01*
X141976242Y-91241337D02*
X141976242Y-90622289D01*
X142357195Y-90955623D01*
X142357195Y-90812765D01*
X142404814Y-90717527D01*
X142452433Y-90669908D01*
X142547671Y-90622289D01*
X142785766Y-90622289D01*
X142881004Y-90669908D01*
X142928623Y-90717527D01*
X142976242Y-90812765D01*
X142976242Y-91098480D01*
X142928623Y-91193718D01*
X142881004Y-91241337D01*
X146442004Y-91574670D02*
X146489623Y-91622289D01*
X146537242Y-91765146D01*
X146537242Y-91860384D01*
X146489623Y-92003242D01*
X146394385Y-92098480D01*
X146299147Y-92146099D01*
X146108671Y-92193718D01*
X145965814Y-92193718D01*
X145775338Y-92146099D01*
X145680100Y-92098480D01*
X145584862Y-92003242D01*
X145537242Y-91860384D01*
X145537242Y-91765146D01*
X145584862Y-91622289D01*
X145632481Y-91574670D01*
X145870576Y-90717527D02*
X146537242Y-90717527D01*
X145489623Y-90955623D02*
X146203909Y-91193718D01*
X146203909Y-90574670D01*
X100163333Y-107503142D02*
X100115714Y-107550761D01*
X99972857Y-107598380D01*
X99877619Y-107598380D01*
X99734761Y-107550761D01*
X99639523Y-107455523D01*
X99591904Y-107360285D01*
X99544285Y-107169809D01*
X99544285Y-107026952D01*
X99591904Y-106836476D01*
X99639523Y-106741238D01*
X99734761Y-106646000D01*
X99877619Y-106598380D01*
X99972857Y-106598380D01*
X100115714Y-106646000D01*
X100163333Y-106693619D01*
X101068095Y-106598380D02*
X100591904Y-106598380D01*
X100544285Y-107074571D01*
X100591904Y-107026952D01*
X100687142Y-106979333D01*
X100925238Y-106979333D01*
X101020476Y-107026952D01*
X101068095Y-107074571D01*
X101115714Y-107169809D01*
X101115714Y-107407904D01*
X101068095Y-107503142D01*
X101020476Y-107550761D01*
X100925238Y-107598380D01*
X100687142Y-107598380D01*
X100591904Y-107550761D01*
X100544285Y-107503142D01*
X150082004Y-86261524D02*
X150129623Y-86309143D01*
X150177242Y-86452000D01*
X150177242Y-86547238D01*
X150129623Y-86690096D01*
X150034385Y-86785334D01*
X149939147Y-86832953D01*
X149748671Y-86880572D01*
X149605814Y-86880572D01*
X149415338Y-86832953D01*
X149320100Y-86785334D01*
X149224862Y-86690096D01*
X149177242Y-86547238D01*
X149177242Y-86452000D01*
X149224862Y-86309143D01*
X149272481Y-86261524D01*
X149177242Y-85404381D02*
X149177242Y-85594858D01*
X149224862Y-85690096D01*
X149272481Y-85737715D01*
X149415338Y-85832953D01*
X149605814Y-85880572D01*
X149986766Y-85880572D01*
X150082004Y-85832953D01*
X150129623Y-85785334D01*
X150177242Y-85690096D01*
X150177242Y-85499619D01*
X150129623Y-85404381D01*
X150082004Y-85356762D01*
X149986766Y-85309143D01*
X149748671Y-85309143D01*
X149653433Y-85356762D01*
X149605814Y-85404381D01*
X149558195Y-85499619D01*
X149558195Y-85690096D01*
X149605814Y-85785334D01*
X149653433Y-85832953D01*
X149748671Y-85880572D01*
X119899542Y-82853666D02*
X119947161Y-82901285D01*
X119994780Y-83044142D01*
X119994780Y-83139380D01*
X119947161Y-83282238D01*
X119851923Y-83377476D01*
X119756685Y-83425095D01*
X119566209Y-83472714D01*
X119423352Y-83472714D01*
X119232876Y-83425095D01*
X119137638Y-83377476D01*
X119042400Y-83282238D01*
X118994780Y-83139380D01*
X118994780Y-83044142D01*
X119042400Y-82901285D01*
X119090019Y-82853666D01*
X118994780Y-82520333D02*
X118994780Y-81853666D01*
X119994780Y-82282238D01*
X156043333Y-100645142D02*
X155995714Y-100692761D01*
X155852857Y-100740380D01*
X155757619Y-100740380D01*
X155614761Y-100692761D01*
X155519523Y-100597523D01*
X155471904Y-100502285D01*
X155424285Y-100311809D01*
X155424285Y-100168952D01*
X155471904Y-99978476D01*
X155519523Y-99883238D01*
X155614761Y-99788000D01*
X155757619Y-99740380D01*
X155852857Y-99740380D01*
X155995714Y-99788000D01*
X156043333Y-99835619D01*
X156614761Y-100168952D02*
X156519523Y-100121333D01*
X156471904Y-100073714D01*
X156424285Y-99978476D01*
X156424285Y-99930857D01*
X156471904Y-99835619D01*
X156519523Y-99788000D01*
X156614761Y-99740380D01*
X156805238Y-99740380D01*
X156900476Y-99788000D01*
X156948095Y-99835619D01*
X156995714Y-99930857D01*
X156995714Y-99978476D01*
X156948095Y-100073714D01*
X156900476Y-100121333D01*
X156805238Y-100168952D01*
X156614761Y-100168952D01*
X156519523Y-100216571D01*
X156471904Y-100264190D01*
X156424285Y-100359428D01*
X156424285Y-100549904D01*
X156471904Y-100645142D01*
X156519523Y-100692761D01*
X156614761Y-100740380D01*
X156805238Y-100740380D01*
X156900476Y-100692761D01*
X156948095Y-100645142D01*
X156995714Y-100549904D01*
X156995714Y-100359428D01*
X156948095Y-100264190D01*
X156900476Y-100216571D01*
X156805238Y-100168952D01*
X136587246Y-86261524D02*
X136634865Y-86309143D01*
X136682484Y-86452000D01*
X136682484Y-86547238D01*
X136634865Y-86690096D01*
X136539627Y-86785334D01*
X136444389Y-86832953D01*
X136253913Y-86880572D01*
X136111056Y-86880572D01*
X135920580Y-86832953D01*
X135825342Y-86785334D01*
X135730104Y-86690096D01*
X135682484Y-86547238D01*
X135682484Y-86452000D01*
X135730104Y-86309143D01*
X135777723Y-86261524D01*
X136682484Y-85785334D02*
X136682484Y-85594858D01*
X136634865Y-85499619D01*
X136587246Y-85452000D01*
X136444389Y-85356762D01*
X136253913Y-85309143D01*
X135872961Y-85309143D01*
X135777723Y-85356762D01*
X135730104Y-85404381D01*
X135682484Y-85499619D01*
X135682484Y-85690096D01*
X135730104Y-85785334D01*
X135777723Y-85832953D01*
X135872961Y-85880572D01*
X136111056Y-85880572D01*
X136206294Y-85832953D01*
X136253913Y-85785334D01*
X136301532Y-85690096D01*
X136301532Y-85499619D01*
X136253913Y-85404381D01*
X136206294Y-85356762D01*
X136111056Y-85309143D01*
X130109142Y-92050861D02*
X130156761Y-92098480D01*
X130204380Y-92241337D01*
X130204380Y-92336575D01*
X130156761Y-92479432D01*
X130061523Y-92574670D01*
X129966285Y-92622289D01*
X129775809Y-92669908D01*
X129632952Y-92669908D01*
X129442476Y-92622289D01*
X129347238Y-92574670D01*
X129252000Y-92479432D01*
X129204380Y-92336575D01*
X129204380Y-92241337D01*
X129252000Y-92098480D01*
X129299619Y-92050861D01*
X130204380Y-91098480D02*
X130204380Y-91669908D01*
X130204380Y-91384194D02*
X129204380Y-91384194D01*
X129347238Y-91479432D01*
X129442476Y-91574670D01*
X129490095Y-91669908D01*
X129204380Y-90479432D02*
X129204380Y-90384194D01*
X129252000Y-90288956D01*
X129299619Y-90241337D01*
X129394857Y-90193718D01*
X129585333Y-90146099D01*
X129823428Y-90146099D01*
X130013904Y-90193718D01*
X130109142Y-90241337D01*
X130156761Y-90288956D01*
X130204380Y-90384194D01*
X130204380Y-90479432D01*
X130156761Y-90574670D01*
X130109142Y-90622289D01*
X130013904Y-90669908D01*
X129823428Y-90717527D01*
X129585333Y-90717527D01*
X129394857Y-90669908D01*
X129299619Y-90622289D01*
X129252000Y-90574670D01*
X129204380Y-90479432D01*
X99927904Y-83679380D02*
X99927904Y-82679380D01*
X100166000Y-82679380D01*
X100308857Y-82727000D01*
X100404095Y-82822238D01*
X100451714Y-82917476D01*
X100499333Y-83107952D01*
X100499333Y-83250809D01*
X100451714Y-83441285D01*
X100404095Y-83536523D01*
X100308857Y-83631761D01*
X100166000Y-83679380D01*
X99927904Y-83679380D01*
X101451714Y-83679380D02*
X100880285Y-83679380D01*
X101166000Y-83679380D02*
X101166000Y-82679380D01*
X101070761Y-82822238D01*
X100975523Y-82917476D01*
X100880285Y-82965095D01*
X110922236Y-80039380D02*
X110922236Y-79039380D01*
X111160332Y-79039380D01*
X111303189Y-79087000D01*
X111398427Y-79182238D01*
X111446046Y-79277476D01*
X111493665Y-79467952D01*
X111493665Y-79610809D01*
X111446046Y-79801285D01*
X111398427Y-79896523D01*
X111303189Y-79991761D01*
X111160332Y-80039380D01*
X110922236Y-80039380D01*
X111874617Y-79134619D02*
X111922236Y-79087000D01*
X112017474Y-79039380D01*
X112255570Y-79039380D01*
X112350808Y-79087000D01*
X112398427Y-79134619D01*
X112446046Y-79229857D01*
X112446046Y-79325095D01*
X112398427Y-79467952D01*
X111826998Y-80039380D01*
X112446046Y-80039380D01*
X99927904Y-86473380D02*
X99927904Y-85473380D01*
X100166000Y-85473380D01*
X100308857Y-85521000D01*
X100404095Y-85616238D01*
X100451714Y-85711476D01*
X100499333Y-85901952D01*
X100499333Y-86044809D01*
X100451714Y-86235285D01*
X100404095Y-86330523D01*
X100308857Y-86425761D01*
X100166000Y-86473380D01*
X99927904Y-86473380D01*
X100832666Y-85473380D02*
X101451714Y-85473380D01*
X101118380Y-85854333D01*
X101261238Y-85854333D01*
X101356476Y-85901952D01*
X101404095Y-85949571D01*
X101451714Y-86044809D01*
X101451714Y-86282904D01*
X101404095Y-86378142D01*
X101356476Y-86425761D01*
X101261238Y-86473380D01*
X100975523Y-86473380D01*
X100880285Y-86425761D01*
X100832666Y-86378142D01*
X110907236Y-82833380D02*
X110907236Y-81833380D01*
X111145332Y-81833380D01*
X111288189Y-81881000D01*
X111383427Y-81976238D01*
X111431046Y-82071476D01*
X111478665Y-82261952D01*
X111478665Y-82404809D01*
X111431046Y-82595285D01*
X111383427Y-82690523D01*
X111288189Y-82785761D01*
X111145332Y-82833380D01*
X110907236Y-82833380D01*
X112335808Y-82166714D02*
X112335808Y-82833380D01*
X112097712Y-81785761D02*
X111859617Y-82500047D01*
X112478665Y-82500047D01*
X162346380Y-97234333D02*
X163060666Y-97234333D01*
X163203523Y-97281952D01*
X163298761Y-97377190D01*
X163346380Y-97520047D01*
X163346380Y-97615285D01*
X163346380Y-96234333D02*
X163346380Y-96805761D01*
X163346380Y-96520047D02*
X162346380Y-96520047D01*
X162489238Y-96615285D01*
X162584476Y-96710523D01*
X162632095Y-96805761D01*
X157130666Y-85452380D02*
X157130666Y-86166666D01*
X157083047Y-86309523D01*
X156987809Y-86404761D01*
X156844952Y-86452380D01*
X156749714Y-86452380D01*
X157511619Y-85452380D02*
X158130666Y-85452380D01*
X157797333Y-85833333D01*
X157940190Y-85833333D01*
X158035428Y-85880952D01*
X158083047Y-85928571D01*
X158130666Y-86023809D01*
X158130666Y-86261904D01*
X158083047Y-86357142D01*
X158035428Y-86404761D01*
X157940190Y-86452380D01*
X157654476Y-86452380D01*
X157559238Y-86404761D01*
X157511619Y-86357142D01*
X130472380Y-111331333D02*
X131186666Y-111331333D01*
X131329523Y-111378952D01*
X131424761Y-111474190D01*
X131472380Y-111617047D01*
X131472380Y-111712285D01*
X130805714Y-110426571D02*
X131472380Y-110426571D01*
X130424761Y-110664666D02*
X131139047Y-110902761D01*
X131139047Y-110283714D01*
X150284380Y-97361333D02*
X150998666Y-97361333D01*
X151141523Y-97408952D01*
X151236761Y-97504190D01*
X151284380Y-97647047D01*
X151284380Y-97742285D01*
X150284380Y-96456571D02*
X150284380Y-96647047D01*
X150332000Y-96742285D01*
X150379619Y-96789904D01*
X150522476Y-96885142D01*
X150712952Y-96932761D01*
X151093904Y-96932761D01*
X151189142Y-96885142D01*
X151236761Y-96837523D01*
X151284380Y-96742285D01*
X151284380Y-96551809D01*
X151236761Y-96456571D01*
X151189142Y-96408952D01*
X151093904Y-96361333D01*
X150855809Y-96361333D01*
X150760571Y-96408952D01*
X150712952Y-96456571D01*
X150665333Y-96551809D01*
X150665333Y-96742285D01*
X150712952Y-96837523D01*
X150760571Y-96885142D01*
X150855809Y-96932761D01*
X149254380Y-91574670D02*
X148778190Y-91908004D01*
X149254380Y-92146099D02*
X148254380Y-92146099D01*
X148254380Y-91765146D01*
X148302000Y-91669908D01*
X148349619Y-91622289D01*
X148444857Y-91574670D01*
X148587714Y-91574670D01*
X148682952Y-91622289D01*
X148730571Y-91669908D01*
X148778190Y-91765146D01*
X148778190Y-92146099D01*
X149254380Y-90622289D02*
X149254380Y-91193718D01*
X149254380Y-90908004D02*
X148254380Y-90908004D01*
X148397238Y-91003242D01*
X148492476Y-91098480D01*
X148540095Y-91193718D01*
X106041499Y-79989380D02*
X105708166Y-79513190D01*
X105470070Y-79989380D02*
X105470070Y-78989380D01*
X105851023Y-78989380D01*
X105946261Y-79037000D01*
X105993880Y-79084619D01*
X106041499Y-79179857D01*
X106041499Y-79322714D01*
X105993880Y-79417952D01*
X105946261Y-79465571D01*
X105851023Y-79513190D01*
X105470070Y-79513190D01*
X106422451Y-79084619D02*
X106470070Y-79037000D01*
X106565308Y-78989380D01*
X106803404Y-78989380D01*
X106898642Y-79037000D01*
X106946261Y-79084619D01*
X106993880Y-79179857D01*
X106993880Y-79275095D01*
X106946261Y-79417952D01*
X106374832Y-79989380D01*
X106993880Y-79989380D01*
X106011499Y-82783380D02*
X105678166Y-82307190D01*
X105440070Y-82783380D02*
X105440070Y-81783380D01*
X105821023Y-81783380D01*
X105916261Y-81831000D01*
X105963880Y-81878619D01*
X106011499Y-81973857D01*
X106011499Y-82116714D01*
X105963880Y-82211952D01*
X105916261Y-82259571D01*
X105821023Y-82307190D01*
X105440070Y-82307190D01*
X106344832Y-81783380D02*
X106963880Y-81783380D01*
X106630546Y-82164333D01*
X106773404Y-82164333D01*
X106868642Y-82211952D01*
X106916261Y-82259571D01*
X106963880Y-82354809D01*
X106963880Y-82592904D01*
X106916261Y-82688142D01*
X106868642Y-82735761D01*
X106773404Y-82783380D01*
X106487689Y-82783380D01*
X106392451Y-82735761D01*
X106344832Y-82688142D01*
X106592333Y-107598380D02*
X106259000Y-107122190D01*
X106020904Y-107598380D02*
X106020904Y-106598380D01*
X106401857Y-106598380D01*
X106497095Y-106646000D01*
X106544714Y-106693619D01*
X106592333Y-106788857D01*
X106592333Y-106931714D01*
X106544714Y-107026952D01*
X106497095Y-107074571D01*
X106401857Y-107122190D01*
X106020904Y-107122190D01*
X107449476Y-106931714D02*
X107449476Y-107598380D01*
X107211380Y-106550761D02*
X106973285Y-107265047D01*
X107592333Y-107265047D01*
X133334242Y-91574670D02*
X132858052Y-91908004D01*
X133334242Y-92146099D02*
X132334242Y-92146099D01*
X132334242Y-91765146D01*
X132381862Y-91669908D01*
X132429481Y-91622289D01*
X132524719Y-91574670D01*
X132667576Y-91574670D01*
X132762814Y-91622289D01*
X132810433Y-91669908D01*
X132858052Y-91765146D01*
X132858052Y-92146099D01*
X132334242Y-90669908D02*
X132334242Y-91146099D01*
X132810433Y-91193718D01*
X132762814Y-91146099D01*
X132715195Y-91050861D01*
X132715195Y-90812765D01*
X132762814Y-90717527D01*
X132810433Y-90669908D01*
X132905671Y-90622289D01*
X133143766Y-90622289D01*
X133239004Y-90669908D01*
X133286623Y-90717527D01*
X133334242Y-90812765D01*
X133334242Y-91050861D01*
X133286623Y-91146099D01*
X133239004Y-91193718D01*
X116990833Y-79989380D02*
X116657500Y-79513190D01*
X116419404Y-79989380D02*
X116419404Y-78989380D01*
X116800357Y-78989380D01*
X116895595Y-79037000D01*
X116943214Y-79084619D01*
X116990833Y-79179857D01*
X116990833Y-79322714D01*
X116943214Y-79417952D01*
X116895595Y-79465571D01*
X116800357Y-79513190D01*
X116419404Y-79513190D01*
X117847976Y-78989380D02*
X117657500Y-78989380D01*
X117562261Y-79037000D01*
X117514642Y-79084619D01*
X117419404Y-79227476D01*
X117371785Y-79417952D01*
X117371785Y-79798904D01*
X117419404Y-79894142D01*
X117467023Y-79941761D01*
X117562261Y-79989380D01*
X117752738Y-79989380D01*
X117847976Y-79941761D01*
X117895595Y-79894142D01*
X117943214Y-79798904D01*
X117943214Y-79560809D01*
X117895595Y-79465571D01*
X117847976Y-79417952D01*
X117752738Y-79370333D01*
X117562261Y-79370333D01*
X117467023Y-79417952D01*
X117419404Y-79465571D01*
X117371785Y-79560809D01*
X116990833Y-82783380D02*
X116657500Y-82307190D01*
X116419404Y-82783380D02*
X116419404Y-81783380D01*
X116800357Y-81783380D01*
X116895595Y-81831000D01*
X116943214Y-81878619D01*
X116990833Y-81973857D01*
X116990833Y-82116714D01*
X116943214Y-82211952D01*
X116895595Y-82259571D01*
X116800357Y-82307190D01*
X116419404Y-82307190D01*
X117324166Y-81783380D02*
X117990833Y-81783380D01*
X117562261Y-82783380D01*
X112204666Y-106920761D02*
X112347523Y-106968380D01*
X112585619Y-106968380D01*
X112680857Y-106920761D01*
X112728476Y-106873142D01*
X112776095Y-106777904D01*
X112776095Y-106682666D01*
X112728476Y-106587428D01*
X112680857Y-106539809D01*
X112585619Y-106492190D01*
X112395142Y-106444571D01*
X112299904Y-106396952D01*
X112252285Y-106349333D01*
X112204666Y-106254095D01*
X112204666Y-106158857D01*
X112252285Y-106063619D01*
X112299904Y-106016000D01*
X112395142Y-105968380D01*
X112633238Y-105968380D01*
X112776095Y-106016000D01*
X113109428Y-105968380D02*
X113347523Y-106968380D01*
X113538000Y-106254095D01*
X113728476Y-106968380D01*
X113966571Y-105968380D01*
X114871333Y-106968380D02*
X114299904Y-106968380D01*
X114585619Y-106968380D02*
X114585619Y-105968380D01*
X114490380Y-106111238D01*
X114395142Y-106206476D01*
X114299904Y-106254095D01*
X114602095Y-106582380D02*
X114602095Y-107391904D01*
X114649714Y-107487142D01*
X114697333Y-107534761D01*
X114792571Y-107582380D01*
X114983047Y-107582380D01*
X115078285Y-107534761D01*
X115125904Y-107487142D01*
X115173523Y-107391904D01*
X115173523Y-106582380D01*
X116173523Y-107582380D02*
X115602095Y-107582380D01*
X115887809Y-107582380D02*
X115887809Y-106582380D01*
X115792571Y-106725238D01*
X115697333Y-106820476D01*
X115602095Y-106868095D01*
X138760957Y-87960384D02*
X138760957Y-88769908D01*
X138808576Y-88865146D01*
X138856195Y-88912765D01*
X138951433Y-88960384D01*
X139141909Y-88960384D01*
X139237147Y-88912765D01*
X139284766Y-88865146D01*
X139332385Y-88769908D01*
X139332385Y-87960384D01*
X139760957Y-88055623D02*
X139808576Y-88008004D01*
X139903814Y-87960384D01*
X140141909Y-87960384D01*
X140237147Y-88008004D01*
X140284766Y-88055623D01*
X140332385Y-88150861D01*
X140332385Y-88246099D01*
X140284766Y-88388956D01*
X139713338Y-88960384D01*
X140332385Y-88960384D01*
X154418095Y-102108380D02*
X154418095Y-102917904D01*
X154465714Y-103013142D01*
X154513333Y-103060761D01*
X154608571Y-103108380D01*
X154799047Y-103108380D01*
X154894285Y-103060761D01*
X154941904Y-103013142D01*
X154989523Y-102917904D01*
X154989523Y-102108380D01*
X155370476Y-102108380D02*
X155989523Y-102108380D01*
X155656190Y-102489333D01*
X155799047Y-102489333D01*
X155894285Y-102536952D01*
X155941904Y-102584571D01*
X155989523Y-102679809D01*
X155989523Y-102917904D01*
X155941904Y-103013142D01*
X155894285Y-103060761D01*
X155799047Y-103108380D01*
X155513333Y-103108380D01*
X155418095Y-103060761D01*
X155370476Y-103013142D01*
X126742480Y-90728704D02*
X127552004Y-90728704D01*
X127647242Y-90681085D01*
X127694861Y-90633466D01*
X127742480Y-90538228D01*
X127742480Y-90347752D01*
X127694861Y-90252514D01*
X127647242Y-90204895D01*
X127552004Y-90157276D01*
X126742480Y-90157276D01*
X127075814Y-89252514D02*
X127742480Y-89252514D01*
X126694861Y-89490609D02*
X127409147Y-89728704D01*
X127409147Y-89109657D01*
X142431699Y-88447238D02*
X142431699Y-89256762D01*
X142479318Y-89352000D01*
X142526937Y-89399619D01*
X142622175Y-89447238D01*
X142812651Y-89447238D01*
X142907889Y-89399619D01*
X142955508Y-89352000D01*
X143003127Y-89256762D01*
X143003127Y-88447238D01*
X143955508Y-88447238D02*
X143479318Y-88447238D01*
X143431699Y-88923429D01*
X143479318Y-88875810D01*
X143574556Y-88828191D01*
X143812651Y-88828191D01*
X143907889Y-88875810D01*
X143955508Y-88923429D01*
X144003127Y-89018667D01*
X144003127Y-89256762D01*
X143955508Y-89352000D01*
X143907889Y-89399619D01*
X143812651Y-89447238D01*
X143574556Y-89447238D01*
X143479318Y-89399619D01*
X143431699Y-89352000D01*
M02*
