G04 #@! TF.GenerationSoftware,KiCad,Pcbnew,5.1.5+dfsg1-2build2*
G04 #@! TF.CreationDate,2020-08-28T17:04:02+02:00*
G04 #@! TF.ProjectId,System Air,53797374-656d-4204-9169-722e6b696361,rev?*
G04 #@! TF.SameCoordinates,Original*
G04 #@! TF.FileFunction,Soldermask,Top*
G04 #@! TF.FilePolarity,Negative*
%FSLAX46Y46*%
G04 Gerber Fmt 4.6, Leading zero omitted, Abs format (unit mm)*
G04 Created by KiCad (PCBNEW 5.1.5+dfsg1-2build2) date 2020-08-28 17:04:02*
%MOMM*%
%LPD*%
G04 APERTURE LIST*
%ADD10C,0.100000*%
G04 APERTURE END LIST*
D10*
G36*
X108794764Y-110888837D02*
G01*
X108826325Y-110898412D01*
X108855420Y-110913963D01*
X108880915Y-110934885D01*
X108901837Y-110960380D01*
X108917388Y-110989475D01*
X108926963Y-111021036D01*
X108930800Y-111059998D01*
X108930800Y-112460002D01*
X108926963Y-112498964D01*
X108917388Y-112530525D01*
X108901837Y-112559620D01*
X108880915Y-112585115D01*
X108855420Y-112606037D01*
X108826325Y-112621588D01*
X108794764Y-112631163D01*
X108755802Y-112635000D01*
X107680798Y-112635000D01*
X107641836Y-112631163D01*
X107610275Y-112621588D01*
X107581180Y-112606037D01*
X107555685Y-112585115D01*
X107534763Y-112559620D01*
X107519212Y-112530525D01*
X107509637Y-112498964D01*
X107505800Y-112460002D01*
X107505800Y-111059998D01*
X107509637Y-111021036D01*
X107519212Y-110989475D01*
X107534763Y-110960380D01*
X107555685Y-110934885D01*
X107581180Y-110913963D01*
X107610275Y-110898412D01*
X107641836Y-110888837D01*
X107680798Y-110885000D01*
X108755802Y-110885000D01*
X108794764Y-110888837D01*
G37*
G36*
X105819764Y-110888837D02*
G01*
X105851325Y-110898412D01*
X105880420Y-110913963D01*
X105905915Y-110934885D01*
X105926837Y-110960380D01*
X105942388Y-110989475D01*
X105951963Y-111021036D01*
X105955800Y-111059998D01*
X105955800Y-112460002D01*
X105951963Y-112498964D01*
X105942388Y-112530525D01*
X105926837Y-112559620D01*
X105905915Y-112585115D01*
X105880420Y-112606037D01*
X105851325Y-112621588D01*
X105819764Y-112631163D01*
X105780802Y-112635000D01*
X104705798Y-112635000D01*
X104666836Y-112631163D01*
X104635275Y-112621588D01*
X104606180Y-112606037D01*
X104580685Y-112585115D01*
X104559763Y-112559620D01*
X104544212Y-112530525D01*
X104534637Y-112498964D01*
X104530800Y-112460002D01*
X104530800Y-111059998D01*
X104534637Y-111021036D01*
X104544212Y-110989475D01*
X104559763Y-110960380D01*
X104580685Y-110934885D01*
X104606180Y-110913963D01*
X104635275Y-110898412D01*
X104666836Y-110888837D01*
X104705798Y-110885000D01*
X105780802Y-110885000D01*
X105819764Y-110888837D01*
G37*
G36*
X138677935Y-110180664D02*
G01*
X138832624Y-110244739D01*
X138832626Y-110244740D01*
X138971844Y-110337762D01*
X139090238Y-110456156D01*
X139183260Y-110595374D01*
X139183261Y-110595376D01*
X139247336Y-110750065D01*
X139280000Y-110914281D01*
X139280000Y-111081719D01*
X139247336Y-111245935D01*
X139183261Y-111400624D01*
X139183260Y-111400626D01*
X139090238Y-111539844D01*
X138971844Y-111658238D01*
X138832626Y-111751260D01*
X138832625Y-111751261D01*
X138832624Y-111751261D01*
X138677935Y-111815336D01*
X138513719Y-111848000D01*
X138346281Y-111848000D01*
X138182065Y-111815336D01*
X138027376Y-111751261D01*
X138027375Y-111751261D01*
X138027374Y-111751260D01*
X137888156Y-111658238D01*
X137769762Y-111539844D01*
X137676740Y-111400626D01*
X137676739Y-111400624D01*
X137612664Y-111245935D01*
X137580000Y-111081719D01*
X137580000Y-110914281D01*
X137612664Y-110750065D01*
X137676739Y-110595376D01*
X137676740Y-110595374D01*
X137769762Y-110456156D01*
X137888156Y-110337762D01*
X138027374Y-110244740D01*
X138027376Y-110244739D01*
X138182065Y-110180664D01*
X138346281Y-110148000D01*
X138513719Y-110148000D01*
X138677935Y-110180664D01*
G37*
G36*
X136137935Y-110180664D02*
G01*
X136292624Y-110244739D01*
X136292626Y-110244740D01*
X136431844Y-110337762D01*
X136550238Y-110456156D01*
X136643260Y-110595374D01*
X136643261Y-110595376D01*
X136707336Y-110750065D01*
X136740000Y-110914281D01*
X136740000Y-111081719D01*
X136707336Y-111245935D01*
X136643261Y-111400624D01*
X136643260Y-111400626D01*
X136550238Y-111539844D01*
X136431844Y-111658238D01*
X136292626Y-111751260D01*
X136292625Y-111751261D01*
X136292624Y-111751261D01*
X136137935Y-111815336D01*
X135973719Y-111848000D01*
X135806281Y-111848000D01*
X135642065Y-111815336D01*
X135487376Y-111751261D01*
X135487375Y-111751261D01*
X135487374Y-111751260D01*
X135348156Y-111658238D01*
X135229762Y-111539844D01*
X135136740Y-111400626D01*
X135136739Y-111400624D01*
X135072664Y-111245935D01*
X135040000Y-111081719D01*
X135040000Y-110914281D01*
X135072664Y-110750065D01*
X135136739Y-110595376D01*
X135136740Y-110595374D01*
X135229762Y-110456156D01*
X135348156Y-110337762D01*
X135487374Y-110244740D01*
X135487376Y-110244739D01*
X135642065Y-110180664D01*
X135806281Y-110148000D01*
X135973719Y-110148000D01*
X136137935Y-110180664D01*
G37*
G36*
X134200000Y-111848000D02*
G01*
X132500000Y-111848000D01*
X132500000Y-110148000D01*
X134200000Y-110148000D01*
X134200000Y-111848000D01*
G37*
G36*
X141217935Y-110180664D02*
G01*
X141372624Y-110244739D01*
X141372626Y-110244740D01*
X141511844Y-110337762D01*
X141630238Y-110456156D01*
X141723260Y-110595374D01*
X141723261Y-110595376D01*
X141787336Y-110750065D01*
X141820000Y-110914281D01*
X141820000Y-111081719D01*
X141787336Y-111245935D01*
X141723261Y-111400624D01*
X141723260Y-111400626D01*
X141630238Y-111539844D01*
X141511844Y-111658238D01*
X141372626Y-111751260D01*
X141372625Y-111751261D01*
X141372624Y-111751261D01*
X141217935Y-111815336D01*
X141053719Y-111848000D01*
X140886281Y-111848000D01*
X140722065Y-111815336D01*
X140567376Y-111751261D01*
X140567375Y-111751261D01*
X140567374Y-111751260D01*
X140428156Y-111658238D01*
X140309762Y-111539844D01*
X140216740Y-111400626D01*
X140216739Y-111400624D01*
X140152664Y-111245935D01*
X140120000Y-111081719D01*
X140120000Y-110914281D01*
X140152664Y-110750065D01*
X140216739Y-110595376D01*
X140216740Y-110595374D01*
X140309762Y-110456156D01*
X140428156Y-110337762D01*
X140567374Y-110244740D01*
X140567376Y-110244739D01*
X140722065Y-110180664D01*
X140886281Y-110148000D01*
X141053719Y-110148000D01*
X141217935Y-110180664D01*
G37*
G36*
X146297935Y-110180664D02*
G01*
X146452624Y-110244739D01*
X146452626Y-110244740D01*
X146591844Y-110337762D01*
X146710238Y-110456156D01*
X146803260Y-110595374D01*
X146803261Y-110595376D01*
X146867336Y-110750065D01*
X146900000Y-110914281D01*
X146900000Y-111081719D01*
X146867336Y-111245935D01*
X146803261Y-111400624D01*
X146803260Y-111400626D01*
X146710238Y-111539844D01*
X146591844Y-111658238D01*
X146452626Y-111751260D01*
X146452625Y-111751261D01*
X146452624Y-111751261D01*
X146297935Y-111815336D01*
X146133719Y-111848000D01*
X145966281Y-111848000D01*
X145802065Y-111815336D01*
X145647376Y-111751261D01*
X145647375Y-111751261D01*
X145647374Y-111751260D01*
X145508156Y-111658238D01*
X145389762Y-111539844D01*
X145296740Y-111400626D01*
X145296739Y-111400624D01*
X145232664Y-111245935D01*
X145200000Y-111081719D01*
X145200000Y-110914281D01*
X145232664Y-110750065D01*
X145296739Y-110595376D01*
X145296740Y-110595374D01*
X145389762Y-110456156D01*
X145508156Y-110337762D01*
X145647374Y-110244740D01*
X145647376Y-110244739D01*
X145802065Y-110180664D01*
X145966281Y-110148000D01*
X146133719Y-110148000D01*
X146297935Y-110180664D01*
G37*
G36*
X143757935Y-110180664D02*
G01*
X143912624Y-110244739D01*
X143912626Y-110244740D01*
X144051844Y-110337762D01*
X144170238Y-110456156D01*
X144263260Y-110595374D01*
X144263261Y-110595376D01*
X144327336Y-110750065D01*
X144360000Y-110914281D01*
X144360000Y-111081719D01*
X144327336Y-111245935D01*
X144263261Y-111400624D01*
X144263260Y-111400626D01*
X144170238Y-111539844D01*
X144051844Y-111658238D01*
X143912626Y-111751260D01*
X143912625Y-111751261D01*
X143912624Y-111751261D01*
X143757935Y-111815336D01*
X143593719Y-111848000D01*
X143426281Y-111848000D01*
X143262065Y-111815336D01*
X143107376Y-111751261D01*
X143107375Y-111751261D01*
X143107374Y-111751260D01*
X142968156Y-111658238D01*
X142849762Y-111539844D01*
X142756740Y-111400626D01*
X142756739Y-111400624D01*
X142692664Y-111245935D01*
X142660000Y-111081719D01*
X142660000Y-110914281D01*
X142692664Y-110750065D01*
X142756739Y-110595376D01*
X142756740Y-110595374D01*
X142849762Y-110456156D01*
X142968156Y-110337762D01*
X143107374Y-110244740D01*
X143107376Y-110244739D01*
X143262065Y-110180664D01*
X143426281Y-110148000D01*
X143593719Y-110148000D01*
X143757935Y-110180664D01*
G37*
G36*
X111988000Y-110216000D02*
G01*
X110988000Y-110216000D01*
X110988000Y-109316000D01*
X111988000Y-109316000D01*
X111988000Y-110216000D01*
G37*
G36*
X116088000Y-110216000D02*
G01*
X115088000Y-110216000D01*
X115088000Y-109316000D01*
X116088000Y-109316000D01*
X116088000Y-110216000D01*
G37*
G36*
X102393964Y-108094837D02*
G01*
X102425525Y-108104412D01*
X102454620Y-108119963D01*
X102480115Y-108140885D01*
X102501037Y-108166380D01*
X102516588Y-108195475D01*
X102526163Y-108227036D01*
X102530000Y-108265998D01*
X102530000Y-109666002D01*
X102526163Y-109704964D01*
X102516588Y-109736525D01*
X102501037Y-109765620D01*
X102480115Y-109791115D01*
X102454620Y-109812037D01*
X102425525Y-109827588D01*
X102393964Y-109837163D01*
X102355002Y-109841000D01*
X101279998Y-109841000D01*
X101241036Y-109837163D01*
X101209475Y-109827588D01*
X101180380Y-109812037D01*
X101154885Y-109791115D01*
X101133963Y-109765620D01*
X101118412Y-109736525D01*
X101108837Y-109704964D01*
X101105000Y-109666002D01*
X101105000Y-108265998D01*
X101108837Y-108227036D01*
X101118412Y-108195475D01*
X101133963Y-108166380D01*
X101154885Y-108140885D01*
X101180380Y-108119963D01*
X101209475Y-108104412D01*
X101241036Y-108094837D01*
X101279998Y-108091000D01*
X102355002Y-108091000D01*
X102393964Y-108094837D01*
G37*
G36*
X108822964Y-108094837D02*
G01*
X108854525Y-108104412D01*
X108883620Y-108119963D01*
X108909115Y-108140885D01*
X108930037Y-108166380D01*
X108945588Y-108195475D01*
X108955163Y-108227036D01*
X108959000Y-108265998D01*
X108959000Y-109666002D01*
X108955163Y-109704964D01*
X108945588Y-109736525D01*
X108930037Y-109765620D01*
X108909115Y-109791115D01*
X108883620Y-109812037D01*
X108854525Y-109827588D01*
X108822964Y-109837163D01*
X108784002Y-109841000D01*
X107708998Y-109841000D01*
X107670036Y-109837163D01*
X107638475Y-109827588D01*
X107609380Y-109812037D01*
X107583885Y-109791115D01*
X107562963Y-109765620D01*
X107547412Y-109736525D01*
X107537837Y-109704964D01*
X107534000Y-109666002D01*
X107534000Y-108265998D01*
X107537837Y-108227036D01*
X107547412Y-108195475D01*
X107562963Y-108166380D01*
X107583885Y-108140885D01*
X107609380Y-108119963D01*
X107638475Y-108104412D01*
X107670036Y-108094837D01*
X107708998Y-108091000D01*
X108784002Y-108091000D01*
X108822964Y-108094837D01*
G37*
G36*
X105847964Y-108094837D02*
G01*
X105879525Y-108104412D01*
X105908620Y-108119963D01*
X105934115Y-108140885D01*
X105955037Y-108166380D01*
X105970588Y-108195475D01*
X105980163Y-108227036D01*
X105984000Y-108265998D01*
X105984000Y-109666002D01*
X105980163Y-109704964D01*
X105970588Y-109736525D01*
X105955037Y-109765620D01*
X105934115Y-109791115D01*
X105908620Y-109812037D01*
X105879525Y-109827588D01*
X105847964Y-109837163D01*
X105809002Y-109841000D01*
X104733998Y-109841000D01*
X104695036Y-109837163D01*
X104663475Y-109827588D01*
X104634380Y-109812037D01*
X104608885Y-109791115D01*
X104587963Y-109765620D01*
X104572412Y-109736525D01*
X104562837Y-109704964D01*
X104559000Y-109666002D01*
X104559000Y-108265998D01*
X104562837Y-108227036D01*
X104572412Y-108195475D01*
X104587963Y-108166380D01*
X104608885Y-108140885D01*
X104634380Y-108119963D01*
X104663475Y-108104412D01*
X104695036Y-108094837D01*
X104733998Y-108091000D01*
X105809002Y-108091000D01*
X105847964Y-108094837D01*
G37*
G36*
X99418964Y-108094837D02*
G01*
X99450525Y-108104412D01*
X99479620Y-108119963D01*
X99505115Y-108140885D01*
X99526037Y-108166380D01*
X99541588Y-108195475D01*
X99551163Y-108227036D01*
X99555000Y-108265998D01*
X99555000Y-109666002D01*
X99551163Y-109704964D01*
X99541588Y-109736525D01*
X99526037Y-109765620D01*
X99505115Y-109791115D01*
X99479620Y-109812037D01*
X99450525Y-109827588D01*
X99418964Y-109837163D01*
X99380002Y-109841000D01*
X98304998Y-109841000D01*
X98266036Y-109837163D01*
X98234475Y-109827588D01*
X98205380Y-109812037D01*
X98179885Y-109791115D01*
X98158963Y-109765620D01*
X98143412Y-109736525D01*
X98133837Y-109704964D01*
X98130000Y-109666002D01*
X98130000Y-108265998D01*
X98133837Y-108227036D01*
X98143412Y-108195475D01*
X98158963Y-108166380D01*
X98179885Y-108140885D01*
X98205380Y-108119963D01*
X98234475Y-108104412D01*
X98266036Y-108094837D01*
X98304998Y-108091000D01*
X99380002Y-108091000D01*
X99418964Y-108094837D01*
G37*
G36*
X111988000Y-108616000D02*
G01*
X110988000Y-108616000D01*
X110988000Y-107716000D01*
X111988000Y-107716000D01*
X111988000Y-108616000D01*
G37*
G36*
X116088000Y-108616000D02*
G01*
X115088000Y-108616000D01*
X115088000Y-107716000D01*
X116088000Y-107716000D01*
X116088000Y-108616000D01*
G37*
G36*
X144171600Y-106566200D02*
G01*
X143051600Y-106566200D01*
X143051600Y-104126200D01*
X144171600Y-104126200D01*
X144171600Y-106566200D01*
G37*
G36*
X141631600Y-106566200D02*
G01*
X140511600Y-106566200D01*
X140511600Y-104126200D01*
X141631600Y-104126200D01*
X141631600Y-106566200D01*
G37*
G36*
X121311600Y-106566200D02*
G01*
X120191600Y-106566200D01*
X120191600Y-104126200D01*
X121311600Y-104126200D01*
X121311600Y-106566200D01*
G37*
G36*
X123851600Y-106566200D02*
G01*
X122731600Y-106566200D01*
X122731600Y-104126200D01*
X123851600Y-104126200D01*
X123851600Y-106566200D01*
G37*
G36*
X126391600Y-106566200D02*
G01*
X125271600Y-106566200D01*
X125271600Y-104126200D01*
X126391600Y-104126200D01*
X126391600Y-106566200D01*
G37*
G36*
X128931600Y-106566200D02*
G01*
X127811600Y-106566200D01*
X127811600Y-104126200D01*
X128931600Y-104126200D01*
X128931600Y-106566200D01*
G37*
G36*
X131471600Y-106566200D02*
G01*
X130351600Y-106566200D01*
X130351600Y-104126200D01*
X131471600Y-104126200D01*
X131471600Y-106566200D01*
G37*
G36*
X134011600Y-106566200D02*
G01*
X132891600Y-106566200D01*
X132891600Y-104126200D01*
X134011600Y-104126200D01*
X134011600Y-106566200D01*
G37*
G36*
X136551600Y-106566200D02*
G01*
X135431600Y-106566200D01*
X135431600Y-104126200D01*
X136551600Y-104126200D01*
X136551600Y-106566200D01*
G37*
G36*
X139091600Y-106566200D02*
G01*
X137971600Y-106566200D01*
X137971600Y-104126200D01*
X139091600Y-104126200D01*
X139091600Y-106566200D01*
G37*
G36*
X146711600Y-106566200D02*
G01*
X145591600Y-106566200D01*
X145591600Y-104126200D01*
X146711600Y-104126200D01*
X146711600Y-106566200D01*
G37*
G36*
X149251600Y-106566200D02*
G01*
X148131600Y-106566200D01*
X148131600Y-104126200D01*
X149251600Y-104126200D01*
X149251600Y-106566200D01*
G37*
G36*
X158105000Y-106356000D02*
G01*
X156655000Y-106356000D01*
X156655000Y-103956000D01*
X158105000Y-103956000D01*
X158105000Y-106356000D01*
G37*
G36*
X153705000Y-106356000D02*
G01*
X152255000Y-106356000D01*
X152255000Y-103956000D01*
X153705000Y-103956000D01*
X153705000Y-106356000D01*
G37*
G36*
X106749000Y-106020000D02*
G01*
X105849000Y-106020000D01*
X105849000Y-104020000D01*
X106749000Y-104020000D01*
X106749000Y-106020000D01*
G37*
G36*
X104209000Y-106020000D02*
G01*
X103309000Y-106020000D01*
X103309000Y-104020000D01*
X104209000Y-104020000D01*
X104209000Y-106020000D01*
G37*
G36*
X102939000Y-106020000D02*
G01*
X102039000Y-106020000D01*
X102039000Y-104020000D01*
X102939000Y-104020000D01*
X102939000Y-106020000D01*
G37*
G36*
X101669000Y-106020000D02*
G01*
X100769000Y-106020000D01*
X100769000Y-104020000D01*
X101669000Y-104020000D01*
X101669000Y-106020000D01*
G37*
G36*
X100399000Y-106020000D02*
G01*
X99499000Y-106020000D01*
X99499000Y-104020000D01*
X100399000Y-104020000D01*
X100399000Y-106020000D01*
G37*
G36*
X99129000Y-106020000D02*
G01*
X98229000Y-106020000D01*
X98229000Y-104020000D01*
X99129000Y-104020000D01*
X99129000Y-106020000D01*
G37*
G36*
X108019000Y-106020000D02*
G01*
X107119000Y-106020000D01*
X107119000Y-104020000D01*
X108019000Y-104020000D01*
X108019000Y-106020000D01*
G37*
G36*
X105479000Y-106020000D02*
G01*
X104579000Y-106020000D01*
X104579000Y-104020000D01*
X105479000Y-104020000D01*
X105479000Y-106020000D01*
G37*
G36*
X110559000Y-106020000D02*
G01*
X109659000Y-106020000D01*
X109659000Y-104020000D01*
X110559000Y-104020000D01*
X110559000Y-106020000D01*
G37*
G36*
X109289000Y-106020000D02*
G01*
X108389000Y-106020000D01*
X108389000Y-104020000D01*
X109289000Y-104020000D01*
X109289000Y-106020000D01*
G37*
G36*
X111829000Y-106020000D02*
G01*
X110929000Y-106020000D01*
X110929000Y-104020000D01*
X111829000Y-104020000D01*
X111829000Y-106020000D01*
G37*
G36*
X113099000Y-106020000D02*
G01*
X112199000Y-106020000D01*
X112199000Y-104020000D01*
X113099000Y-104020000D01*
X113099000Y-106020000D01*
G37*
G36*
X114369000Y-106020000D02*
G01*
X113469000Y-106020000D01*
X113469000Y-104020000D01*
X114369000Y-104020000D01*
X114369000Y-106020000D01*
G37*
G36*
X115639000Y-106020000D02*
G01*
X114739000Y-106020000D01*
X114739000Y-104020000D01*
X115639000Y-104020000D01*
X115639000Y-106020000D01*
G37*
G36*
X174710703Y-101077486D02*
G01*
X175001883Y-101198097D01*
X175263940Y-101373198D01*
X175486802Y-101596060D01*
X175661903Y-101858117D01*
X175782514Y-102149297D01*
X175844000Y-102458412D01*
X175844000Y-102773588D01*
X175782514Y-103082703D01*
X175661903Y-103373883D01*
X175486802Y-103635940D01*
X175263940Y-103858802D01*
X175001883Y-104033903D01*
X174710703Y-104154514D01*
X174401588Y-104216000D01*
X174086412Y-104216000D01*
X173777297Y-104154514D01*
X173486117Y-104033903D01*
X173224060Y-103858802D01*
X173001198Y-103635940D01*
X172826097Y-103373883D01*
X172705486Y-103082703D01*
X172644000Y-102773588D01*
X172644000Y-102458412D01*
X172705486Y-102149297D01*
X172826097Y-101858117D01*
X173001198Y-101596060D01*
X173224060Y-101373198D01*
X173486117Y-101198097D01*
X173777297Y-101077486D01*
X174086412Y-101016000D01*
X174401588Y-101016000D01*
X174710703Y-101077486D01*
G37*
G36*
X158273964Y-101236837D02*
G01*
X158305525Y-101246412D01*
X158334620Y-101261963D01*
X158360115Y-101282885D01*
X158381037Y-101308380D01*
X158396588Y-101337475D01*
X158406163Y-101369036D01*
X158410000Y-101407998D01*
X158410000Y-102808002D01*
X158406163Y-102846964D01*
X158396588Y-102878525D01*
X158381037Y-102907620D01*
X158360115Y-102933115D01*
X158334620Y-102954037D01*
X158305525Y-102969588D01*
X158273964Y-102979163D01*
X158235002Y-102983000D01*
X157159998Y-102983000D01*
X157121036Y-102979163D01*
X157089475Y-102969588D01*
X157060380Y-102954037D01*
X157034885Y-102933115D01*
X157013963Y-102907620D01*
X156998412Y-102878525D01*
X156988837Y-102846964D01*
X156985000Y-102808002D01*
X156985000Y-101407998D01*
X156988837Y-101369036D01*
X156998412Y-101337475D01*
X157013963Y-101308380D01*
X157034885Y-101282885D01*
X157060380Y-101261963D01*
X157089475Y-101246412D01*
X157121036Y-101236837D01*
X157159998Y-101233000D01*
X158235002Y-101233000D01*
X158273964Y-101236837D01*
G37*
G36*
X155298964Y-101236837D02*
G01*
X155330525Y-101246412D01*
X155359620Y-101261963D01*
X155385115Y-101282885D01*
X155406037Y-101308380D01*
X155421588Y-101337475D01*
X155431163Y-101369036D01*
X155435000Y-101407998D01*
X155435000Y-102808002D01*
X155431163Y-102846964D01*
X155421588Y-102878525D01*
X155406037Y-102907620D01*
X155385115Y-102933115D01*
X155359620Y-102954037D01*
X155330525Y-102969588D01*
X155298964Y-102979163D01*
X155260002Y-102983000D01*
X154184998Y-102983000D01*
X154146036Y-102979163D01*
X154114475Y-102969588D01*
X154085380Y-102954037D01*
X154059885Y-102933115D01*
X154038963Y-102907620D01*
X154023412Y-102878525D01*
X154013837Y-102846964D01*
X154010000Y-102808002D01*
X154010000Y-101407998D01*
X154013837Y-101369036D01*
X154023412Y-101337475D01*
X154038963Y-101308380D01*
X154059885Y-101282885D01*
X154085380Y-101261963D01*
X154114475Y-101246412D01*
X154146036Y-101236837D01*
X154184998Y-101233000D01*
X155260002Y-101233000D01*
X155298964Y-101236837D01*
G37*
G36*
X117189000Y-102685000D02*
G01*
X115189000Y-102685000D01*
X115189000Y-101785000D01*
X117189000Y-101785000D01*
X117189000Y-102685000D01*
G37*
G36*
X168644000Y-102096000D02*
G01*
X167144000Y-102096000D01*
X167144000Y-100596000D01*
X168644000Y-100596000D01*
X168644000Y-102096000D01*
G37*
G36*
X117189000Y-101415000D02*
G01*
X115189000Y-101415000D01*
X115189000Y-100515000D01*
X117189000Y-100515000D01*
X117189000Y-101415000D01*
G37*
G36*
X165572766Y-99354821D02*
G01*
X165709257Y-99411358D01*
X165832097Y-99493437D01*
X165936563Y-99597903D01*
X166018642Y-99720743D01*
X166075179Y-99857234D01*
X166104000Y-100002130D01*
X166104000Y-100149870D01*
X166075179Y-100294766D01*
X166018642Y-100431257D01*
X165936563Y-100554097D01*
X165832097Y-100658563D01*
X165709257Y-100740642D01*
X165572766Y-100797179D01*
X165427870Y-100826000D01*
X165280130Y-100826000D01*
X165135234Y-100797179D01*
X164998743Y-100740642D01*
X164875903Y-100658563D01*
X164771437Y-100554097D01*
X164689358Y-100431257D01*
X164632821Y-100294766D01*
X164604000Y-100149870D01*
X164604000Y-100002130D01*
X164632821Y-99857234D01*
X164689358Y-99720743D01*
X164771437Y-99597903D01*
X164875903Y-99493437D01*
X164998743Y-99411358D01*
X165135234Y-99354821D01*
X165280130Y-99326000D01*
X165427870Y-99326000D01*
X165572766Y-99354821D01*
G37*
G36*
X117189000Y-100145000D02*
G01*
X115189000Y-100145000D01*
X115189000Y-99245000D01*
X117189000Y-99245000D01*
X117189000Y-100145000D01*
G37*
G36*
X108679000Y-100020000D02*
G01*
X103679000Y-100020000D01*
X103679000Y-95020000D01*
X108679000Y-95020000D01*
X108679000Y-100020000D01*
G37*
G36*
X168112766Y-98084821D02*
G01*
X168249257Y-98141358D01*
X168372097Y-98223437D01*
X168476563Y-98327903D01*
X168558642Y-98450743D01*
X168615179Y-98587234D01*
X168644000Y-98732130D01*
X168644000Y-98879870D01*
X168615179Y-99024766D01*
X168558642Y-99161257D01*
X168476563Y-99284097D01*
X168372097Y-99388563D01*
X168249257Y-99470642D01*
X168112766Y-99527179D01*
X167967870Y-99556000D01*
X167820130Y-99556000D01*
X167675234Y-99527179D01*
X167538743Y-99470642D01*
X167415903Y-99388563D01*
X167311437Y-99284097D01*
X167229358Y-99161257D01*
X167172821Y-99024766D01*
X167144000Y-98879870D01*
X167144000Y-98732130D01*
X167172821Y-98587234D01*
X167229358Y-98450743D01*
X167311437Y-98327903D01*
X167415903Y-98223437D01*
X167538743Y-98141358D01*
X167675234Y-98084821D01*
X167820130Y-98056000D01*
X167967870Y-98056000D01*
X168112766Y-98084821D01*
G37*
G36*
X117189000Y-98875000D02*
G01*
X115189000Y-98875000D01*
X115189000Y-97975000D01*
X117189000Y-97975000D01*
X117189000Y-98875000D01*
G37*
G36*
X165572766Y-96814821D02*
G01*
X165709257Y-96871358D01*
X165832097Y-96953437D01*
X165936563Y-97057903D01*
X166018642Y-97180743D01*
X166075179Y-97317234D01*
X166104000Y-97462130D01*
X166104000Y-97609870D01*
X166075179Y-97754766D01*
X166018642Y-97891257D01*
X165936563Y-98014097D01*
X165832097Y-98118563D01*
X165709257Y-98200642D01*
X165572766Y-98257179D01*
X165427870Y-98286000D01*
X165280130Y-98286000D01*
X165135234Y-98257179D01*
X164998743Y-98200642D01*
X164875903Y-98118563D01*
X164771437Y-98014097D01*
X164689358Y-97891257D01*
X164632821Y-97754766D01*
X164604000Y-97609870D01*
X164604000Y-97462130D01*
X164632821Y-97317234D01*
X164689358Y-97180743D01*
X164771437Y-97057903D01*
X164875903Y-96953437D01*
X164998743Y-96871358D01*
X165135234Y-96814821D01*
X165280130Y-96786000D01*
X165427870Y-96786000D01*
X165572766Y-96814821D01*
G37*
G36*
X131471600Y-97956200D02*
G01*
X130351600Y-97956200D01*
X130351600Y-95516200D01*
X131471600Y-95516200D01*
X131471600Y-97956200D01*
G37*
G36*
X149251600Y-97956200D02*
G01*
X148131600Y-97956200D01*
X148131600Y-95516200D01*
X149251600Y-95516200D01*
X149251600Y-97956200D01*
G37*
G36*
X146711600Y-97956200D02*
G01*
X145591600Y-97956200D01*
X145591600Y-95516200D01*
X146711600Y-95516200D01*
X146711600Y-97956200D01*
G37*
G36*
X144171600Y-97956200D02*
G01*
X143051600Y-97956200D01*
X143051600Y-95516200D01*
X144171600Y-95516200D01*
X144171600Y-97956200D01*
G37*
G36*
X141631600Y-97956200D02*
G01*
X140511600Y-97956200D01*
X140511600Y-95516200D01*
X141631600Y-95516200D01*
X141631600Y-97956200D01*
G37*
G36*
X139091600Y-97956200D02*
G01*
X137971600Y-97956200D01*
X137971600Y-95516200D01*
X139091600Y-95516200D01*
X139091600Y-97956200D01*
G37*
G36*
X134011600Y-97956200D02*
G01*
X132891600Y-97956200D01*
X132891600Y-95516200D01*
X134011600Y-95516200D01*
X134011600Y-97956200D01*
G37*
G36*
X123851600Y-97956200D02*
G01*
X122731600Y-97956200D01*
X122731600Y-95516200D01*
X123851600Y-95516200D01*
X123851600Y-97956200D01*
G37*
G36*
X126391600Y-97956200D02*
G01*
X125271600Y-97956200D01*
X125271600Y-95516200D01*
X126391600Y-95516200D01*
X126391600Y-97956200D01*
G37*
G36*
X128931600Y-97956200D02*
G01*
X127811600Y-97956200D01*
X127811600Y-95516200D01*
X128931600Y-95516200D01*
X128931600Y-97956200D01*
G37*
G36*
X136551600Y-97956200D02*
G01*
X135431600Y-97956200D01*
X135431600Y-95516200D01*
X136551600Y-95516200D01*
X136551600Y-97956200D01*
G37*
G36*
X121311600Y-97956200D02*
G01*
X120191600Y-97956200D01*
X120191600Y-95516200D01*
X121311600Y-95516200D01*
X121311600Y-97956200D01*
G37*
G36*
X161029935Y-96210664D02*
G01*
X161184624Y-96274739D01*
X161184626Y-96274740D01*
X161323844Y-96367762D01*
X161442238Y-96486156D01*
X161535260Y-96625374D01*
X161535261Y-96625376D01*
X161599336Y-96780065D01*
X161632000Y-96944281D01*
X161632000Y-97111719D01*
X161599336Y-97275935D01*
X161582229Y-97317234D01*
X161535260Y-97430626D01*
X161442238Y-97569844D01*
X161323844Y-97688238D01*
X161184626Y-97781260D01*
X161184625Y-97781261D01*
X161184624Y-97781261D01*
X161029935Y-97845336D01*
X160865719Y-97878000D01*
X160698281Y-97878000D01*
X160534065Y-97845336D01*
X160379376Y-97781261D01*
X160379375Y-97781261D01*
X160379374Y-97781260D01*
X160240156Y-97688238D01*
X160121762Y-97569844D01*
X160028740Y-97430626D01*
X159981771Y-97317234D01*
X159964664Y-97275935D01*
X159932000Y-97111719D01*
X159932000Y-96944281D01*
X159964664Y-96780065D01*
X160028739Y-96625376D01*
X160028740Y-96625374D01*
X160121762Y-96486156D01*
X160240156Y-96367762D01*
X160379374Y-96274740D01*
X160379376Y-96274739D01*
X160534065Y-96210664D01*
X160698281Y-96178000D01*
X160865719Y-96178000D01*
X161029935Y-96210664D01*
G37*
G36*
X158489935Y-96210664D02*
G01*
X158644624Y-96274739D01*
X158644626Y-96274740D01*
X158783844Y-96367762D01*
X158902238Y-96486156D01*
X158995260Y-96625374D01*
X158995261Y-96625376D01*
X159059336Y-96780065D01*
X159092000Y-96944281D01*
X159092000Y-97111719D01*
X159059336Y-97275935D01*
X159042229Y-97317234D01*
X158995260Y-97430626D01*
X158902238Y-97569844D01*
X158783844Y-97688238D01*
X158644626Y-97781260D01*
X158644625Y-97781261D01*
X158644624Y-97781261D01*
X158489935Y-97845336D01*
X158325719Y-97878000D01*
X158158281Y-97878000D01*
X157994065Y-97845336D01*
X157839376Y-97781261D01*
X157839375Y-97781261D01*
X157839374Y-97781260D01*
X157700156Y-97688238D01*
X157581762Y-97569844D01*
X157488740Y-97430626D01*
X157441771Y-97317234D01*
X157424664Y-97275935D01*
X157392000Y-97111719D01*
X157392000Y-96944281D01*
X157424664Y-96780065D01*
X157488739Y-96625376D01*
X157488740Y-96625374D01*
X157581762Y-96486156D01*
X157700156Y-96367762D01*
X157839374Y-96274740D01*
X157839376Y-96274739D01*
X157994065Y-96210664D01*
X158158281Y-96178000D01*
X158325719Y-96178000D01*
X158489935Y-96210664D01*
G37*
G36*
X155949935Y-96210664D02*
G01*
X156104624Y-96274739D01*
X156104626Y-96274740D01*
X156243844Y-96367762D01*
X156362238Y-96486156D01*
X156455260Y-96625374D01*
X156455261Y-96625376D01*
X156519336Y-96780065D01*
X156552000Y-96944281D01*
X156552000Y-97111719D01*
X156519336Y-97275935D01*
X156502229Y-97317234D01*
X156455260Y-97430626D01*
X156362238Y-97569844D01*
X156243844Y-97688238D01*
X156104626Y-97781260D01*
X156104625Y-97781261D01*
X156104624Y-97781261D01*
X155949935Y-97845336D01*
X155785719Y-97878000D01*
X155618281Y-97878000D01*
X155454065Y-97845336D01*
X155299376Y-97781261D01*
X155299375Y-97781261D01*
X155299374Y-97781260D01*
X155160156Y-97688238D01*
X155041762Y-97569844D01*
X154948740Y-97430626D01*
X154901771Y-97317234D01*
X154884664Y-97275935D01*
X154852000Y-97111719D01*
X154852000Y-96944281D01*
X154884664Y-96780065D01*
X154948739Y-96625376D01*
X154948740Y-96625374D01*
X155041762Y-96486156D01*
X155160156Y-96367762D01*
X155299374Y-96274740D01*
X155299376Y-96274739D01*
X155454065Y-96210664D01*
X155618281Y-96178000D01*
X155785719Y-96178000D01*
X155949935Y-96210664D01*
G37*
G36*
X154012000Y-97878000D02*
G01*
X152312000Y-97878000D01*
X152312000Y-96178000D01*
X154012000Y-96178000D01*
X154012000Y-97878000D01*
G37*
G36*
X117189000Y-97605000D02*
G01*
X115189000Y-97605000D01*
X115189000Y-96705000D01*
X117189000Y-96705000D01*
X117189000Y-97605000D01*
G37*
G36*
X168112766Y-95544821D02*
G01*
X168249257Y-95601358D01*
X168372097Y-95683437D01*
X168476563Y-95787903D01*
X168558642Y-95910743D01*
X168615179Y-96047234D01*
X168644000Y-96192130D01*
X168644000Y-96339870D01*
X168615179Y-96484766D01*
X168558642Y-96621257D01*
X168476563Y-96744097D01*
X168372097Y-96848563D01*
X168249257Y-96930642D01*
X168112766Y-96987179D01*
X167967870Y-97016000D01*
X167820130Y-97016000D01*
X167675234Y-96987179D01*
X167538743Y-96930642D01*
X167415903Y-96848563D01*
X167311437Y-96744097D01*
X167229358Y-96621257D01*
X167172821Y-96484766D01*
X167144000Y-96339870D01*
X167144000Y-96192130D01*
X167172821Y-96047234D01*
X167229358Y-95910743D01*
X167311437Y-95787903D01*
X167415903Y-95683437D01*
X167538743Y-95601358D01*
X167675234Y-95544821D01*
X167820130Y-95516000D01*
X167967870Y-95516000D01*
X168112766Y-95544821D01*
G37*
G36*
X117189000Y-96335000D02*
G01*
X115189000Y-96335000D01*
X115189000Y-95435000D01*
X117189000Y-95435000D01*
X117189000Y-96335000D01*
G37*
G36*
X165572766Y-94274821D02*
G01*
X165709257Y-94331358D01*
X165832097Y-94413437D01*
X165936563Y-94517903D01*
X166018642Y-94640743D01*
X166075179Y-94777234D01*
X166104000Y-94922130D01*
X166104000Y-95069870D01*
X166075179Y-95214766D01*
X166018642Y-95351257D01*
X165936563Y-95474097D01*
X165832097Y-95578563D01*
X165709257Y-95660642D01*
X165572766Y-95717179D01*
X165427870Y-95746000D01*
X165280130Y-95746000D01*
X165135234Y-95717179D01*
X164998743Y-95660642D01*
X164875903Y-95578563D01*
X164771437Y-95474097D01*
X164689358Y-95351257D01*
X164632821Y-95214766D01*
X164604000Y-95069870D01*
X164604000Y-94922130D01*
X164632821Y-94777234D01*
X164689358Y-94640743D01*
X164771437Y-94517903D01*
X164875903Y-94413437D01*
X164998743Y-94331358D01*
X165135234Y-94274821D01*
X165280130Y-94246000D01*
X165427870Y-94246000D01*
X165572766Y-94274821D01*
G37*
G36*
X117189000Y-95065000D02*
G01*
X115189000Y-95065000D01*
X115189000Y-94165000D01*
X117189000Y-94165000D01*
X117189000Y-95065000D01*
G37*
G36*
X168112766Y-93004821D02*
G01*
X168249257Y-93061358D01*
X168372097Y-93143437D01*
X168476563Y-93247903D01*
X168558642Y-93370743D01*
X168615179Y-93507234D01*
X168644000Y-93652130D01*
X168644000Y-93799870D01*
X168615179Y-93944766D01*
X168558642Y-94081257D01*
X168476563Y-94204097D01*
X168372097Y-94308563D01*
X168249257Y-94390642D01*
X168112766Y-94447179D01*
X167967870Y-94476000D01*
X167820130Y-94476000D01*
X167675234Y-94447179D01*
X167538743Y-94390642D01*
X167415903Y-94308563D01*
X167311437Y-94204097D01*
X167229358Y-94081257D01*
X167172821Y-93944766D01*
X167144000Y-93799870D01*
X167144000Y-93652130D01*
X167172821Y-93507234D01*
X167229358Y-93370743D01*
X167311437Y-93247903D01*
X167415903Y-93143437D01*
X167538743Y-93061358D01*
X167675234Y-93004821D01*
X167820130Y-92976000D01*
X167967870Y-92976000D01*
X168112766Y-93004821D01*
G37*
G36*
X117189000Y-93795000D02*
G01*
X115189000Y-93795000D01*
X115189000Y-92895000D01*
X117189000Y-92895000D01*
X117189000Y-93795000D01*
G37*
G36*
X145082826Y-92186841D02*
G01*
X145114387Y-92196416D01*
X145143482Y-92211967D01*
X145168977Y-92232889D01*
X145189899Y-92258384D01*
X145205450Y-92287479D01*
X145215025Y-92319040D01*
X145218862Y-92358002D01*
X145218862Y-93433006D01*
X145215025Y-93471968D01*
X145205450Y-93503529D01*
X145189899Y-93532624D01*
X145168977Y-93558119D01*
X145143482Y-93579041D01*
X145114387Y-93594592D01*
X145082826Y-93604167D01*
X145043864Y-93608004D01*
X143643860Y-93608004D01*
X143604898Y-93604167D01*
X143573337Y-93594592D01*
X143544242Y-93579041D01*
X143518747Y-93558119D01*
X143497825Y-93532624D01*
X143482274Y-93503529D01*
X143472699Y-93471968D01*
X143468862Y-93433006D01*
X143468862Y-92358002D01*
X143472699Y-92319040D01*
X143482274Y-92287479D01*
X143497825Y-92258384D01*
X143518747Y-92232889D01*
X143544242Y-92211967D01*
X143573337Y-92196416D01*
X143604898Y-92186841D01*
X143643860Y-92183004D01*
X145043864Y-92183004D01*
X145082826Y-92186841D01*
G37*
G36*
X151360964Y-92186841D02*
G01*
X151392525Y-92196416D01*
X151421620Y-92211967D01*
X151447115Y-92232889D01*
X151468037Y-92258384D01*
X151483588Y-92287479D01*
X151493163Y-92319040D01*
X151497000Y-92358002D01*
X151497000Y-93433006D01*
X151493163Y-93471968D01*
X151483588Y-93503529D01*
X151468037Y-93532624D01*
X151447115Y-93558119D01*
X151421620Y-93579041D01*
X151392525Y-93594592D01*
X151360964Y-93604167D01*
X151322002Y-93608004D01*
X149921998Y-93608004D01*
X149883036Y-93604167D01*
X149851475Y-93594592D01*
X149822380Y-93579041D01*
X149796885Y-93558119D01*
X149775963Y-93532624D01*
X149760412Y-93503529D01*
X149750837Y-93471968D01*
X149747000Y-93433006D01*
X149747000Y-92358002D01*
X149750837Y-92319040D01*
X149760412Y-92287479D01*
X149775963Y-92258384D01*
X149796885Y-92232889D01*
X149822380Y-92211967D01*
X149851475Y-92196416D01*
X149883036Y-92186841D01*
X149921998Y-92183004D01*
X151322002Y-92183004D01*
X151360964Y-92186841D01*
G37*
G36*
X132310964Y-92186841D02*
G01*
X132342525Y-92196416D01*
X132371620Y-92211967D01*
X132397115Y-92232889D01*
X132418037Y-92258384D01*
X132433588Y-92287479D01*
X132443163Y-92319040D01*
X132447000Y-92358002D01*
X132447000Y-93433006D01*
X132443163Y-93471968D01*
X132433588Y-93503529D01*
X132418037Y-93532624D01*
X132397115Y-93558119D01*
X132371620Y-93579041D01*
X132342525Y-93594592D01*
X132310964Y-93604167D01*
X132272002Y-93608004D01*
X130871998Y-93608004D01*
X130833036Y-93604167D01*
X130801475Y-93594592D01*
X130772380Y-93579041D01*
X130746885Y-93558119D01*
X130725963Y-93532624D01*
X130710412Y-93503529D01*
X130700837Y-93471968D01*
X130697000Y-93433006D01*
X130697000Y-92358002D01*
X130700837Y-92319040D01*
X130710412Y-92287479D01*
X130725963Y-92258384D01*
X130746885Y-92232889D01*
X130772380Y-92211967D01*
X130801475Y-92196416D01*
X130833036Y-92186841D01*
X130871998Y-92183004D01*
X132272002Y-92183004D01*
X132310964Y-92186841D01*
G37*
G36*
X135440826Y-92186841D02*
G01*
X135472387Y-92196416D01*
X135501482Y-92211967D01*
X135526977Y-92232889D01*
X135547899Y-92258384D01*
X135563450Y-92287479D01*
X135573025Y-92319040D01*
X135576862Y-92358002D01*
X135576862Y-93433006D01*
X135573025Y-93471968D01*
X135563450Y-93503529D01*
X135547899Y-93532624D01*
X135526977Y-93558119D01*
X135501482Y-93579041D01*
X135472387Y-93594592D01*
X135440826Y-93604167D01*
X135401864Y-93608004D01*
X134001860Y-93608004D01*
X133962898Y-93604167D01*
X133931337Y-93594592D01*
X133902242Y-93579041D01*
X133876747Y-93558119D01*
X133855825Y-93532624D01*
X133840274Y-93503529D01*
X133830699Y-93471968D01*
X133826862Y-93433006D01*
X133826862Y-92358002D01*
X133830699Y-92319040D01*
X133840274Y-92287479D01*
X133855825Y-92258384D01*
X133876747Y-92232889D01*
X133902242Y-92211967D01*
X133931337Y-92196416D01*
X133962898Y-92186841D01*
X134001860Y-92183004D01*
X135401864Y-92183004D01*
X135440826Y-92186841D01*
G37*
G36*
X148643826Y-92186841D02*
G01*
X148675387Y-92196416D01*
X148704482Y-92211967D01*
X148729977Y-92232889D01*
X148750899Y-92258384D01*
X148766450Y-92287479D01*
X148776025Y-92319040D01*
X148779862Y-92358002D01*
X148779862Y-93433006D01*
X148776025Y-93471968D01*
X148766450Y-93503529D01*
X148750899Y-93532624D01*
X148729977Y-93558119D01*
X148704482Y-93579041D01*
X148675387Y-93594592D01*
X148643826Y-93604167D01*
X148604864Y-93608004D01*
X147204860Y-93608004D01*
X147165898Y-93604167D01*
X147134337Y-93594592D01*
X147105242Y-93579041D01*
X147079747Y-93558119D01*
X147058825Y-93532624D01*
X147043274Y-93503529D01*
X147033699Y-93471968D01*
X147029862Y-93433006D01*
X147029862Y-92358002D01*
X147033699Y-92319040D01*
X147043274Y-92287479D01*
X147058825Y-92258384D01*
X147079747Y-92232889D01*
X147105242Y-92211967D01*
X147134337Y-92196416D01*
X147165898Y-92186841D01*
X147204860Y-92183004D01*
X148604864Y-92183004D01*
X148643826Y-92186841D01*
G37*
G36*
X165572766Y-91734821D02*
G01*
X165709257Y-91791358D01*
X165832097Y-91873437D01*
X165936563Y-91977903D01*
X166018642Y-92100743D01*
X166075179Y-92237234D01*
X166104000Y-92382130D01*
X166104000Y-92529870D01*
X166075179Y-92674766D01*
X166018642Y-92811257D01*
X165936563Y-92934097D01*
X165832097Y-93038563D01*
X165709257Y-93120642D01*
X165572766Y-93177179D01*
X165427870Y-93206000D01*
X165280130Y-93206000D01*
X165135234Y-93177179D01*
X164998743Y-93120642D01*
X164875903Y-93038563D01*
X164771437Y-92934097D01*
X164689358Y-92811257D01*
X164632821Y-92674766D01*
X164604000Y-92529870D01*
X164604000Y-92382130D01*
X164632821Y-92237234D01*
X164689358Y-92100743D01*
X164771437Y-91977903D01*
X164875903Y-91873437D01*
X164998743Y-91791358D01*
X165135234Y-91734821D01*
X165280130Y-91706000D01*
X165427870Y-91706000D01*
X165572766Y-91734821D01*
G37*
G36*
X174710703Y-89647486D02*
G01*
X175001883Y-89768097D01*
X175263940Y-89943198D01*
X175486802Y-90166060D01*
X175661903Y-90428117D01*
X175782514Y-90719297D01*
X175844000Y-91028412D01*
X175844000Y-91343588D01*
X175782514Y-91652703D01*
X175661903Y-91943883D01*
X175486802Y-92205940D01*
X175263940Y-92428802D01*
X175001883Y-92603903D01*
X174710703Y-92724514D01*
X174401588Y-92786000D01*
X174086412Y-92786000D01*
X173777297Y-92724514D01*
X173486117Y-92603903D01*
X173224060Y-92428802D01*
X173001198Y-92205940D01*
X172826097Y-91943883D01*
X172705486Y-91652703D01*
X172644000Y-91343588D01*
X172644000Y-91028412D01*
X172705486Y-90719297D01*
X172826097Y-90428117D01*
X173001198Y-90166060D01*
X173224060Y-89943198D01*
X173486117Y-89768097D01*
X173777297Y-89647486D01*
X174086412Y-89586000D01*
X174401588Y-89586000D01*
X174710703Y-89647486D01*
G37*
G36*
X138952862Y-92683004D02*
G01*
X137392862Y-92683004D01*
X137392862Y-92033004D01*
X138952862Y-92033004D01*
X138952862Y-92683004D01*
G37*
G36*
X141652862Y-92683004D02*
G01*
X140092862Y-92683004D01*
X140092862Y-92033004D01*
X141652862Y-92033004D01*
X141652862Y-92683004D01*
G37*
G36*
X117189000Y-92525000D02*
G01*
X115189000Y-92525000D01*
X115189000Y-91625000D01*
X117189000Y-91625000D01*
X117189000Y-92525000D01*
G37*
G36*
X123364549Y-87617351D02*
G01*
X123365100Y-87622941D01*
X123365100Y-88435659D01*
X123364525Y-88441493D01*
X123360040Y-88445174D01*
X123342713Y-88462501D01*
X123329099Y-88482875D01*
X123319721Y-88505514D01*
X123314940Y-88529547D01*
X123314940Y-88554051D01*
X123319720Y-88578084D01*
X123329097Y-88600723D01*
X123342710Y-88621098D01*
X123360037Y-88638425D01*
X123380411Y-88652039D01*
X123403050Y-88661417D01*
X123427083Y-88666198D01*
X123439337Y-88666800D01*
X123540863Y-88666800D01*
X123565249Y-88664398D01*
X123588698Y-88657285D01*
X123610309Y-88645734D01*
X123629251Y-88630189D01*
X123644796Y-88611247D01*
X123656347Y-88589636D01*
X123663460Y-88566187D01*
X123665862Y-88541801D01*
X123663460Y-88517415D01*
X123656347Y-88493966D01*
X123644796Y-88472355D01*
X123629251Y-88453413D01*
X123620160Y-88445174D01*
X123615675Y-88441493D01*
X123615100Y-88435659D01*
X123615100Y-87622941D01*
X123615651Y-87617351D01*
X123621241Y-87616800D01*
X123858959Y-87616800D01*
X123864549Y-87617351D01*
X123865100Y-87622941D01*
X123865100Y-88435659D01*
X123864525Y-88441493D01*
X123860040Y-88445174D01*
X123842713Y-88462501D01*
X123829099Y-88482875D01*
X123819721Y-88505514D01*
X123814940Y-88529547D01*
X123814940Y-88554051D01*
X123819720Y-88578084D01*
X123829097Y-88600723D01*
X123842710Y-88621098D01*
X123860037Y-88638425D01*
X123880411Y-88652039D01*
X123903050Y-88661417D01*
X123927083Y-88666198D01*
X123939337Y-88666800D01*
X124040863Y-88666800D01*
X124065249Y-88664398D01*
X124088698Y-88657285D01*
X124110309Y-88645734D01*
X124129251Y-88630189D01*
X124144796Y-88611247D01*
X124156347Y-88589636D01*
X124163460Y-88566187D01*
X124165862Y-88541801D01*
X124163460Y-88517415D01*
X124156347Y-88493966D01*
X124144796Y-88472355D01*
X124129251Y-88453413D01*
X124120160Y-88445174D01*
X124115675Y-88441493D01*
X124115100Y-88435659D01*
X124115100Y-87622941D01*
X124115651Y-87617351D01*
X124121241Y-87616800D01*
X124358959Y-87616800D01*
X124364549Y-87617351D01*
X124365100Y-87622941D01*
X124365100Y-88435659D01*
X124364525Y-88441493D01*
X124360040Y-88445174D01*
X124342713Y-88462501D01*
X124329099Y-88482875D01*
X124319721Y-88505514D01*
X124314940Y-88529547D01*
X124314940Y-88554051D01*
X124319720Y-88578084D01*
X124329097Y-88600723D01*
X124342710Y-88621098D01*
X124360037Y-88638425D01*
X124380411Y-88652039D01*
X124403050Y-88661417D01*
X124427083Y-88666198D01*
X124439337Y-88666800D01*
X124540863Y-88666800D01*
X124565249Y-88664398D01*
X124588698Y-88657285D01*
X124610309Y-88645734D01*
X124629251Y-88630189D01*
X124644796Y-88611247D01*
X124656347Y-88589636D01*
X124663460Y-88566187D01*
X124665862Y-88541801D01*
X124663460Y-88517415D01*
X124656347Y-88493966D01*
X124644796Y-88472355D01*
X124629251Y-88453413D01*
X124620160Y-88445174D01*
X124615675Y-88441493D01*
X124615100Y-88435659D01*
X124615100Y-87622941D01*
X124615651Y-87617351D01*
X124621241Y-87616800D01*
X124858959Y-87616800D01*
X124864549Y-87617351D01*
X124865100Y-87622941D01*
X124865100Y-88435659D01*
X124864525Y-88441493D01*
X124860040Y-88445174D01*
X124842713Y-88462501D01*
X124829099Y-88482875D01*
X124819721Y-88505514D01*
X124814940Y-88529547D01*
X124814940Y-88554051D01*
X124819720Y-88578084D01*
X124829097Y-88600723D01*
X124842710Y-88621098D01*
X124860037Y-88638425D01*
X124880411Y-88652039D01*
X124903050Y-88661417D01*
X124927083Y-88666198D01*
X124939337Y-88666800D01*
X125040863Y-88666800D01*
X125065249Y-88664398D01*
X125088698Y-88657285D01*
X125110309Y-88645734D01*
X125129251Y-88630189D01*
X125139699Y-88617458D01*
X125149740Y-88636245D01*
X125165285Y-88655187D01*
X125194747Y-88677038D01*
X125223528Y-88692422D01*
X125246020Y-88710880D01*
X125264478Y-88733372D01*
X125279862Y-88762153D01*
X125293476Y-88782527D01*
X125310804Y-88799854D01*
X125331178Y-88813467D01*
X125339523Y-88816924D01*
X125335802Y-88819410D01*
X125318475Y-88836737D01*
X125304861Y-88857111D01*
X125295483Y-88879750D01*
X125290702Y-88903783D01*
X125290100Y-88916037D01*
X125290100Y-89017563D01*
X125292502Y-89041949D01*
X125299615Y-89065398D01*
X125311166Y-89087009D01*
X125326711Y-89105951D01*
X125345653Y-89121496D01*
X125367264Y-89133047D01*
X125390713Y-89140160D01*
X125415099Y-89142562D01*
X125439485Y-89140160D01*
X125462934Y-89133047D01*
X125484545Y-89121496D01*
X125503487Y-89105951D01*
X125511726Y-89096860D01*
X125515407Y-89092375D01*
X125521241Y-89091800D01*
X126333959Y-89091800D01*
X126339549Y-89092351D01*
X126340100Y-89097941D01*
X126340100Y-89335659D01*
X126339549Y-89341249D01*
X126333959Y-89341800D01*
X125521241Y-89341800D01*
X125515407Y-89341225D01*
X125511726Y-89336740D01*
X125494399Y-89319413D01*
X125474025Y-89305799D01*
X125451386Y-89296421D01*
X125427353Y-89291640D01*
X125402849Y-89291640D01*
X125378816Y-89296420D01*
X125356177Y-89305797D01*
X125335802Y-89319410D01*
X125318475Y-89336737D01*
X125304861Y-89357111D01*
X125295483Y-89379750D01*
X125290702Y-89403783D01*
X125290100Y-89416037D01*
X125290100Y-89517563D01*
X125292502Y-89541949D01*
X125299615Y-89565398D01*
X125311166Y-89587009D01*
X125326711Y-89605951D01*
X125345653Y-89621496D01*
X125367264Y-89633047D01*
X125390713Y-89640160D01*
X125415099Y-89642562D01*
X125439485Y-89640160D01*
X125462934Y-89633047D01*
X125484545Y-89621496D01*
X125503487Y-89605951D01*
X125511726Y-89596860D01*
X125515407Y-89592375D01*
X125521241Y-89591800D01*
X126333959Y-89591800D01*
X126339549Y-89592351D01*
X126340100Y-89597941D01*
X126340100Y-89835659D01*
X126339549Y-89841249D01*
X126333959Y-89841800D01*
X125521241Y-89841800D01*
X125515407Y-89841225D01*
X125511726Y-89836740D01*
X125494399Y-89819413D01*
X125474025Y-89805799D01*
X125451386Y-89796421D01*
X125427353Y-89791640D01*
X125402849Y-89791640D01*
X125378816Y-89796420D01*
X125356177Y-89805797D01*
X125335802Y-89819410D01*
X125318475Y-89836737D01*
X125304861Y-89857111D01*
X125295483Y-89879750D01*
X125290702Y-89903783D01*
X125290100Y-89916037D01*
X125290100Y-90017563D01*
X125292502Y-90041949D01*
X125299615Y-90065398D01*
X125311166Y-90087009D01*
X125326711Y-90105951D01*
X125345653Y-90121496D01*
X125367264Y-90133047D01*
X125390713Y-90140160D01*
X125415099Y-90142562D01*
X125439485Y-90140160D01*
X125462934Y-90133047D01*
X125484545Y-90121496D01*
X125503487Y-90105951D01*
X125511726Y-90096860D01*
X125515407Y-90092375D01*
X125521241Y-90091800D01*
X126333959Y-90091800D01*
X126339549Y-90092351D01*
X126340100Y-90097941D01*
X126340100Y-90335659D01*
X126339549Y-90341249D01*
X126333959Y-90341800D01*
X125521241Y-90341800D01*
X125515407Y-90341225D01*
X125511726Y-90336740D01*
X125494399Y-90319413D01*
X125474025Y-90305799D01*
X125451386Y-90296421D01*
X125427353Y-90291640D01*
X125402849Y-90291640D01*
X125378816Y-90296420D01*
X125356177Y-90305797D01*
X125335802Y-90319410D01*
X125318475Y-90336737D01*
X125304861Y-90357111D01*
X125295483Y-90379750D01*
X125290702Y-90403783D01*
X125290100Y-90416037D01*
X125290100Y-90517563D01*
X125292502Y-90541949D01*
X125299615Y-90565398D01*
X125311166Y-90587009D01*
X125326711Y-90605951D01*
X125345653Y-90621496D01*
X125367264Y-90633047D01*
X125390713Y-90640160D01*
X125415099Y-90642562D01*
X125439485Y-90640160D01*
X125462934Y-90633047D01*
X125484545Y-90621496D01*
X125503487Y-90605951D01*
X125511726Y-90596860D01*
X125515407Y-90592375D01*
X125521241Y-90591800D01*
X126333959Y-90591800D01*
X126339549Y-90592351D01*
X126340100Y-90597941D01*
X126340100Y-90835659D01*
X126339549Y-90841249D01*
X126333959Y-90841800D01*
X125521241Y-90841800D01*
X125515407Y-90841225D01*
X125511726Y-90836740D01*
X125494399Y-90819413D01*
X125474025Y-90805799D01*
X125451386Y-90796421D01*
X125427353Y-90791640D01*
X125402849Y-90791640D01*
X125378816Y-90796420D01*
X125356177Y-90805797D01*
X125335802Y-90819410D01*
X125318475Y-90836737D01*
X125304861Y-90857111D01*
X125295483Y-90879750D01*
X125290702Y-90903783D01*
X125290100Y-90916037D01*
X125290100Y-91017563D01*
X125292502Y-91041949D01*
X125299615Y-91065398D01*
X125311166Y-91087009D01*
X125326711Y-91105951D01*
X125339442Y-91116399D01*
X125320655Y-91126440D01*
X125301713Y-91141985D01*
X125279862Y-91171447D01*
X125264478Y-91200228D01*
X125246020Y-91222720D01*
X125223528Y-91241178D01*
X125194747Y-91256562D01*
X125174373Y-91270176D01*
X125157046Y-91287504D01*
X125143433Y-91307878D01*
X125139976Y-91316223D01*
X125137490Y-91312502D01*
X125120163Y-91295175D01*
X125099789Y-91281561D01*
X125077150Y-91272183D01*
X125053117Y-91267402D01*
X125040863Y-91266800D01*
X124939337Y-91266800D01*
X124914951Y-91269202D01*
X124891502Y-91276315D01*
X124869891Y-91287866D01*
X124850949Y-91303411D01*
X124835404Y-91322353D01*
X124823853Y-91343964D01*
X124816740Y-91367413D01*
X124814338Y-91391799D01*
X124816740Y-91416185D01*
X124823853Y-91439634D01*
X124835404Y-91461245D01*
X124850949Y-91480187D01*
X124860040Y-91488426D01*
X124864525Y-91492107D01*
X124865100Y-91497941D01*
X124865100Y-92310659D01*
X124864549Y-92316249D01*
X124858959Y-92316800D01*
X124621241Y-92316800D01*
X124615651Y-92316249D01*
X124615100Y-92310659D01*
X124615100Y-91497941D01*
X124615675Y-91492107D01*
X124620160Y-91488426D01*
X124637487Y-91471099D01*
X124651101Y-91450725D01*
X124660479Y-91428086D01*
X124665260Y-91404053D01*
X124665260Y-91379549D01*
X124660480Y-91355516D01*
X124651103Y-91332877D01*
X124637490Y-91312502D01*
X124620163Y-91295175D01*
X124599789Y-91281561D01*
X124577150Y-91272183D01*
X124553117Y-91267402D01*
X124540863Y-91266800D01*
X124439337Y-91266800D01*
X124414951Y-91269202D01*
X124391502Y-91276315D01*
X124369891Y-91287866D01*
X124350949Y-91303411D01*
X124335404Y-91322353D01*
X124323853Y-91343964D01*
X124316740Y-91367413D01*
X124314338Y-91391799D01*
X124316740Y-91416185D01*
X124323853Y-91439634D01*
X124335404Y-91461245D01*
X124350949Y-91480187D01*
X124360040Y-91488426D01*
X124364525Y-91492107D01*
X124365100Y-91497941D01*
X124365100Y-92310659D01*
X124364549Y-92316249D01*
X124358959Y-92316800D01*
X124121241Y-92316800D01*
X124115651Y-92316249D01*
X124115100Y-92310659D01*
X124115100Y-91497941D01*
X124115675Y-91492107D01*
X124120160Y-91488426D01*
X124137487Y-91471099D01*
X124151101Y-91450725D01*
X124160479Y-91428086D01*
X124165260Y-91404053D01*
X124165260Y-91379549D01*
X124160480Y-91355516D01*
X124151103Y-91332877D01*
X124137490Y-91312502D01*
X124120163Y-91295175D01*
X124099789Y-91281561D01*
X124077150Y-91272183D01*
X124053117Y-91267402D01*
X124040863Y-91266800D01*
X123939337Y-91266800D01*
X123914951Y-91269202D01*
X123891502Y-91276315D01*
X123869891Y-91287866D01*
X123850949Y-91303411D01*
X123835404Y-91322353D01*
X123823853Y-91343964D01*
X123816740Y-91367413D01*
X123814338Y-91391799D01*
X123816740Y-91416185D01*
X123823853Y-91439634D01*
X123835404Y-91461245D01*
X123850949Y-91480187D01*
X123860040Y-91488426D01*
X123864525Y-91492107D01*
X123865100Y-91497941D01*
X123865100Y-92310659D01*
X123864549Y-92316249D01*
X123858959Y-92316800D01*
X123621241Y-92316800D01*
X123615651Y-92316249D01*
X123615100Y-92310659D01*
X123615100Y-91497941D01*
X123615675Y-91492107D01*
X123620160Y-91488426D01*
X123637487Y-91471099D01*
X123651101Y-91450725D01*
X123660479Y-91428086D01*
X123665260Y-91404053D01*
X123665260Y-91379549D01*
X123660480Y-91355516D01*
X123651103Y-91332877D01*
X123637490Y-91312502D01*
X123620163Y-91295175D01*
X123599789Y-91281561D01*
X123577150Y-91272183D01*
X123553117Y-91267402D01*
X123540863Y-91266800D01*
X123439337Y-91266800D01*
X123414951Y-91269202D01*
X123391502Y-91276315D01*
X123369891Y-91287866D01*
X123350949Y-91303411D01*
X123335404Y-91322353D01*
X123323853Y-91343964D01*
X123316740Y-91367413D01*
X123314338Y-91391799D01*
X123316740Y-91416185D01*
X123323853Y-91439634D01*
X123335404Y-91461245D01*
X123350949Y-91480187D01*
X123360040Y-91488426D01*
X123364525Y-91492107D01*
X123365100Y-91497941D01*
X123365100Y-92310659D01*
X123364549Y-92316249D01*
X123358959Y-92316800D01*
X123121241Y-92316800D01*
X123115651Y-92316249D01*
X123115100Y-92310659D01*
X123115100Y-91497941D01*
X123115675Y-91492107D01*
X123120160Y-91488426D01*
X123137487Y-91471099D01*
X123151101Y-91450725D01*
X123160479Y-91428086D01*
X123165260Y-91404053D01*
X123165260Y-91379549D01*
X123160480Y-91355516D01*
X123151103Y-91332877D01*
X123137490Y-91312502D01*
X123120163Y-91295175D01*
X123099789Y-91281561D01*
X123077150Y-91272183D01*
X123053117Y-91267402D01*
X123040863Y-91266800D01*
X122939337Y-91266800D01*
X122914951Y-91269202D01*
X122891502Y-91276315D01*
X122869891Y-91287866D01*
X122850949Y-91303411D01*
X122840501Y-91316142D01*
X122830460Y-91297355D01*
X122814915Y-91278413D01*
X122785453Y-91256562D01*
X122756672Y-91241178D01*
X122734180Y-91222720D01*
X122715722Y-91200228D01*
X122700338Y-91171447D01*
X122686724Y-91151073D01*
X122669396Y-91133746D01*
X122649022Y-91120133D01*
X122640677Y-91116676D01*
X122644398Y-91114190D01*
X122661725Y-91096863D01*
X122675339Y-91076489D01*
X122684717Y-91053850D01*
X122689498Y-91029817D01*
X122690100Y-91017563D01*
X122690100Y-90916037D01*
X122687698Y-90891651D01*
X122680585Y-90868202D01*
X122669034Y-90846591D01*
X122653489Y-90827649D01*
X122634547Y-90812104D01*
X122612936Y-90800553D01*
X122589487Y-90793440D01*
X122565101Y-90791038D01*
X122540715Y-90793440D01*
X122517266Y-90800553D01*
X122495655Y-90812104D01*
X122476713Y-90827649D01*
X122468474Y-90836740D01*
X122464793Y-90841225D01*
X122458959Y-90841800D01*
X121646241Y-90841800D01*
X121640651Y-90841249D01*
X121640100Y-90835659D01*
X121640100Y-90597941D01*
X121640651Y-90592351D01*
X121646241Y-90591800D01*
X122458959Y-90591800D01*
X122464793Y-90592375D01*
X122468474Y-90596860D01*
X122485801Y-90614187D01*
X122506175Y-90627801D01*
X122528814Y-90637179D01*
X122552847Y-90641960D01*
X122577351Y-90641960D01*
X122601384Y-90637180D01*
X122624023Y-90627803D01*
X122644398Y-90614190D01*
X122661725Y-90596863D01*
X122675339Y-90576489D01*
X122684717Y-90553850D01*
X122689498Y-90529817D01*
X122690100Y-90517563D01*
X122690100Y-90416037D01*
X122687698Y-90391651D01*
X122680585Y-90368202D01*
X122669034Y-90346591D01*
X122653489Y-90327649D01*
X122634547Y-90312104D01*
X122612936Y-90300553D01*
X122589487Y-90293440D01*
X122565101Y-90291038D01*
X122540715Y-90293440D01*
X122517266Y-90300553D01*
X122495655Y-90312104D01*
X122476713Y-90327649D01*
X122468474Y-90336740D01*
X122464793Y-90341225D01*
X122458959Y-90341800D01*
X121646241Y-90341800D01*
X121640651Y-90341249D01*
X121640100Y-90335659D01*
X121640100Y-90097941D01*
X121640651Y-90092351D01*
X121646241Y-90091800D01*
X122458959Y-90091800D01*
X122464793Y-90092375D01*
X122468474Y-90096860D01*
X122485801Y-90114187D01*
X122506175Y-90127801D01*
X122528814Y-90137179D01*
X122552847Y-90141960D01*
X122577351Y-90141960D01*
X122601384Y-90137180D01*
X122624023Y-90127803D01*
X122644398Y-90114190D01*
X122661725Y-90096863D01*
X122675339Y-90076489D01*
X122684717Y-90053850D01*
X122689498Y-90029817D01*
X122690100Y-90017563D01*
X122690100Y-89916037D01*
X122687698Y-89891651D01*
X122680585Y-89868202D01*
X122669034Y-89846591D01*
X122653489Y-89827649D01*
X122634547Y-89812104D01*
X122612936Y-89800553D01*
X122589487Y-89793440D01*
X122565101Y-89791038D01*
X122540715Y-89793440D01*
X122517266Y-89800553D01*
X122495655Y-89812104D01*
X122476713Y-89827649D01*
X122468474Y-89836740D01*
X122464793Y-89841225D01*
X122458959Y-89841800D01*
X121646241Y-89841800D01*
X121640651Y-89841249D01*
X121640100Y-89835659D01*
X121640100Y-89597941D01*
X121640651Y-89592351D01*
X121646241Y-89591800D01*
X122458959Y-89591800D01*
X122464793Y-89592375D01*
X122468474Y-89596860D01*
X122485801Y-89614187D01*
X122506175Y-89627801D01*
X122528814Y-89637179D01*
X122552847Y-89641960D01*
X122577351Y-89641960D01*
X122601384Y-89637180D01*
X122624023Y-89627803D01*
X122644398Y-89614190D01*
X122661725Y-89596863D01*
X122675339Y-89576489D01*
X122684717Y-89553850D01*
X122689498Y-89529817D01*
X122690100Y-89517563D01*
X122690100Y-89416037D01*
X122687698Y-89391651D01*
X122680585Y-89368202D01*
X122669034Y-89346591D01*
X122653489Y-89327649D01*
X122634547Y-89312104D01*
X122612936Y-89300553D01*
X122589487Y-89293440D01*
X122565101Y-89291038D01*
X122540715Y-89293440D01*
X122517266Y-89300553D01*
X122495655Y-89312104D01*
X122476713Y-89327649D01*
X122468474Y-89336740D01*
X122464793Y-89341225D01*
X122458959Y-89341800D01*
X121646241Y-89341800D01*
X121640651Y-89341249D01*
X121640100Y-89335659D01*
X121640100Y-89097941D01*
X121640651Y-89092351D01*
X121646241Y-89091800D01*
X122458959Y-89091800D01*
X122464793Y-89092375D01*
X122468474Y-89096860D01*
X122485801Y-89114187D01*
X122506175Y-89127801D01*
X122528814Y-89137179D01*
X122552847Y-89141960D01*
X122577351Y-89141960D01*
X122601384Y-89137180D01*
X122624023Y-89127803D01*
X122644398Y-89114190D01*
X122661725Y-89096863D01*
X122675339Y-89076489D01*
X122684717Y-89053850D01*
X122689498Y-89029817D01*
X122690100Y-89017563D01*
X122690100Y-88916037D01*
X122687698Y-88891651D01*
X122680585Y-88868202D01*
X122669034Y-88846591D01*
X122653489Y-88827649D01*
X122640758Y-88817201D01*
X122659545Y-88807160D01*
X122678487Y-88791615D01*
X122700338Y-88762153D01*
X122715722Y-88733372D01*
X122734180Y-88710880D01*
X122756672Y-88692422D01*
X122785453Y-88677038D01*
X122805827Y-88663424D01*
X122823154Y-88646096D01*
X122836767Y-88625722D01*
X122840224Y-88617377D01*
X122842710Y-88621098D01*
X122860037Y-88638425D01*
X122880411Y-88652039D01*
X122903050Y-88661417D01*
X122927083Y-88666198D01*
X122939337Y-88666800D01*
X123040863Y-88666800D01*
X123065249Y-88664398D01*
X123088698Y-88657285D01*
X123110309Y-88645734D01*
X123129251Y-88630189D01*
X123144796Y-88611247D01*
X123156347Y-88589636D01*
X123163460Y-88566187D01*
X123165862Y-88541801D01*
X123163460Y-88517415D01*
X123156347Y-88493966D01*
X123144796Y-88472355D01*
X123129251Y-88453413D01*
X123120160Y-88445174D01*
X123115675Y-88441493D01*
X123115100Y-88435659D01*
X123115100Y-87622941D01*
X123115651Y-87617351D01*
X123121241Y-87616800D01*
X123358959Y-87616800D01*
X123364549Y-87617351D01*
G37*
G36*
X125157048Y-91446101D02*
G01*
X125174376Y-91463428D01*
X125194750Y-91477041D01*
X125217389Y-91486418D01*
X125253673Y-91491800D01*
X125358959Y-91491800D01*
X125364549Y-91492351D01*
X125365100Y-91497941D01*
X125365100Y-92310659D01*
X125364549Y-92316249D01*
X125358959Y-92316800D01*
X125121241Y-92316800D01*
X125115651Y-92316249D01*
X125115100Y-92310659D01*
X125115100Y-91497941D01*
X125115675Y-91492107D01*
X125120160Y-91488426D01*
X125137487Y-91471099D01*
X125151101Y-91450725D01*
X125154559Y-91442377D01*
X125157048Y-91446101D01*
G37*
G36*
X122835404Y-91461245D02*
G01*
X122850949Y-91480187D01*
X122860040Y-91488426D01*
X122864525Y-91492107D01*
X122865100Y-91497941D01*
X122865100Y-92310659D01*
X122864549Y-92316249D01*
X122858959Y-92316800D01*
X122621241Y-92316800D01*
X122615651Y-92316249D01*
X122615100Y-92310659D01*
X122615100Y-91497941D01*
X122615651Y-91492351D01*
X122621241Y-91491800D01*
X122726527Y-91491800D01*
X122750913Y-91489398D01*
X122774362Y-91482285D01*
X122795973Y-91470734D01*
X122814915Y-91455189D01*
X122825363Y-91442458D01*
X122835404Y-91461245D01*
G37*
G36*
X138952862Y-91733004D02*
G01*
X137392862Y-91733004D01*
X137392862Y-91083004D01*
X138952862Y-91083004D01*
X138952862Y-91733004D01*
G37*
G36*
X126339549Y-91092351D02*
G01*
X126340100Y-91097941D01*
X126340100Y-91335659D01*
X126339549Y-91341249D01*
X126333959Y-91341800D01*
X125521241Y-91341800D01*
X125515651Y-91341249D01*
X125515100Y-91335659D01*
X125515100Y-91230373D01*
X125512698Y-91205987D01*
X125505585Y-91182538D01*
X125494034Y-91160927D01*
X125478489Y-91141985D01*
X125465758Y-91131537D01*
X125484545Y-91121496D01*
X125503487Y-91105951D01*
X125511726Y-91096860D01*
X125515407Y-91092375D01*
X125521241Y-91091800D01*
X126333959Y-91091800D01*
X126339549Y-91092351D01*
G37*
G36*
X122464793Y-91092375D02*
G01*
X122468474Y-91096860D01*
X122485801Y-91114187D01*
X122506175Y-91127801D01*
X122514523Y-91131259D01*
X122510799Y-91133748D01*
X122493472Y-91151076D01*
X122479859Y-91171450D01*
X122470482Y-91194089D01*
X122465100Y-91230373D01*
X122465100Y-91335659D01*
X122464549Y-91341249D01*
X122458959Y-91341800D01*
X121646241Y-91341800D01*
X121640651Y-91341249D01*
X121640100Y-91335659D01*
X121640100Y-91097941D01*
X121640651Y-91092351D01*
X121646241Y-91091800D01*
X122458959Y-91091800D01*
X122464793Y-91092375D01*
G37*
G36*
X117189000Y-91255000D02*
G01*
X115189000Y-91255000D01*
X115189000Y-90355000D01*
X117189000Y-90355000D01*
X117189000Y-91255000D01*
G37*
G36*
X141652862Y-90783004D02*
G01*
X140092862Y-90783004D01*
X140092862Y-90133004D01*
X141652862Y-90133004D01*
X141652862Y-90783004D01*
G37*
G36*
X138952862Y-90783004D02*
G01*
X137392862Y-90783004D01*
X137392862Y-90133004D01*
X138952862Y-90133004D01*
X138952862Y-90783004D01*
G37*
G36*
X135440826Y-89211841D02*
G01*
X135472387Y-89221416D01*
X135501482Y-89236967D01*
X135526977Y-89257889D01*
X135547899Y-89283384D01*
X135563450Y-89312479D01*
X135573025Y-89344040D01*
X135576862Y-89383002D01*
X135576862Y-90458006D01*
X135573025Y-90496968D01*
X135563450Y-90528529D01*
X135547899Y-90557624D01*
X135526977Y-90583119D01*
X135501482Y-90604041D01*
X135472387Y-90619592D01*
X135440826Y-90629167D01*
X135401864Y-90633004D01*
X134001860Y-90633004D01*
X133962898Y-90629167D01*
X133931337Y-90619592D01*
X133902242Y-90604041D01*
X133876747Y-90583119D01*
X133855825Y-90557624D01*
X133840274Y-90528529D01*
X133830699Y-90496968D01*
X133826862Y-90458006D01*
X133826862Y-89383002D01*
X133830699Y-89344040D01*
X133840274Y-89312479D01*
X133855825Y-89283384D01*
X133876747Y-89257889D01*
X133902242Y-89236967D01*
X133931337Y-89221416D01*
X133962898Y-89211841D01*
X134001860Y-89208004D01*
X135401864Y-89208004D01*
X135440826Y-89211841D01*
G37*
G36*
X151360964Y-89211841D02*
G01*
X151392525Y-89221416D01*
X151421620Y-89236967D01*
X151447115Y-89257889D01*
X151468037Y-89283384D01*
X151483588Y-89312479D01*
X151493163Y-89344040D01*
X151497000Y-89383002D01*
X151497000Y-90458006D01*
X151493163Y-90496968D01*
X151483588Y-90528529D01*
X151468037Y-90557624D01*
X151447115Y-90583119D01*
X151421620Y-90604041D01*
X151392525Y-90619592D01*
X151360964Y-90629167D01*
X151322002Y-90633004D01*
X149921998Y-90633004D01*
X149883036Y-90629167D01*
X149851475Y-90619592D01*
X149822380Y-90604041D01*
X149796885Y-90583119D01*
X149775963Y-90557624D01*
X149760412Y-90528529D01*
X149750837Y-90496968D01*
X149747000Y-90458006D01*
X149747000Y-89383002D01*
X149750837Y-89344040D01*
X149760412Y-89312479D01*
X149775963Y-89283384D01*
X149796885Y-89257889D01*
X149822380Y-89236967D01*
X149851475Y-89221416D01*
X149883036Y-89211841D01*
X149921998Y-89208004D01*
X151322002Y-89208004D01*
X151360964Y-89211841D01*
G37*
G36*
X132310964Y-89211841D02*
G01*
X132342525Y-89221416D01*
X132371620Y-89236967D01*
X132397115Y-89257889D01*
X132418037Y-89283384D01*
X132433588Y-89312479D01*
X132443163Y-89344040D01*
X132447000Y-89383002D01*
X132447000Y-90458006D01*
X132443163Y-90496968D01*
X132433588Y-90528529D01*
X132418037Y-90557624D01*
X132397115Y-90583119D01*
X132371620Y-90604041D01*
X132342525Y-90619592D01*
X132310964Y-90629167D01*
X132272002Y-90633004D01*
X130871998Y-90633004D01*
X130833036Y-90629167D01*
X130801475Y-90619592D01*
X130772380Y-90604041D01*
X130746885Y-90583119D01*
X130725963Y-90557624D01*
X130710412Y-90528529D01*
X130700837Y-90496968D01*
X130697000Y-90458006D01*
X130697000Y-89383002D01*
X130700837Y-89344040D01*
X130710412Y-89312479D01*
X130725963Y-89283384D01*
X130746885Y-89257889D01*
X130772380Y-89236967D01*
X130801475Y-89221416D01*
X130833036Y-89211841D01*
X130871998Y-89208004D01*
X132272002Y-89208004D01*
X132310964Y-89211841D01*
G37*
G36*
X145082826Y-89211841D02*
G01*
X145114387Y-89221416D01*
X145143482Y-89236967D01*
X145168977Y-89257889D01*
X145189899Y-89283384D01*
X145205450Y-89312479D01*
X145215025Y-89344040D01*
X145218862Y-89383002D01*
X145218862Y-90458006D01*
X145215025Y-90496968D01*
X145205450Y-90528529D01*
X145189899Y-90557624D01*
X145168977Y-90583119D01*
X145143482Y-90604041D01*
X145114387Y-90619592D01*
X145082826Y-90629167D01*
X145043864Y-90633004D01*
X143643860Y-90633004D01*
X143604898Y-90629167D01*
X143573337Y-90619592D01*
X143544242Y-90604041D01*
X143518747Y-90583119D01*
X143497825Y-90557624D01*
X143482274Y-90528529D01*
X143472699Y-90496968D01*
X143468862Y-90458006D01*
X143468862Y-89383002D01*
X143472699Y-89344040D01*
X143482274Y-89312479D01*
X143497825Y-89283384D01*
X143518747Y-89257889D01*
X143544242Y-89236967D01*
X143573337Y-89221416D01*
X143604898Y-89211841D01*
X143643860Y-89208004D01*
X145043864Y-89208004D01*
X145082826Y-89211841D01*
G37*
G36*
X148643826Y-89211841D02*
G01*
X148675387Y-89221416D01*
X148704482Y-89236967D01*
X148729977Y-89257889D01*
X148750899Y-89283384D01*
X148766450Y-89312479D01*
X148776025Y-89344040D01*
X148779862Y-89383002D01*
X148779862Y-90458006D01*
X148776025Y-90496968D01*
X148766450Y-90528529D01*
X148750899Y-90557624D01*
X148729977Y-90583119D01*
X148704482Y-90604041D01*
X148675387Y-90619592D01*
X148643826Y-90629167D01*
X148604864Y-90633004D01*
X147204860Y-90633004D01*
X147165898Y-90629167D01*
X147134337Y-90619592D01*
X147105242Y-90604041D01*
X147079747Y-90583119D01*
X147058825Y-90557624D01*
X147043274Y-90528529D01*
X147033699Y-90496968D01*
X147029862Y-90458006D01*
X147029862Y-89383002D01*
X147033699Y-89344040D01*
X147043274Y-89312479D01*
X147058825Y-89283384D01*
X147079747Y-89257889D01*
X147105242Y-89236967D01*
X147134337Y-89221416D01*
X147165898Y-89211841D01*
X147204860Y-89208004D01*
X148604864Y-89208004D01*
X148643826Y-89211841D01*
G37*
G36*
X158581620Y-88033682D02*
G01*
X158694720Y-88067990D01*
X158798954Y-88123704D01*
X158890317Y-88198683D01*
X158965296Y-88290045D01*
X159021010Y-88394279D01*
X159055318Y-88507379D01*
X159064000Y-88595526D01*
X159064000Y-89204474D01*
X159055318Y-89292621D01*
X159021010Y-89405721D01*
X158965296Y-89509955D01*
X158890317Y-89601317D01*
X158798955Y-89676296D01*
X158694721Y-89732010D01*
X158581621Y-89766318D01*
X158464000Y-89777903D01*
X158346380Y-89766318D01*
X158233280Y-89732010D01*
X158129046Y-89676296D01*
X158037684Y-89601317D01*
X157962705Y-89509955D01*
X157906990Y-89405721D01*
X157872682Y-89292621D01*
X157864000Y-89204474D01*
X157864000Y-88595527D01*
X157872682Y-88507380D01*
X157906990Y-88394280D01*
X157962704Y-88290046D01*
X158037683Y-88198683D01*
X158129045Y-88123704D01*
X158233279Y-88067990D01*
X158346379Y-88033682D01*
X158464000Y-88022097D01*
X158581620Y-88033682D01*
G37*
G36*
X156921345Y-88028995D02*
G01*
X156954451Y-88039038D01*
X156984964Y-88055347D01*
X157011706Y-88077294D01*
X157033653Y-88104036D01*
X157049962Y-88134549D01*
X157060005Y-88167655D01*
X157064000Y-88208221D01*
X157064000Y-89591779D01*
X157060005Y-89632345D01*
X157049962Y-89665451D01*
X157033653Y-89695964D01*
X157011706Y-89722706D01*
X156984964Y-89744653D01*
X156954451Y-89760962D01*
X156921345Y-89771005D01*
X156880779Y-89775000D01*
X156047221Y-89775000D01*
X156006655Y-89771005D01*
X155973549Y-89760962D01*
X155943036Y-89744653D01*
X155916294Y-89722706D01*
X155894347Y-89695964D01*
X155878038Y-89665451D01*
X155867995Y-89632345D01*
X155864000Y-89591779D01*
X155864000Y-88208221D01*
X155867995Y-88167655D01*
X155878038Y-88134549D01*
X155894347Y-88104036D01*
X155916294Y-88077294D01*
X155943036Y-88055347D01*
X155973549Y-88039038D01*
X156006655Y-88028995D01*
X156047221Y-88025000D01*
X156880779Y-88025000D01*
X156921345Y-88028995D01*
G37*
G36*
X114369000Y-89020000D02*
G01*
X113469000Y-89020000D01*
X113469000Y-87020000D01*
X114369000Y-87020000D01*
X114369000Y-89020000D01*
G37*
G36*
X102939000Y-89020000D02*
G01*
X102039000Y-89020000D01*
X102039000Y-87020000D01*
X102939000Y-87020000D01*
X102939000Y-89020000D01*
G37*
G36*
X105479000Y-89020000D02*
G01*
X104579000Y-89020000D01*
X104579000Y-87020000D01*
X105479000Y-87020000D01*
X105479000Y-89020000D01*
G37*
G36*
X99129000Y-89020000D02*
G01*
X98229000Y-89020000D01*
X98229000Y-87020000D01*
X99129000Y-87020000D01*
X99129000Y-89020000D01*
G37*
G36*
X115639000Y-89020000D02*
G01*
X114739000Y-89020000D01*
X114739000Y-87020000D01*
X115639000Y-87020000D01*
X115639000Y-89020000D01*
G37*
G36*
X108019000Y-89020000D02*
G01*
X107119000Y-89020000D01*
X107119000Y-87020000D01*
X108019000Y-87020000D01*
X108019000Y-89020000D01*
G37*
G36*
X109289000Y-89020000D02*
G01*
X108389000Y-89020000D01*
X108389000Y-87020000D01*
X109289000Y-87020000D01*
X109289000Y-89020000D01*
G37*
G36*
X110559000Y-89020000D02*
G01*
X109659000Y-89020000D01*
X109659000Y-87020000D01*
X110559000Y-87020000D01*
X110559000Y-89020000D01*
G37*
G36*
X111829000Y-89020000D02*
G01*
X110929000Y-89020000D01*
X110929000Y-87020000D01*
X111829000Y-87020000D01*
X111829000Y-89020000D01*
G37*
G36*
X113099000Y-89020000D02*
G01*
X112199000Y-89020000D01*
X112199000Y-87020000D01*
X113099000Y-87020000D01*
X113099000Y-89020000D01*
G37*
G36*
X101669000Y-89020000D02*
G01*
X100769000Y-89020000D01*
X100769000Y-87020000D01*
X101669000Y-87020000D01*
X101669000Y-89020000D01*
G37*
G36*
X100399000Y-89020000D02*
G01*
X99499000Y-89020000D01*
X99499000Y-87020000D01*
X100399000Y-87020000D01*
X100399000Y-89020000D01*
G37*
G36*
X104209000Y-89020000D02*
G01*
X103309000Y-89020000D01*
X103309000Y-87020000D01*
X104209000Y-87020000D01*
X104209000Y-89020000D01*
G37*
G36*
X106749000Y-89020000D02*
G01*
X105849000Y-89020000D01*
X105849000Y-87020000D01*
X106749000Y-87020000D01*
X106749000Y-89020000D01*
G37*
G36*
X122464549Y-88592351D02*
G01*
X122465100Y-88597941D01*
X122465100Y-88703227D01*
X122467502Y-88727613D01*
X122474615Y-88751062D01*
X122486166Y-88772673D01*
X122501711Y-88791615D01*
X122514442Y-88802063D01*
X122495655Y-88812104D01*
X122476713Y-88827649D01*
X122468474Y-88836740D01*
X122464793Y-88841225D01*
X122458959Y-88841800D01*
X121646241Y-88841800D01*
X121640651Y-88841249D01*
X121640100Y-88835659D01*
X121640100Y-88597941D01*
X121640651Y-88592351D01*
X121646241Y-88591800D01*
X122458959Y-88591800D01*
X122464549Y-88592351D01*
G37*
G36*
X126339549Y-88592351D02*
G01*
X126340100Y-88597941D01*
X126340100Y-88835659D01*
X126339549Y-88841249D01*
X126333959Y-88841800D01*
X125521241Y-88841800D01*
X125515407Y-88841225D01*
X125511726Y-88836740D01*
X125494399Y-88819413D01*
X125474025Y-88805799D01*
X125465677Y-88802341D01*
X125469401Y-88799852D01*
X125486728Y-88782524D01*
X125500341Y-88762150D01*
X125509718Y-88739511D01*
X125515100Y-88703227D01*
X125515100Y-88597941D01*
X125515651Y-88592351D01*
X125521241Y-88591800D01*
X126333959Y-88591800D01*
X126339549Y-88592351D01*
G37*
G36*
X122864549Y-87617351D02*
G01*
X122865100Y-87622941D01*
X122865100Y-88435659D01*
X122864525Y-88441493D01*
X122860040Y-88445174D01*
X122842713Y-88462501D01*
X122829099Y-88482875D01*
X122825641Y-88491223D01*
X122823152Y-88487499D01*
X122805824Y-88470172D01*
X122785450Y-88456559D01*
X122762811Y-88447182D01*
X122726527Y-88441800D01*
X122621241Y-88441800D01*
X122615651Y-88441249D01*
X122615100Y-88435659D01*
X122615100Y-87622941D01*
X122615651Y-87617351D01*
X122621241Y-87616800D01*
X122858959Y-87616800D01*
X122864549Y-87617351D01*
G37*
G36*
X125364549Y-87617351D02*
G01*
X125365100Y-87622941D01*
X125365100Y-88435659D01*
X125364549Y-88441249D01*
X125358959Y-88441800D01*
X125253673Y-88441800D01*
X125229287Y-88444202D01*
X125205838Y-88451315D01*
X125184227Y-88462866D01*
X125165285Y-88478411D01*
X125154837Y-88491142D01*
X125144796Y-88472355D01*
X125129251Y-88453413D01*
X125120160Y-88445174D01*
X125115675Y-88441493D01*
X125115100Y-88435659D01*
X125115100Y-87622941D01*
X125115651Y-87617351D01*
X125121241Y-87616800D01*
X125358959Y-87616800D01*
X125364549Y-87617351D01*
G37*
G36*
X135487068Y-86873695D02*
G01*
X135518629Y-86883270D01*
X135547724Y-86898821D01*
X135573219Y-86919743D01*
X135594141Y-86945238D01*
X135609692Y-86974333D01*
X135619267Y-87005894D01*
X135623104Y-87044856D01*
X135623104Y-88119860D01*
X135619267Y-88158822D01*
X135609692Y-88190383D01*
X135594141Y-88219478D01*
X135573219Y-88244973D01*
X135547724Y-88265895D01*
X135518629Y-88281446D01*
X135487068Y-88291021D01*
X135448106Y-88294858D01*
X134048102Y-88294858D01*
X134009140Y-88291021D01*
X133977579Y-88281446D01*
X133948484Y-88265895D01*
X133922989Y-88244973D01*
X133902067Y-88219478D01*
X133886516Y-88190383D01*
X133876941Y-88158822D01*
X133873104Y-88119860D01*
X133873104Y-87044856D01*
X133876941Y-87005894D01*
X133886516Y-86974333D01*
X133902067Y-86945238D01*
X133922989Y-86919743D01*
X133948484Y-86898821D01*
X133977579Y-86883270D01*
X134009140Y-86873695D01*
X134048102Y-86869858D01*
X135448106Y-86869858D01*
X135487068Y-86873695D01*
G37*
G36*
X138789068Y-86873695D02*
G01*
X138820629Y-86883270D01*
X138849724Y-86898821D01*
X138875219Y-86919743D01*
X138896141Y-86945238D01*
X138911692Y-86974333D01*
X138921267Y-87005894D01*
X138925104Y-87044856D01*
X138925104Y-88119860D01*
X138921267Y-88158822D01*
X138911692Y-88190383D01*
X138896141Y-88219478D01*
X138875219Y-88244973D01*
X138849724Y-88265895D01*
X138820629Y-88281446D01*
X138789068Y-88291021D01*
X138750106Y-88294858D01*
X137350102Y-88294858D01*
X137311140Y-88291021D01*
X137279579Y-88281446D01*
X137250484Y-88265895D01*
X137224989Y-88244973D01*
X137204067Y-88219478D01*
X137188516Y-88190383D01*
X137178941Y-88158822D01*
X137175104Y-88119860D01*
X137175104Y-87044856D01*
X137178941Y-87005894D01*
X137188516Y-86974333D01*
X137204067Y-86945238D01*
X137224989Y-86919743D01*
X137250484Y-86898821D01*
X137279579Y-86883270D01*
X137311140Y-86873695D01*
X137350102Y-86869858D01*
X138750106Y-86869858D01*
X138789068Y-86873695D01*
G37*
G36*
X148643826Y-86873695D02*
G01*
X148675387Y-86883270D01*
X148704482Y-86898821D01*
X148729977Y-86919743D01*
X148750899Y-86945238D01*
X148766450Y-86974333D01*
X148776025Y-87005894D01*
X148779862Y-87044856D01*
X148779862Y-88119860D01*
X148776025Y-88158822D01*
X148766450Y-88190383D01*
X148750899Y-88219478D01*
X148729977Y-88244973D01*
X148704482Y-88265895D01*
X148675387Y-88281446D01*
X148643826Y-88291021D01*
X148604864Y-88294858D01*
X147204860Y-88294858D01*
X147165898Y-88291021D01*
X147134337Y-88281446D01*
X147105242Y-88265895D01*
X147079747Y-88244973D01*
X147058825Y-88219478D01*
X147043274Y-88190383D01*
X147033699Y-88158822D01*
X147029862Y-88119860D01*
X147029862Y-87044856D01*
X147033699Y-87005894D01*
X147043274Y-86974333D01*
X147058825Y-86945238D01*
X147079747Y-86919743D01*
X147105242Y-86898821D01*
X147134337Y-86883270D01*
X147165898Y-86873695D01*
X147204860Y-86869858D01*
X148604864Y-86869858D01*
X148643826Y-86873695D01*
G37*
G36*
X144823604Y-87369858D02*
G01*
X143763604Y-87369858D01*
X143763604Y-86719858D01*
X144823604Y-86719858D01*
X144823604Y-87369858D01*
G37*
G36*
X142623604Y-87369858D02*
G01*
X141563604Y-87369858D01*
X141563604Y-86719858D01*
X142623604Y-86719858D01*
X142623604Y-87369858D01*
G37*
G36*
X144823604Y-86419858D02*
G01*
X143763604Y-86419858D01*
X143763604Y-85769858D01*
X144823604Y-85769858D01*
X144823604Y-86419858D01*
G37*
G36*
X142623604Y-85469858D02*
G01*
X141563604Y-85469858D01*
X141563604Y-84819858D01*
X142623604Y-84819858D01*
X142623604Y-85469858D01*
G37*
G36*
X144823604Y-85469858D02*
G01*
X143763604Y-85469858D01*
X143763604Y-84819858D01*
X144823604Y-84819858D01*
X144823604Y-85469858D01*
G37*
G36*
X148643826Y-83898695D02*
G01*
X148675387Y-83908270D01*
X148704482Y-83923821D01*
X148729977Y-83944743D01*
X148750899Y-83970238D01*
X148766450Y-83999333D01*
X148776025Y-84030894D01*
X148779862Y-84069856D01*
X148779862Y-85144860D01*
X148776025Y-85183822D01*
X148766450Y-85215383D01*
X148750899Y-85244478D01*
X148729977Y-85269973D01*
X148704482Y-85290895D01*
X148675387Y-85306446D01*
X148643826Y-85316021D01*
X148604864Y-85319858D01*
X147204860Y-85319858D01*
X147165898Y-85316021D01*
X147134337Y-85306446D01*
X147105242Y-85290895D01*
X147079747Y-85269973D01*
X147058825Y-85244478D01*
X147043274Y-85215383D01*
X147033699Y-85183822D01*
X147029862Y-85144860D01*
X147029862Y-84069856D01*
X147033699Y-84030894D01*
X147043274Y-83999333D01*
X147058825Y-83970238D01*
X147079747Y-83944743D01*
X147105242Y-83923821D01*
X147134337Y-83908270D01*
X147165898Y-83898695D01*
X147204860Y-83894858D01*
X148604864Y-83894858D01*
X148643826Y-83898695D01*
G37*
G36*
X138789068Y-83898695D02*
G01*
X138820629Y-83908270D01*
X138849724Y-83923821D01*
X138875219Y-83944743D01*
X138896141Y-83970238D01*
X138911692Y-83999333D01*
X138921267Y-84030894D01*
X138925104Y-84069856D01*
X138925104Y-85144860D01*
X138921267Y-85183822D01*
X138911692Y-85215383D01*
X138896141Y-85244478D01*
X138875219Y-85269973D01*
X138849724Y-85290895D01*
X138820629Y-85306446D01*
X138789068Y-85316021D01*
X138750106Y-85319858D01*
X137350102Y-85319858D01*
X137311140Y-85316021D01*
X137279579Y-85306446D01*
X137250484Y-85290895D01*
X137224989Y-85269973D01*
X137204067Y-85244478D01*
X137188516Y-85215383D01*
X137178941Y-85183822D01*
X137175104Y-85144860D01*
X137175104Y-84069856D01*
X137178941Y-84030894D01*
X137188516Y-83999333D01*
X137204067Y-83970238D01*
X137224989Y-83944743D01*
X137250484Y-83923821D01*
X137279579Y-83908270D01*
X137311140Y-83898695D01*
X137350102Y-83894858D01*
X138750106Y-83894858D01*
X138789068Y-83898695D01*
G37*
G36*
X135487068Y-83898695D02*
G01*
X135518629Y-83908270D01*
X135547724Y-83923821D01*
X135573219Y-83944743D01*
X135594141Y-83970238D01*
X135609692Y-83999333D01*
X135619267Y-84030894D01*
X135623104Y-84069856D01*
X135623104Y-85144860D01*
X135619267Y-85183822D01*
X135609692Y-85215383D01*
X135594141Y-85244478D01*
X135573219Y-85269973D01*
X135547724Y-85290895D01*
X135518629Y-85306446D01*
X135487068Y-85316021D01*
X135448106Y-85319858D01*
X134048102Y-85319858D01*
X134009140Y-85316021D01*
X133977579Y-85306446D01*
X133948484Y-85290895D01*
X133922989Y-85269973D01*
X133902067Y-85244478D01*
X133886516Y-85215383D01*
X133876941Y-85183822D01*
X133873104Y-85144860D01*
X133873104Y-84069856D01*
X133876941Y-84030894D01*
X133886516Y-83999333D01*
X133902067Y-83970238D01*
X133922989Y-83944743D01*
X133948484Y-83923821D01*
X133977579Y-83908270D01*
X134009140Y-83898695D01*
X134048102Y-83894858D01*
X135448106Y-83894858D01*
X135487068Y-83898695D01*
G37*
G36*
X110734296Y-83329837D02*
G01*
X110765857Y-83339412D01*
X110794952Y-83354963D01*
X110820447Y-83375885D01*
X110841369Y-83401380D01*
X110856920Y-83430475D01*
X110866495Y-83462036D01*
X110870332Y-83500998D01*
X110870332Y-84901002D01*
X110866495Y-84939964D01*
X110856920Y-84971525D01*
X110841369Y-85000620D01*
X110820447Y-85026115D01*
X110794952Y-85047037D01*
X110765857Y-85062588D01*
X110734296Y-85072163D01*
X110695334Y-85076000D01*
X109620330Y-85076000D01*
X109581368Y-85072163D01*
X109549807Y-85062588D01*
X109520712Y-85047037D01*
X109495217Y-85026115D01*
X109474295Y-85000620D01*
X109458744Y-84971525D01*
X109449169Y-84939964D01*
X109445332Y-84901002D01*
X109445332Y-83500998D01*
X109449169Y-83462036D01*
X109458744Y-83430475D01*
X109474295Y-83401380D01*
X109495217Y-83375885D01*
X109520712Y-83354963D01*
X109549807Y-83339412D01*
X109581368Y-83329837D01*
X109620330Y-83326000D01*
X110695334Y-83326000D01*
X110734296Y-83329837D01*
G37*
G36*
X99754964Y-83329837D02*
G01*
X99786525Y-83339412D01*
X99815620Y-83354963D01*
X99841115Y-83375885D01*
X99862037Y-83401380D01*
X99877588Y-83430475D01*
X99887163Y-83462036D01*
X99891000Y-83500998D01*
X99891000Y-84901002D01*
X99887163Y-84939964D01*
X99877588Y-84971525D01*
X99862037Y-85000620D01*
X99841115Y-85026115D01*
X99815620Y-85047037D01*
X99786525Y-85062588D01*
X99754964Y-85072163D01*
X99716002Y-85076000D01*
X98640998Y-85076000D01*
X98602036Y-85072163D01*
X98570475Y-85062588D01*
X98541380Y-85047037D01*
X98515885Y-85026115D01*
X98494963Y-85000620D01*
X98479412Y-84971525D01*
X98469837Y-84939964D01*
X98466000Y-84901002D01*
X98466000Y-83500998D01*
X98469837Y-83462036D01*
X98479412Y-83430475D01*
X98494963Y-83401380D01*
X98515885Y-83375885D01*
X98541380Y-83354963D01*
X98570475Y-83339412D01*
X98602036Y-83329837D01*
X98640998Y-83326000D01*
X99716002Y-83326000D01*
X99754964Y-83329837D01*
G37*
G36*
X102729964Y-83329837D02*
G01*
X102761525Y-83339412D01*
X102790620Y-83354963D01*
X102816115Y-83375885D01*
X102837037Y-83401380D01*
X102852588Y-83430475D01*
X102862163Y-83462036D01*
X102866000Y-83500998D01*
X102866000Y-84901002D01*
X102862163Y-84939964D01*
X102852588Y-84971525D01*
X102837037Y-85000620D01*
X102816115Y-85026115D01*
X102790620Y-85047037D01*
X102761525Y-85062588D01*
X102729964Y-85072163D01*
X102691002Y-85076000D01*
X101615998Y-85076000D01*
X101577036Y-85072163D01*
X101545475Y-85062588D01*
X101516380Y-85047037D01*
X101490885Y-85026115D01*
X101469963Y-85000620D01*
X101454412Y-84971525D01*
X101444837Y-84939964D01*
X101441000Y-84901002D01*
X101441000Y-83500998D01*
X101444837Y-83462036D01*
X101454412Y-83430475D01*
X101469963Y-83401380D01*
X101490885Y-83375885D01*
X101516380Y-83354963D01*
X101545475Y-83339412D01*
X101577036Y-83329837D01*
X101615998Y-83326000D01*
X102691002Y-83326000D01*
X102729964Y-83329837D01*
G37*
G36*
X113709296Y-83329837D02*
G01*
X113740857Y-83339412D01*
X113769952Y-83354963D01*
X113795447Y-83375885D01*
X113816369Y-83401380D01*
X113831920Y-83430475D01*
X113841495Y-83462036D01*
X113845332Y-83500998D01*
X113845332Y-84901002D01*
X113841495Y-84939964D01*
X113831920Y-84971525D01*
X113816369Y-85000620D01*
X113795447Y-85026115D01*
X113769952Y-85047037D01*
X113740857Y-85062588D01*
X113709296Y-85072163D01*
X113670334Y-85076000D01*
X112595330Y-85076000D01*
X112556368Y-85072163D01*
X112524807Y-85062588D01*
X112495712Y-85047037D01*
X112470217Y-85026115D01*
X112449295Y-85000620D01*
X112433744Y-84971525D01*
X112424169Y-84939964D01*
X112420332Y-84901002D01*
X112420332Y-83500998D01*
X112424169Y-83462036D01*
X112433744Y-83430475D01*
X112449295Y-83401380D01*
X112470217Y-83375885D01*
X112495712Y-83354963D01*
X112524807Y-83339412D01*
X112556368Y-83329837D01*
X112595330Y-83326000D01*
X113670334Y-83326000D01*
X113709296Y-83329837D01*
G37*
G36*
X108242130Y-83279837D02*
G01*
X108273691Y-83289412D01*
X108302786Y-83304963D01*
X108328281Y-83325885D01*
X108349203Y-83351380D01*
X108364754Y-83380475D01*
X108374329Y-83412036D01*
X108378166Y-83450998D01*
X108378166Y-84851002D01*
X108374329Y-84889964D01*
X108364754Y-84921525D01*
X108349203Y-84950620D01*
X108328281Y-84976115D01*
X108302786Y-84997037D01*
X108273691Y-85012588D01*
X108242130Y-85022163D01*
X108203168Y-85026000D01*
X107128164Y-85026000D01*
X107089202Y-85022163D01*
X107057641Y-85012588D01*
X107028546Y-84997037D01*
X107003051Y-84976115D01*
X106982129Y-84950620D01*
X106966578Y-84921525D01*
X106957003Y-84889964D01*
X106953166Y-84851002D01*
X106953166Y-83450998D01*
X106957003Y-83412036D01*
X106966578Y-83380475D01*
X106982129Y-83351380D01*
X107003051Y-83325885D01*
X107028546Y-83304963D01*
X107057641Y-83289412D01*
X107089202Y-83279837D01*
X107128164Y-83276000D01*
X108203168Y-83276000D01*
X108242130Y-83279837D01*
G37*
G36*
X105267130Y-83279837D02*
G01*
X105298691Y-83289412D01*
X105327786Y-83304963D01*
X105353281Y-83325885D01*
X105374203Y-83351380D01*
X105389754Y-83380475D01*
X105399329Y-83412036D01*
X105403166Y-83450998D01*
X105403166Y-84851002D01*
X105399329Y-84889964D01*
X105389754Y-84921525D01*
X105374203Y-84950620D01*
X105353281Y-84976115D01*
X105327786Y-84997037D01*
X105298691Y-85012588D01*
X105267130Y-85022163D01*
X105228168Y-85026000D01*
X104153164Y-85026000D01*
X104114202Y-85022163D01*
X104082641Y-85012588D01*
X104053546Y-84997037D01*
X104028051Y-84976115D01*
X104007129Y-84950620D01*
X103991578Y-84921525D01*
X103982003Y-84889964D01*
X103978166Y-84851002D01*
X103978166Y-83450998D01*
X103982003Y-83412036D01*
X103991578Y-83380475D01*
X104007129Y-83351380D01*
X104028051Y-83325885D01*
X104053546Y-83304963D01*
X104082641Y-83289412D01*
X104114202Y-83279837D01*
X104153164Y-83276000D01*
X105228168Y-83276000D01*
X105267130Y-83279837D01*
G37*
G36*
X116246464Y-83279837D02*
G01*
X116278025Y-83289412D01*
X116307120Y-83304963D01*
X116332615Y-83325885D01*
X116353537Y-83351380D01*
X116369088Y-83380475D01*
X116378663Y-83412036D01*
X116382500Y-83450998D01*
X116382500Y-84851002D01*
X116378663Y-84889964D01*
X116369088Y-84921525D01*
X116353537Y-84950620D01*
X116332615Y-84976115D01*
X116307120Y-84997037D01*
X116278025Y-85012588D01*
X116246464Y-85022163D01*
X116207502Y-85026000D01*
X115132498Y-85026000D01*
X115093536Y-85022163D01*
X115061975Y-85012588D01*
X115032880Y-84997037D01*
X115007385Y-84976115D01*
X114986463Y-84950620D01*
X114970912Y-84921525D01*
X114961337Y-84889964D01*
X114957500Y-84851002D01*
X114957500Y-83450998D01*
X114961337Y-83412036D01*
X114970912Y-83380475D01*
X114986463Y-83351380D01*
X115007385Y-83325885D01*
X115032880Y-83304963D01*
X115061975Y-83289412D01*
X115093536Y-83279837D01*
X115132498Y-83276000D01*
X116207502Y-83276000D01*
X116246464Y-83279837D01*
G37*
G36*
X119221464Y-83279837D02*
G01*
X119253025Y-83289412D01*
X119282120Y-83304963D01*
X119307615Y-83325885D01*
X119328537Y-83351380D01*
X119344088Y-83380475D01*
X119353663Y-83412036D01*
X119357500Y-83450998D01*
X119357500Y-84851002D01*
X119353663Y-84889964D01*
X119344088Y-84921525D01*
X119328537Y-84950620D01*
X119307615Y-84976115D01*
X119282120Y-84997037D01*
X119253025Y-85012588D01*
X119221464Y-85022163D01*
X119182502Y-85026000D01*
X118107498Y-85026000D01*
X118068536Y-85022163D01*
X118036975Y-85012588D01*
X118007880Y-84997037D01*
X117982385Y-84976115D01*
X117961463Y-84950620D01*
X117945912Y-84921525D01*
X117936337Y-84889964D01*
X117932500Y-84851002D01*
X117932500Y-83450998D01*
X117936337Y-83412036D01*
X117945912Y-83380475D01*
X117961463Y-83351380D01*
X117982385Y-83325885D01*
X118007880Y-83304963D01*
X118036975Y-83289412D01*
X118068536Y-83279837D01*
X118107498Y-83276000D01*
X119182502Y-83276000D01*
X119221464Y-83279837D01*
G37*
G36*
X122101364Y-83465837D02*
G01*
X122132925Y-83475412D01*
X122162020Y-83490963D01*
X122187515Y-83511885D01*
X122208437Y-83537380D01*
X122223988Y-83566475D01*
X122233563Y-83598036D01*
X122237400Y-83636998D01*
X122237400Y-84712002D01*
X122233563Y-84750964D01*
X122223988Y-84782525D01*
X122208437Y-84811620D01*
X122187515Y-84837115D01*
X122162020Y-84858037D01*
X122132925Y-84873588D01*
X122101364Y-84883163D01*
X122062402Y-84887000D01*
X120662398Y-84887000D01*
X120623436Y-84883163D01*
X120591875Y-84873588D01*
X120562780Y-84858037D01*
X120537285Y-84837115D01*
X120516363Y-84811620D01*
X120500812Y-84782525D01*
X120491237Y-84750964D01*
X120487400Y-84712002D01*
X120487400Y-83636998D01*
X120491237Y-83598036D01*
X120500812Y-83566475D01*
X120516363Y-83537380D01*
X120537285Y-83511885D01*
X120562780Y-83490963D01*
X120591875Y-83475412D01*
X120623436Y-83465837D01*
X120662398Y-83462000D01*
X122062402Y-83462000D01*
X122101364Y-83465837D01*
G37*
G36*
X127251475Y-81130961D02*
G01*
X127383416Y-81185612D01*
X127502160Y-81264955D01*
X127603145Y-81365940D01*
X127682488Y-81484684D01*
X127737139Y-81616625D01*
X127765000Y-81756692D01*
X127765000Y-81899508D01*
X127737139Y-82039575D01*
X127682488Y-82171516D01*
X127603145Y-82290260D01*
X127502160Y-82391245D01*
X127383416Y-82470588D01*
X127251475Y-82525239D01*
X127111408Y-82553100D01*
X126968592Y-82553100D01*
X126828525Y-82525239D01*
X126696584Y-82470588D01*
X126577840Y-82391245D01*
X126476855Y-82290260D01*
X126397512Y-82171516D01*
X126342861Y-82039575D01*
X126315000Y-81899508D01*
X126315000Y-81756692D01*
X126342861Y-81616625D01*
X126397512Y-81484684D01*
X126476855Y-81365940D01*
X126577840Y-81264955D01*
X126696584Y-81185612D01*
X126828525Y-81130961D01*
X126968592Y-81103100D01*
X127111408Y-81103100D01*
X127251475Y-81130961D01*
G37*
G36*
X132251475Y-81130961D02*
G01*
X132383416Y-81185612D01*
X132502160Y-81264955D01*
X132603145Y-81365940D01*
X132682488Y-81484684D01*
X132737139Y-81616625D01*
X132765000Y-81756692D01*
X132765000Y-81899508D01*
X132737139Y-82039575D01*
X132682488Y-82171516D01*
X132603145Y-82290260D01*
X132502160Y-82391245D01*
X132383416Y-82470588D01*
X132251475Y-82525239D01*
X132111408Y-82553100D01*
X131968592Y-82553100D01*
X131828525Y-82525239D01*
X131696584Y-82470588D01*
X131577840Y-82391245D01*
X131476855Y-82290260D01*
X131397512Y-82171516D01*
X131342861Y-82039575D01*
X131315000Y-81899508D01*
X131315000Y-81756692D01*
X131342861Y-81616625D01*
X131397512Y-81484684D01*
X131476855Y-81365940D01*
X131577840Y-81264955D01*
X131696584Y-81185612D01*
X131828525Y-81130961D01*
X131968592Y-81103100D01*
X132111408Y-81103100D01*
X132251475Y-81130961D01*
G37*
G36*
X102729964Y-80535837D02*
G01*
X102761525Y-80545412D01*
X102790620Y-80560963D01*
X102816115Y-80581885D01*
X102837037Y-80607380D01*
X102852588Y-80636475D01*
X102862163Y-80668036D01*
X102866000Y-80706998D01*
X102866000Y-82107002D01*
X102862163Y-82145964D01*
X102852588Y-82177525D01*
X102837037Y-82206620D01*
X102816115Y-82232115D01*
X102790620Y-82253037D01*
X102761525Y-82268588D01*
X102729964Y-82278163D01*
X102691002Y-82282000D01*
X101615998Y-82282000D01*
X101577036Y-82278163D01*
X101545475Y-82268588D01*
X101516380Y-82253037D01*
X101490885Y-82232115D01*
X101469963Y-82206620D01*
X101454412Y-82177525D01*
X101444837Y-82145964D01*
X101441000Y-82107002D01*
X101441000Y-80706998D01*
X101444837Y-80668036D01*
X101454412Y-80636475D01*
X101469963Y-80607380D01*
X101490885Y-80581885D01*
X101516380Y-80560963D01*
X101545475Y-80545412D01*
X101577036Y-80535837D01*
X101615998Y-80532000D01*
X102691002Y-80532000D01*
X102729964Y-80535837D01*
G37*
G36*
X110749296Y-80535837D02*
G01*
X110780857Y-80545412D01*
X110809952Y-80560963D01*
X110835447Y-80581885D01*
X110856369Y-80607380D01*
X110871920Y-80636475D01*
X110881495Y-80668036D01*
X110885332Y-80706998D01*
X110885332Y-82107002D01*
X110881495Y-82145964D01*
X110871920Y-82177525D01*
X110856369Y-82206620D01*
X110835447Y-82232115D01*
X110809952Y-82253037D01*
X110780857Y-82268588D01*
X110749296Y-82278163D01*
X110710334Y-82282000D01*
X109635330Y-82282000D01*
X109596368Y-82278163D01*
X109564807Y-82268588D01*
X109535712Y-82253037D01*
X109510217Y-82232115D01*
X109489295Y-82206620D01*
X109473744Y-82177525D01*
X109464169Y-82145964D01*
X109460332Y-82107002D01*
X109460332Y-80706998D01*
X109464169Y-80668036D01*
X109473744Y-80636475D01*
X109489295Y-80607380D01*
X109510217Y-80581885D01*
X109535712Y-80560963D01*
X109564807Y-80545412D01*
X109596368Y-80535837D01*
X109635330Y-80532000D01*
X110710334Y-80532000D01*
X110749296Y-80535837D01*
G37*
G36*
X113724296Y-80535837D02*
G01*
X113755857Y-80545412D01*
X113784952Y-80560963D01*
X113810447Y-80581885D01*
X113831369Y-80607380D01*
X113846920Y-80636475D01*
X113856495Y-80668036D01*
X113860332Y-80706998D01*
X113860332Y-82107002D01*
X113856495Y-82145964D01*
X113846920Y-82177525D01*
X113831369Y-82206620D01*
X113810447Y-82232115D01*
X113784952Y-82253037D01*
X113755857Y-82268588D01*
X113724296Y-82278163D01*
X113685334Y-82282000D01*
X112610330Y-82282000D01*
X112571368Y-82278163D01*
X112539807Y-82268588D01*
X112510712Y-82253037D01*
X112485217Y-82232115D01*
X112464295Y-82206620D01*
X112448744Y-82177525D01*
X112439169Y-82145964D01*
X112435332Y-82107002D01*
X112435332Y-80706998D01*
X112439169Y-80668036D01*
X112448744Y-80636475D01*
X112464295Y-80607380D01*
X112485217Y-80581885D01*
X112510712Y-80560963D01*
X112539807Y-80545412D01*
X112571368Y-80535837D01*
X112610330Y-80532000D01*
X113685334Y-80532000D01*
X113724296Y-80535837D01*
G37*
G36*
X99754964Y-80535837D02*
G01*
X99786525Y-80545412D01*
X99815620Y-80560963D01*
X99841115Y-80581885D01*
X99862037Y-80607380D01*
X99877588Y-80636475D01*
X99887163Y-80668036D01*
X99891000Y-80706998D01*
X99891000Y-82107002D01*
X99887163Y-82145964D01*
X99877588Y-82177525D01*
X99862037Y-82206620D01*
X99841115Y-82232115D01*
X99815620Y-82253037D01*
X99786525Y-82268588D01*
X99754964Y-82278163D01*
X99716002Y-82282000D01*
X98640998Y-82282000D01*
X98602036Y-82278163D01*
X98570475Y-82268588D01*
X98541380Y-82253037D01*
X98515885Y-82232115D01*
X98494963Y-82206620D01*
X98479412Y-82177525D01*
X98469837Y-82145964D01*
X98466000Y-82107002D01*
X98466000Y-80706998D01*
X98469837Y-80668036D01*
X98479412Y-80636475D01*
X98494963Y-80607380D01*
X98515885Y-80581885D01*
X98541380Y-80560963D01*
X98570475Y-80545412D01*
X98602036Y-80535837D01*
X98640998Y-80532000D01*
X99716002Y-80532000D01*
X99754964Y-80535837D01*
G37*
G36*
X105297130Y-80485837D02*
G01*
X105328691Y-80495412D01*
X105357786Y-80510963D01*
X105383281Y-80531885D01*
X105404203Y-80557380D01*
X105419754Y-80586475D01*
X105429329Y-80618036D01*
X105433166Y-80656998D01*
X105433166Y-82057002D01*
X105429329Y-82095964D01*
X105419754Y-82127525D01*
X105404203Y-82156620D01*
X105383281Y-82182115D01*
X105357786Y-82203037D01*
X105328691Y-82218588D01*
X105297130Y-82228163D01*
X105258168Y-82232000D01*
X104183164Y-82232000D01*
X104144202Y-82228163D01*
X104112641Y-82218588D01*
X104083546Y-82203037D01*
X104058051Y-82182115D01*
X104037129Y-82156620D01*
X104021578Y-82127525D01*
X104012003Y-82095964D01*
X104008166Y-82057002D01*
X104008166Y-80656998D01*
X104012003Y-80618036D01*
X104021578Y-80586475D01*
X104037129Y-80557380D01*
X104058051Y-80531885D01*
X104083546Y-80510963D01*
X104112641Y-80495412D01*
X104144202Y-80485837D01*
X104183164Y-80482000D01*
X105258168Y-80482000D01*
X105297130Y-80485837D01*
G37*
G36*
X119221464Y-80485837D02*
G01*
X119253025Y-80495412D01*
X119282120Y-80510963D01*
X119307615Y-80531885D01*
X119328537Y-80557380D01*
X119344088Y-80586475D01*
X119353663Y-80618036D01*
X119357500Y-80656998D01*
X119357500Y-82057002D01*
X119353663Y-82095964D01*
X119344088Y-82127525D01*
X119328537Y-82156620D01*
X119307615Y-82182115D01*
X119282120Y-82203037D01*
X119253025Y-82218588D01*
X119221464Y-82228163D01*
X119182502Y-82232000D01*
X118107498Y-82232000D01*
X118068536Y-82228163D01*
X118036975Y-82218588D01*
X118007880Y-82203037D01*
X117982385Y-82182115D01*
X117961463Y-82156620D01*
X117945912Y-82127525D01*
X117936337Y-82095964D01*
X117932500Y-82057002D01*
X117932500Y-80656998D01*
X117936337Y-80618036D01*
X117945912Y-80586475D01*
X117961463Y-80557380D01*
X117982385Y-80531885D01*
X118007880Y-80510963D01*
X118036975Y-80495412D01*
X118068536Y-80485837D01*
X118107498Y-80482000D01*
X119182502Y-80482000D01*
X119221464Y-80485837D01*
G37*
G36*
X116246464Y-80485837D02*
G01*
X116278025Y-80495412D01*
X116307120Y-80510963D01*
X116332615Y-80531885D01*
X116353537Y-80557380D01*
X116369088Y-80586475D01*
X116378663Y-80618036D01*
X116382500Y-80656998D01*
X116382500Y-82057002D01*
X116378663Y-82095964D01*
X116369088Y-82127525D01*
X116353537Y-82156620D01*
X116332615Y-82182115D01*
X116307120Y-82203037D01*
X116278025Y-82218588D01*
X116246464Y-82228163D01*
X116207502Y-82232000D01*
X115132498Y-82232000D01*
X115093536Y-82228163D01*
X115061975Y-82218588D01*
X115032880Y-82203037D01*
X115007385Y-82182115D01*
X114986463Y-82156620D01*
X114970912Y-82127525D01*
X114961337Y-82095964D01*
X114957500Y-82057002D01*
X114957500Y-80656998D01*
X114961337Y-80618036D01*
X114970912Y-80586475D01*
X114986463Y-80557380D01*
X115007385Y-80531885D01*
X115032880Y-80510963D01*
X115061975Y-80495412D01*
X115093536Y-80485837D01*
X115132498Y-80482000D01*
X116207502Y-80482000D01*
X116246464Y-80485837D01*
G37*
G36*
X108272130Y-80485837D02*
G01*
X108303691Y-80495412D01*
X108332786Y-80510963D01*
X108358281Y-80531885D01*
X108379203Y-80557380D01*
X108394754Y-80586475D01*
X108404329Y-80618036D01*
X108408166Y-80656998D01*
X108408166Y-82057002D01*
X108404329Y-82095964D01*
X108394754Y-82127525D01*
X108379203Y-82156620D01*
X108358281Y-82182115D01*
X108332786Y-82203037D01*
X108303691Y-82218588D01*
X108272130Y-82228163D01*
X108233168Y-82232000D01*
X107158164Y-82232000D01*
X107119202Y-82228163D01*
X107087641Y-82218588D01*
X107058546Y-82203037D01*
X107033051Y-82182115D01*
X107012129Y-82156620D01*
X106996578Y-82127525D01*
X106987003Y-82095964D01*
X106983166Y-82057002D01*
X106983166Y-80656998D01*
X106987003Y-80618036D01*
X106996578Y-80586475D01*
X107012129Y-80557380D01*
X107033051Y-80531885D01*
X107058546Y-80510963D01*
X107087641Y-80495412D01*
X107119202Y-80485837D01*
X107158164Y-80482000D01*
X108233168Y-80482000D01*
X108272130Y-80485837D01*
G37*
G36*
X122101364Y-80490837D02*
G01*
X122132925Y-80500412D01*
X122162020Y-80515963D01*
X122187515Y-80536885D01*
X122208437Y-80562380D01*
X122223988Y-80591475D01*
X122233563Y-80623036D01*
X122237400Y-80661998D01*
X122237400Y-81737002D01*
X122233563Y-81775964D01*
X122223988Y-81807525D01*
X122208437Y-81836620D01*
X122187515Y-81862115D01*
X122162020Y-81883037D01*
X122132925Y-81898588D01*
X122101364Y-81908163D01*
X122062402Y-81912000D01*
X120662398Y-81912000D01*
X120623436Y-81908163D01*
X120591875Y-81898588D01*
X120562780Y-81883037D01*
X120537285Y-81862115D01*
X120516363Y-81836620D01*
X120500812Y-81807525D01*
X120491237Y-81775964D01*
X120487400Y-81737002D01*
X120487400Y-80661998D01*
X120491237Y-80623036D01*
X120500812Y-80591475D01*
X120516363Y-80562380D01*
X120537285Y-80536885D01*
X120562780Y-80515963D01*
X120591875Y-80500412D01*
X120623436Y-80490837D01*
X120662398Y-80487000D01*
X122062402Y-80487000D01*
X122101364Y-80490837D01*
G37*
G36*
X126157621Y-78186782D02*
G01*
X126270721Y-78221090D01*
X126374955Y-78276804D01*
X126466317Y-78351783D01*
X126541296Y-78443145D01*
X126597010Y-78547379D01*
X126631318Y-78660479D01*
X126640000Y-78748626D01*
X126640000Y-79507574D01*
X126631318Y-79595721D01*
X126597010Y-79708821D01*
X126541296Y-79813055D01*
X126466317Y-79904417D01*
X126374954Y-79979396D01*
X126270720Y-80035110D01*
X126157620Y-80069418D01*
X126040000Y-80081003D01*
X125922379Y-80069418D01*
X125809279Y-80035110D01*
X125705045Y-79979396D01*
X125613683Y-79904417D01*
X125538704Y-79813054D01*
X125482990Y-79708820D01*
X125448682Y-79595720D01*
X125440000Y-79507573D01*
X125440000Y-78748626D01*
X125448682Y-78660479D01*
X125482990Y-78547379D01*
X125538705Y-78443145D01*
X125613684Y-78351783D01*
X125705046Y-78276804D01*
X125809280Y-78221090D01*
X125922380Y-78186782D01*
X126040000Y-78175197D01*
X126157621Y-78186782D01*
G37*
G36*
X133157620Y-78186782D02*
G01*
X133270720Y-78221090D01*
X133374954Y-78276804D01*
X133466317Y-78351783D01*
X133541296Y-78443145D01*
X133597010Y-78547379D01*
X133631318Y-78660479D01*
X133640000Y-78748626D01*
X133640000Y-79507574D01*
X133631318Y-79595721D01*
X133597010Y-79708821D01*
X133541296Y-79813055D01*
X133466317Y-79904417D01*
X133374955Y-79979396D01*
X133270721Y-80035110D01*
X133157621Y-80069418D01*
X133040000Y-80081003D01*
X132922380Y-80069418D01*
X132809280Y-80035110D01*
X132705046Y-79979396D01*
X132613684Y-79904417D01*
X132538705Y-79813055D01*
X132482990Y-79708821D01*
X132448682Y-79595721D01*
X132440000Y-79507574D01*
X132440000Y-78748627D01*
X132448682Y-78660480D01*
X132482990Y-78547380D01*
X132538704Y-78443146D01*
X132613683Y-78351783D01*
X132705045Y-78276804D01*
X132809279Y-78221090D01*
X132922379Y-78186782D01*
X133040000Y-78175197D01*
X133157620Y-78186782D01*
G37*
M02*
