M48
; DRILL file {KiCad 5.1.5+dfsg1-2build2} date fr. 28. aug. 2020 kl. 17.03 +0200
; FORMAT={-:-/ absolute / inch / decimal}
; #@! TF.CreationDate,2020-08-28T17:03:52+02:00
; #@! TF.GenerationSoftware,Kicad,Pcbnew,5.1.5+dfsg1-2build2
; #@! TF.FileFunction,Plated,1,2,PTH
FMAT,2
INCH
T1C0.0157
T2C0.0236
T3C0.0295
T4C0.0299
T5C0.0335
T6C0.0394
%
G90
G05
T1
X3.89Y-4.29
X3.9Y-3.59
X3.91Y-3.99
X4.0086Y-4.29
X4.08Y-3.59
X4.08Y-4.25
X4.11Y-3.91
X4.14Y-4.4
X4.21Y-3.39
X4.25Y-3.77
X4.25Y-3.91
X4.26Y-4.21
X4.31Y-3.59
X4.35Y-4.39
X4.4Y-3.26
X4.41Y-4.03
X4.47Y-3.76
X4.6Y-4.13
X4.61Y-3.47
X4.696Y-3.838
X4.75Y-3.498
X4.752Y-3.584
X4.752Y-3.928
X4.77Y-3.42
X4.7771Y-3.313
X4.81Y-3.73
X4.812Y-4.312
X4.83Y-4.05
X4.91Y-3.74
X4.98Y-4.04
X5.01Y-3.36
X5.02Y-4.32
X5.03Y-3.46
X5.04Y-3.71
X5.06Y-3.3
X5.1Y-3.6741
X5.11Y-3.3
X5.18Y-3.5402
X5.29Y-4.03
X5.29Y-4.07
X5.3Y-3.33
X5.38Y-3.7
X5.435Y-3.4481
X5.44Y-4.07
X5.45Y-3.89
X5.45Y-3.94
X5.55Y-4.03
X5.6Y-3.7
X5.62Y-3.48
X5.7Y-4.06
X5.82Y-3.33
X5.823Y-3.5402
X5.95Y-4.16
X6.0Y-4.02
X6.01Y-4.3
X6.09Y-4.02
X6.09Y-4.22
X6.2Y-3.92
X6.2086Y-4.02
X6.2608Y-4.1008
X6.38Y-4.0
T3
X6.16Y-3.5
X6.2387Y-3.5
T4
X6.51Y-3.64
X6.51Y-3.74
X6.51Y-3.84
X6.51Y-3.94
X6.61Y-3.69
X6.61Y-3.79
X6.61Y-3.89
X6.61Y-3.99
T5
X5.0016Y-3.2216
X5.1984Y-3.2216
T6
X6.03Y-3.82
X6.13Y-3.82
X6.23Y-3.82
X6.33Y-3.82
X5.25Y-4.37
X5.35Y-4.37
X5.45Y-4.37
X5.55Y-4.37
X5.65Y-4.37
X5.75Y-4.37
T2
G00X4.9622Y-3.1291
M15
G01X4.9622Y-3.1015
M16
G05
G00X5.2378Y-3.1015
M15
G01X5.2378Y-3.1291
M16
G05
T0
M30
