G04 #@! TF.GenerationSoftware,KiCad,Pcbnew,5.1.5+dfsg1-2build2*
G04 #@! TF.CreationDate,2020-08-28T17:04:02+02:00*
G04 #@! TF.ProjectId,System Air,53797374-656d-4204-9169-722e6b696361,rev?*
G04 #@! TF.SameCoordinates,Original*
G04 #@! TF.FileFunction,Legend,Bot*
G04 #@! TF.FilePolarity,Positive*
%FSLAX46Y46*%
G04 Gerber Fmt 4.6, Leading zero omitted, Abs format (unit mm)*
G04 Created by KiCad (PCBNEW 5.1.5+dfsg1-2build2) date 2020-08-28 17:04:02*
%MOMM*%
%LPD*%
G04 APERTURE LIST*
%ADD10C,0.120000*%
%ADD11C,0.150000*%
G04 APERTURE END LIST*
D10*
X127840000Y-82678100D02*
X127840000Y-82228100D01*
X127840000Y-82678100D02*
X128290000Y-82678100D01*
X133440000Y-82128100D02*
X132990000Y-82128100D01*
X133440000Y-80278100D02*
X133440000Y-82128100D01*
X125640000Y-77728100D02*
X125640000Y-77978100D01*
X133440000Y-77728100D02*
X133440000Y-77978100D01*
X125640000Y-80278100D02*
X125640000Y-82128100D01*
X125640000Y-82128100D02*
X126090000Y-82128100D01*
X126464940Y-108892318D02*
X126464940Y-107962318D01*
X126464940Y-105732318D02*
X126464940Y-106662318D01*
X126464940Y-105732318D02*
X129624940Y-105732318D01*
X126464940Y-108892318D02*
X127924940Y-108892318D01*
X121478540Y-107899784D02*
X120018540Y-107899784D01*
X121478540Y-111059784D02*
X118318540Y-111059784D01*
X121478540Y-111059784D02*
X121478540Y-110129784D01*
X121478540Y-107899784D02*
X121478540Y-108829784D01*
X119866476Y-106054852D02*
X121070604Y-106054852D01*
X119866476Y-104234852D02*
X121070604Y-104234852D01*
X128077004Y-112557250D02*
X126872876Y-112557250D01*
X128077004Y-110737250D02*
X126872876Y-110737250D01*
D11*
X129806666Y-83040004D02*
X129806666Y-83611433D01*
X129844761Y-83725719D01*
X129920952Y-83801909D01*
X130035238Y-83840004D01*
X130111428Y-83840004D01*
X129463809Y-83116195D02*
X129425714Y-83078100D01*
X129349523Y-83040004D01*
X129159047Y-83040004D01*
X129082857Y-83078100D01*
X129044761Y-83116195D01*
X129006666Y-83192385D01*
X129006666Y-83268576D01*
X129044761Y-83382861D01*
X129501904Y-83840004D01*
X129006666Y-83840004D01*
X127320178Y-105359937D02*
X127415416Y-105312318D01*
X127510654Y-105217079D01*
X127653511Y-105074222D01*
X127748749Y-105026603D01*
X127843987Y-105026603D01*
X127796368Y-105264698D02*
X127891606Y-105217079D01*
X127986844Y-105121841D01*
X128034463Y-104931365D01*
X128034463Y-104598032D01*
X127986844Y-104407556D01*
X127891606Y-104312318D01*
X127796368Y-104264698D01*
X127605892Y-104264698D01*
X127510654Y-104312318D01*
X127415416Y-104407556D01*
X127367797Y-104598032D01*
X127367797Y-104931365D01*
X127415416Y-105121841D01*
X127510654Y-105217079D01*
X127605892Y-105264698D01*
X127796368Y-105264698D01*
X126986844Y-104359937D02*
X126939225Y-104312318D01*
X126843987Y-104264698D01*
X126605892Y-104264698D01*
X126510654Y-104312318D01*
X126463035Y-104359937D01*
X126415416Y-104455175D01*
X126415416Y-104550413D01*
X126463035Y-104693270D01*
X127034463Y-105264698D01*
X126415416Y-105264698D01*
X120813778Y-112527403D02*
X120909016Y-112479784D01*
X121004254Y-112384545D01*
X121147111Y-112241688D01*
X121242349Y-112194069D01*
X121337587Y-112194069D01*
X121289968Y-112432164D02*
X121385206Y-112384545D01*
X121480444Y-112289307D01*
X121528063Y-112098831D01*
X121528063Y-111765498D01*
X121480444Y-111575022D01*
X121385206Y-111479784D01*
X121289968Y-111432164D01*
X121099492Y-111432164D01*
X121004254Y-111479784D01*
X120909016Y-111575022D01*
X120861397Y-111765498D01*
X120861397Y-112098831D01*
X120909016Y-112289307D01*
X121004254Y-112384545D01*
X121099492Y-112432164D01*
X121289968Y-112432164D01*
X120528063Y-111432164D02*
X119909016Y-111432164D01*
X120242349Y-111813117D01*
X120099492Y-111813117D01*
X120004254Y-111860736D01*
X119956635Y-111908355D01*
X119909016Y-112003593D01*
X119909016Y-112241688D01*
X119956635Y-112336926D01*
X120004254Y-112384545D01*
X120099492Y-112432164D01*
X120385206Y-112432164D01*
X120480444Y-112384545D01*
X120528063Y-112336926D01*
X120635206Y-107417232D02*
X120968540Y-106941042D01*
X121206635Y-107417232D02*
X121206635Y-106417232D01*
X120825682Y-106417232D01*
X120730444Y-106464852D01*
X120682825Y-106512471D01*
X120635206Y-106607709D01*
X120635206Y-106750566D01*
X120682825Y-106845804D01*
X120730444Y-106893423D01*
X120825682Y-106941042D01*
X121206635Y-106941042D01*
X120063778Y-106845804D02*
X120159016Y-106798185D01*
X120206635Y-106750566D01*
X120254254Y-106655328D01*
X120254254Y-106607709D01*
X120206635Y-106512471D01*
X120159016Y-106464852D01*
X120063778Y-106417232D01*
X119873301Y-106417232D01*
X119778063Y-106464852D01*
X119730444Y-106512471D01*
X119682825Y-106607709D01*
X119682825Y-106655328D01*
X119730444Y-106750566D01*
X119778063Y-106798185D01*
X119873301Y-106845804D01*
X120063778Y-106845804D01*
X120159016Y-106893423D01*
X120206635Y-106941042D01*
X120254254Y-107036280D01*
X120254254Y-107226756D01*
X120206635Y-107321994D01*
X120159016Y-107369613D01*
X120063778Y-107417232D01*
X119873301Y-107417232D01*
X119778063Y-107369613D01*
X119730444Y-107321994D01*
X119682825Y-107226756D01*
X119682825Y-107036280D01*
X119730444Y-106941042D01*
X119778063Y-106893423D01*
X119873301Y-106845804D01*
X127641606Y-110279630D02*
X127974940Y-109803440D01*
X128213035Y-110279630D02*
X128213035Y-109279630D01*
X127832082Y-109279630D01*
X127736844Y-109327250D01*
X127689225Y-109374869D01*
X127641606Y-109470107D01*
X127641606Y-109612964D01*
X127689225Y-109708202D01*
X127736844Y-109755821D01*
X127832082Y-109803440D01*
X128213035Y-109803440D01*
X127165416Y-110279630D02*
X126974940Y-110279630D01*
X126879701Y-110232011D01*
X126832082Y-110184392D01*
X126736844Y-110041535D01*
X126689225Y-109851059D01*
X126689225Y-109470107D01*
X126736844Y-109374869D01*
X126784463Y-109327250D01*
X126879701Y-109279630D01*
X127070178Y-109279630D01*
X127165416Y-109327250D01*
X127213035Y-109374869D01*
X127260654Y-109470107D01*
X127260654Y-109708202D01*
X127213035Y-109803440D01*
X127165416Y-109851059D01*
X127070178Y-109898678D01*
X126879701Y-109898678D01*
X126784463Y-109851059D01*
X126736844Y-109803440D01*
X126689225Y-109708202D01*
M02*
