G04 #@! TF.GenerationSoftware,KiCad,Pcbnew,5.1.5+dfsg1-2build2*
G04 #@! TF.CreationDate,2020-08-28T17:04:02+02:00*
G04 #@! TF.ProjectId,System Air,53797374-656d-4204-9169-722e6b696361,rev?*
G04 #@! TF.SameCoordinates,Original*
G04 #@! TF.FileFunction,Soldermask,Bot*
G04 #@! TF.FilePolarity,Negative*
%FSLAX46Y46*%
G04 Gerber Fmt 4.6, Leading zero omitted, Abs format (unit mm)*
G04 Created by KiCad (PCBNEW 5.1.5+dfsg1-2build2) date 2020-08-28 17:04:02*
%MOMM*%
%LPD*%
G04 APERTURE LIST*
%ADD10C,0.100000*%
G04 APERTURE END LIST*
D10*
G36*
X129538904Y-110776087D02*
G01*
X129570465Y-110785662D01*
X129599560Y-110801213D01*
X129625055Y-110822135D01*
X129645977Y-110847630D01*
X129661528Y-110876725D01*
X129671103Y-110908286D01*
X129674940Y-110947248D01*
X129674940Y-112347252D01*
X129671103Y-112386214D01*
X129661528Y-112417775D01*
X129645977Y-112446870D01*
X129625055Y-112472365D01*
X129599560Y-112493287D01*
X129570465Y-112508838D01*
X129538904Y-112518413D01*
X129499942Y-112522250D01*
X128424938Y-112522250D01*
X128385976Y-112518413D01*
X128354415Y-112508838D01*
X128325320Y-112493287D01*
X128299825Y-112472365D01*
X128278903Y-112446870D01*
X128263352Y-112417775D01*
X128253777Y-112386214D01*
X128249940Y-112347252D01*
X128249940Y-110947248D01*
X128253777Y-110908286D01*
X128263352Y-110876725D01*
X128278903Y-110847630D01*
X128299825Y-110822135D01*
X128325320Y-110801213D01*
X128354415Y-110785662D01*
X128385976Y-110776087D01*
X128424938Y-110772250D01*
X129499942Y-110772250D01*
X129538904Y-110776087D01*
G37*
G36*
X126563904Y-110776087D02*
G01*
X126595465Y-110785662D01*
X126624560Y-110801213D01*
X126650055Y-110822135D01*
X126670977Y-110847630D01*
X126686528Y-110876725D01*
X126696103Y-110908286D01*
X126699940Y-110947248D01*
X126699940Y-112347252D01*
X126696103Y-112386214D01*
X126686528Y-112417775D01*
X126670977Y-112446870D01*
X126650055Y-112472365D01*
X126624560Y-112493287D01*
X126595465Y-112508838D01*
X126563904Y-112518413D01*
X126524942Y-112522250D01*
X125449938Y-112522250D01*
X125410976Y-112518413D01*
X125379415Y-112508838D01*
X125350320Y-112493287D01*
X125324825Y-112472365D01*
X125303903Y-112446870D01*
X125288352Y-112417775D01*
X125278777Y-112386214D01*
X125274940Y-112347252D01*
X125274940Y-110947248D01*
X125278777Y-110908286D01*
X125288352Y-110876725D01*
X125303903Y-110847630D01*
X125324825Y-110822135D01*
X125350320Y-110801213D01*
X125379415Y-110785662D01*
X125410976Y-110776087D01*
X125449938Y-110772250D01*
X126524942Y-110772250D01*
X126563904Y-110776087D01*
G37*
G36*
X141217935Y-110180664D02*
G01*
X141372624Y-110244739D01*
X141372626Y-110244740D01*
X141511844Y-110337762D01*
X141630238Y-110456156D01*
X141723260Y-110595374D01*
X141723261Y-110595376D01*
X141787336Y-110750065D01*
X141820000Y-110914281D01*
X141820000Y-111081719D01*
X141787336Y-111245935D01*
X141723261Y-111400624D01*
X141723260Y-111400626D01*
X141630238Y-111539844D01*
X141511844Y-111658238D01*
X141372626Y-111751260D01*
X141372625Y-111751261D01*
X141372624Y-111751261D01*
X141217935Y-111815336D01*
X141053719Y-111848000D01*
X140886281Y-111848000D01*
X140722065Y-111815336D01*
X140567376Y-111751261D01*
X140567375Y-111751261D01*
X140567374Y-111751260D01*
X140428156Y-111658238D01*
X140309762Y-111539844D01*
X140216740Y-111400626D01*
X140216739Y-111400624D01*
X140152664Y-111245935D01*
X140120000Y-111081719D01*
X140120000Y-110914281D01*
X140152664Y-110750065D01*
X140216739Y-110595376D01*
X140216740Y-110595374D01*
X140309762Y-110456156D01*
X140428156Y-110337762D01*
X140567374Y-110244740D01*
X140567376Y-110244739D01*
X140722065Y-110180664D01*
X140886281Y-110148000D01*
X141053719Y-110148000D01*
X141217935Y-110180664D01*
G37*
G36*
X146297935Y-110180664D02*
G01*
X146452624Y-110244739D01*
X146452626Y-110244740D01*
X146591844Y-110337762D01*
X146710238Y-110456156D01*
X146803260Y-110595374D01*
X146803261Y-110595376D01*
X146867336Y-110750065D01*
X146900000Y-110914281D01*
X146900000Y-111081719D01*
X146867336Y-111245935D01*
X146803261Y-111400624D01*
X146803260Y-111400626D01*
X146710238Y-111539844D01*
X146591844Y-111658238D01*
X146452626Y-111751260D01*
X146452625Y-111751261D01*
X146452624Y-111751261D01*
X146297935Y-111815336D01*
X146133719Y-111848000D01*
X145966281Y-111848000D01*
X145802065Y-111815336D01*
X145647376Y-111751261D01*
X145647375Y-111751261D01*
X145647374Y-111751260D01*
X145508156Y-111658238D01*
X145389762Y-111539844D01*
X145296740Y-111400626D01*
X145296739Y-111400624D01*
X145232664Y-111245935D01*
X145200000Y-111081719D01*
X145200000Y-110914281D01*
X145232664Y-110750065D01*
X145296739Y-110595376D01*
X145296740Y-110595374D01*
X145389762Y-110456156D01*
X145508156Y-110337762D01*
X145647374Y-110244740D01*
X145647376Y-110244739D01*
X145802065Y-110180664D01*
X145966281Y-110148000D01*
X146133719Y-110148000D01*
X146297935Y-110180664D01*
G37*
G36*
X143757935Y-110180664D02*
G01*
X143912624Y-110244739D01*
X143912626Y-110244740D01*
X144051844Y-110337762D01*
X144170238Y-110456156D01*
X144263260Y-110595374D01*
X144263261Y-110595376D01*
X144327336Y-110750065D01*
X144360000Y-110914281D01*
X144360000Y-111081719D01*
X144327336Y-111245935D01*
X144263261Y-111400624D01*
X144263260Y-111400626D01*
X144170238Y-111539844D01*
X144051844Y-111658238D01*
X143912626Y-111751260D01*
X143912625Y-111751261D01*
X143912624Y-111751261D01*
X143757935Y-111815336D01*
X143593719Y-111848000D01*
X143426281Y-111848000D01*
X143262065Y-111815336D01*
X143107376Y-111751261D01*
X143107375Y-111751261D01*
X143107374Y-111751260D01*
X142968156Y-111658238D01*
X142849762Y-111539844D01*
X142756740Y-111400626D01*
X142756739Y-111400624D01*
X142692664Y-111245935D01*
X142660000Y-111081719D01*
X142660000Y-110914281D01*
X142692664Y-110750065D01*
X142756739Y-110595376D01*
X142756740Y-110595374D01*
X142849762Y-110456156D01*
X142968156Y-110337762D01*
X143107374Y-110244740D01*
X143107376Y-110244739D01*
X143262065Y-110180664D01*
X143426281Y-110148000D01*
X143593719Y-110148000D01*
X143757935Y-110180664D01*
G37*
G36*
X138677935Y-110180664D02*
G01*
X138832624Y-110244739D01*
X138832626Y-110244740D01*
X138971844Y-110337762D01*
X139090238Y-110456156D01*
X139183260Y-110595374D01*
X139183261Y-110595376D01*
X139247336Y-110750065D01*
X139280000Y-110914281D01*
X139280000Y-111081719D01*
X139247336Y-111245935D01*
X139183261Y-111400624D01*
X139183260Y-111400626D01*
X139090238Y-111539844D01*
X138971844Y-111658238D01*
X138832626Y-111751260D01*
X138832625Y-111751261D01*
X138832624Y-111751261D01*
X138677935Y-111815336D01*
X138513719Y-111848000D01*
X138346281Y-111848000D01*
X138182065Y-111815336D01*
X138027376Y-111751261D01*
X138027375Y-111751261D01*
X138027374Y-111751260D01*
X137888156Y-111658238D01*
X137769762Y-111539844D01*
X137676740Y-111400626D01*
X137676739Y-111400624D01*
X137612664Y-111245935D01*
X137580000Y-111081719D01*
X137580000Y-110914281D01*
X137612664Y-110750065D01*
X137676739Y-110595376D01*
X137676740Y-110595374D01*
X137769762Y-110456156D01*
X137888156Y-110337762D01*
X138027374Y-110244740D01*
X138027376Y-110244739D01*
X138182065Y-110180664D01*
X138346281Y-110148000D01*
X138513719Y-110148000D01*
X138677935Y-110180664D01*
G37*
G36*
X136137935Y-110180664D02*
G01*
X136292624Y-110244739D01*
X136292626Y-110244740D01*
X136431844Y-110337762D01*
X136550238Y-110456156D01*
X136643260Y-110595374D01*
X136643261Y-110595376D01*
X136707336Y-110750065D01*
X136740000Y-110914281D01*
X136740000Y-111081719D01*
X136707336Y-111245935D01*
X136643261Y-111400624D01*
X136643260Y-111400626D01*
X136550238Y-111539844D01*
X136431844Y-111658238D01*
X136292626Y-111751260D01*
X136292625Y-111751261D01*
X136292624Y-111751261D01*
X136137935Y-111815336D01*
X135973719Y-111848000D01*
X135806281Y-111848000D01*
X135642065Y-111815336D01*
X135487376Y-111751261D01*
X135487375Y-111751261D01*
X135487374Y-111751260D01*
X135348156Y-111658238D01*
X135229762Y-111539844D01*
X135136740Y-111400626D01*
X135136739Y-111400624D01*
X135072664Y-111245935D01*
X135040000Y-111081719D01*
X135040000Y-110914281D01*
X135072664Y-110750065D01*
X135136739Y-110595376D01*
X135136740Y-110595374D01*
X135229762Y-110456156D01*
X135348156Y-110337762D01*
X135487374Y-110244740D01*
X135487376Y-110244739D01*
X135642065Y-110180664D01*
X135806281Y-110148000D01*
X135973719Y-110148000D01*
X136137935Y-110180664D01*
G37*
G36*
X134200000Y-111848000D02*
G01*
X132500000Y-111848000D01*
X132500000Y-110148000D01*
X134200000Y-110148000D01*
X134200000Y-111848000D01*
G37*
G36*
X120168540Y-110829784D02*
G01*
X118268540Y-110829784D01*
X118268540Y-110029784D01*
X120168540Y-110029784D01*
X120168540Y-110829784D01*
G37*
G36*
X123168540Y-109879784D02*
G01*
X121268540Y-109879784D01*
X121268540Y-109079784D01*
X123168540Y-109079784D01*
X123168540Y-109879784D01*
G37*
G36*
X120168540Y-108929784D02*
G01*
X118268540Y-108929784D01*
X118268540Y-108129784D01*
X120168540Y-108129784D01*
X120168540Y-108929784D01*
G37*
G36*
X129674940Y-108662318D02*
G01*
X127774940Y-108662318D01*
X127774940Y-107862318D01*
X129674940Y-107862318D01*
X129674940Y-108662318D01*
G37*
G36*
X126674940Y-107712318D02*
G01*
X124774940Y-107712318D01*
X124774940Y-106912318D01*
X126674940Y-106912318D01*
X126674940Y-107712318D01*
G37*
G36*
X129674940Y-106762318D02*
G01*
X127774940Y-106762318D01*
X127774940Y-105962318D01*
X129674940Y-105962318D01*
X129674940Y-106762318D01*
G37*
G36*
X122532504Y-104273689D02*
G01*
X122564065Y-104283264D01*
X122593160Y-104298815D01*
X122618655Y-104319737D01*
X122639577Y-104345232D01*
X122655128Y-104374327D01*
X122664703Y-104405888D01*
X122668540Y-104444850D01*
X122668540Y-105844854D01*
X122664703Y-105883816D01*
X122655128Y-105915377D01*
X122639577Y-105944472D01*
X122618655Y-105969967D01*
X122593160Y-105990889D01*
X122564065Y-106006440D01*
X122532504Y-106016015D01*
X122493542Y-106019852D01*
X121418538Y-106019852D01*
X121379576Y-106016015D01*
X121348015Y-106006440D01*
X121318920Y-105990889D01*
X121293425Y-105969967D01*
X121272503Y-105944472D01*
X121256952Y-105915377D01*
X121247377Y-105883816D01*
X121243540Y-105844854D01*
X121243540Y-104444850D01*
X121247377Y-104405888D01*
X121256952Y-104374327D01*
X121272503Y-104345232D01*
X121293425Y-104319737D01*
X121318920Y-104298815D01*
X121348015Y-104283264D01*
X121379576Y-104273689D01*
X121418538Y-104269852D01*
X122493542Y-104269852D01*
X122532504Y-104273689D01*
G37*
G36*
X119557504Y-104273689D02*
G01*
X119589065Y-104283264D01*
X119618160Y-104298815D01*
X119643655Y-104319737D01*
X119664577Y-104345232D01*
X119680128Y-104374327D01*
X119689703Y-104405888D01*
X119693540Y-104444850D01*
X119693540Y-105844854D01*
X119689703Y-105883816D01*
X119680128Y-105915377D01*
X119664577Y-105944472D01*
X119643655Y-105969967D01*
X119618160Y-105990889D01*
X119589065Y-106006440D01*
X119557504Y-106016015D01*
X119518542Y-106019852D01*
X118443538Y-106019852D01*
X118404576Y-106016015D01*
X118373015Y-106006440D01*
X118343920Y-105990889D01*
X118318425Y-105969967D01*
X118297503Y-105944472D01*
X118281952Y-105915377D01*
X118272377Y-105883816D01*
X118268540Y-105844854D01*
X118268540Y-104444850D01*
X118272377Y-104405888D01*
X118281952Y-104374327D01*
X118297503Y-104345232D01*
X118318425Y-104319737D01*
X118343920Y-104298815D01*
X118373015Y-104283264D01*
X118404576Y-104273689D01*
X118443538Y-104269852D01*
X119518542Y-104269852D01*
X119557504Y-104273689D01*
G37*
G36*
X174710703Y-101077486D02*
G01*
X175001883Y-101198097D01*
X175263940Y-101373198D01*
X175486802Y-101596060D01*
X175661903Y-101858117D01*
X175782514Y-102149297D01*
X175844000Y-102458412D01*
X175844000Y-102773588D01*
X175782514Y-103082703D01*
X175661903Y-103373883D01*
X175486802Y-103635940D01*
X175263940Y-103858802D01*
X175001883Y-104033903D01*
X174710703Y-104154514D01*
X174401588Y-104216000D01*
X174086412Y-104216000D01*
X173777297Y-104154514D01*
X173486117Y-104033903D01*
X173224060Y-103858802D01*
X173001198Y-103635940D01*
X172826097Y-103373883D01*
X172705486Y-103082703D01*
X172644000Y-102773588D01*
X172644000Y-102458412D01*
X172705486Y-102149297D01*
X172826097Y-101858117D01*
X173001198Y-101596060D01*
X173224060Y-101373198D01*
X173486117Y-101198097D01*
X173777297Y-101077486D01*
X174086412Y-101016000D01*
X174401588Y-101016000D01*
X174710703Y-101077486D01*
G37*
G36*
X168644000Y-102096000D02*
G01*
X167144000Y-102096000D01*
X167144000Y-100596000D01*
X168644000Y-100596000D01*
X168644000Y-102096000D01*
G37*
G36*
X165572766Y-99354821D02*
G01*
X165709257Y-99411358D01*
X165832097Y-99493437D01*
X165936563Y-99597903D01*
X166018642Y-99720743D01*
X166075179Y-99857234D01*
X166104000Y-100002130D01*
X166104000Y-100149870D01*
X166075179Y-100294766D01*
X166018642Y-100431257D01*
X165936563Y-100554097D01*
X165832097Y-100658563D01*
X165709257Y-100740642D01*
X165572766Y-100797179D01*
X165427870Y-100826000D01*
X165280130Y-100826000D01*
X165135234Y-100797179D01*
X164998743Y-100740642D01*
X164875903Y-100658563D01*
X164771437Y-100554097D01*
X164689358Y-100431257D01*
X164632821Y-100294766D01*
X164604000Y-100149870D01*
X164604000Y-100002130D01*
X164632821Y-99857234D01*
X164689358Y-99720743D01*
X164771437Y-99597903D01*
X164875903Y-99493437D01*
X164998743Y-99411358D01*
X165135234Y-99354821D01*
X165280130Y-99326000D01*
X165427870Y-99326000D01*
X165572766Y-99354821D01*
G37*
G36*
X168112766Y-98084821D02*
G01*
X168249257Y-98141358D01*
X168372097Y-98223437D01*
X168476563Y-98327903D01*
X168558642Y-98450743D01*
X168615179Y-98587234D01*
X168644000Y-98732130D01*
X168644000Y-98879870D01*
X168615179Y-99024766D01*
X168558642Y-99161257D01*
X168476563Y-99284097D01*
X168372097Y-99388563D01*
X168249257Y-99470642D01*
X168112766Y-99527179D01*
X167967870Y-99556000D01*
X167820130Y-99556000D01*
X167675234Y-99527179D01*
X167538743Y-99470642D01*
X167415903Y-99388563D01*
X167311437Y-99284097D01*
X167229358Y-99161257D01*
X167172821Y-99024766D01*
X167144000Y-98879870D01*
X167144000Y-98732130D01*
X167172821Y-98587234D01*
X167229358Y-98450743D01*
X167311437Y-98327903D01*
X167415903Y-98223437D01*
X167538743Y-98141358D01*
X167675234Y-98084821D01*
X167820130Y-98056000D01*
X167967870Y-98056000D01*
X168112766Y-98084821D01*
G37*
G36*
X165572766Y-96814821D02*
G01*
X165709257Y-96871358D01*
X165832097Y-96953437D01*
X165936563Y-97057903D01*
X166018642Y-97180743D01*
X166075179Y-97317234D01*
X166104000Y-97462130D01*
X166104000Y-97609870D01*
X166075179Y-97754766D01*
X166018642Y-97891257D01*
X165936563Y-98014097D01*
X165832097Y-98118563D01*
X165709257Y-98200642D01*
X165572766Y-98257179D01*
X165427870Y-98286000D01*
X165280130Y-98286000D01*
X165135234Y-98257179D01*
X164998743Y-98200642D01*
X164875903Y-98118563D01*
X164771437Y-98014097D01*
X164689358Y-97891257D01*
X164632821Y-97754766D01*
X164604000Y-97609870D01*
X164604000Y-97462130D01*
X164632821Y-97317234D01*
X164689358Y-97180743D01*
X164771437Y-97057903D01*
X164875903Y-96953437D01*
X164998743Y-96871358D01*
X165135234Y-96814821D01*
X165280130Y-96786000D01*
X165427870Y-96786000D01*
X165572766Y-96814821D01*
G37*
G36*
X154012000Y-97878000D02*
G01*
X152312000Y-97878000D01*
X152312000Y-96178000D01*
X154012000Y-96178000D01*
X154012000Y-97878000D01*
G37*
G36*
X161029935Y-96210664D02*
G01*
X161184624Y-96274739D01*
X161184626Y-96274740D01*
X161323844Y-96367762D01*
X161442238Y-96486156D01*
X161535260Y-96625374D01*
X161535261Y-96625376D01*
X161599336Y-96780065D01*
X161632000Y-96944281D01*
X161632000Y-97111719D01*
X161599336Y-97275935D01*
X161582229Y-97317234D01*
X161535260Y-97430626D01*
X161442238Y-97569844D01*
X161323844Y-97688238D01*
X161184626Y-97781260D01*
X161184625Y-97781261D01*
X161184624Y-97781261D01*
X161029935Y-97845336D01*
X160865719Y-97878000D01*
X160698281Y-97878000D01*
X160534065Y-97845336D01*
X160379376Y-97781261D01*
X160379375Y-97781261D01*
X160379374Y-97781260D01*
X160240156Y-97688238D01*
X160121762Y-97569844D01*
X160028740Y-97430626D01*
X159981771Y-97317234D01*
X159964664Y-97275935D01*
X159932000Y-97111719D01*
X159932000Y-96944281D01*
X159964664Y-96780065D01*
X160028739Y-96625376D01*
X160028740Y-96625374D01*
X160121762Y-96486156D01*
X160240156Y-96367762D01*
X160379374Y-96274740D01*
X160379376Y-96274739D01*
X160534065Y-96210664D01*
X160698281Y-96178000D01*
X160865719Y-96178000D01*
X161029935Y-96210664D01*
G37*
G36*
X158489935Y-96210664D02*
G01*
X158644624Y-96274739D01*
X158644626Y-96274740D01*
X158783844Y-96367762D01*
X158902238Y-96486156D01*
X158995260Y-96625374D01*
X158995261Y-96625376D01*
X159059336Y-96780065D01*
X159092000Y-96944281D01*
X159092000Y-97111719D01*
X159059336Y-97275935D01*
X159042229Y-97317234D01*
X158995260Y-97430626D01*
X158902238Y-97569844D01*
X158783844Y-97688238D01*
X158644626Y-97781260D01*
X158644625Y-97781261D01*
X158644624Y-97781261D01*
X158489935Y-97845336D01*
X158325719Y-97878000D01*
X158158281Y-97878000D01*
X157994065Y-97845336D01*
X157839376Y-97781261D01*
X157839375Y-97781261D01*
X157839374Y-97781260D01*
X157700156Y-97688238D01*
X157581762Y-97569844D01*
X157488740Y-97430626D01*
X157441771Y-97317234D01*
X157424664Y-97275935D01*
X157392000Y-97111719D01*
X157392000Y-96944281D01*
X157424664Y-96780065D01*
X157488739Y-96625376D01*
X157488740Y-96625374D01*
X157581762Y-96486156D01*
X157700156Y-96367762D01*
X157839374Y-96274740D01*
X157839376Y-96274739D01*
X157994065Y-96210664D01*
X158158281Y-96178000D01*
X158325719Y-96178000D01*
X158489935Y-96210664D01*
G37*
G36*
X155949935Y-96210664D02*
G01*
X156104624Y-96274739D01*
X156104626Y-96274740D01*
X156243844Y-96367762D01*
X156362238Y-96486156D01*
X156455260Y-96625374D01*
X156455261Y-96625376D01*
X156519336Y-96780065D01*
X156552000Y-96944281D01*
X156552000Y-97111719D01*
X156519336Y-97275935D01*
X156502229Y-97317234D01*
X156455260Y-97430626D01*
X156362238Y-97569844D01*
X156243844Y-97688238D01*
X156104626Y-97781260D01*
X156104625Y-97781261D01*
X156104624Y-97781261D01*
X155949935Y-97845336D01*
X155785719Y-97878000D01*
X155618281Y-97878000D01*
X155454065Y-97845336D01*
X155299376Y-97781261D01*
X155299375Y-97781261D01*
X155299374Y-97781260D01*
X155160156Y-97688238D01*
X155041762Y-97569844D01*
X154948740Y-97430626D01*
X154901771Y-97317234D01*
X154884664Y-97275935D01*
X154852000Y-97111719D01*
X154852000Y-96944281D01*
X154884664Y-96780065D01*
X154948739Y-96625376D01*
X154948740Y-96625374D01*
X155041762Y-96486156D01*
X155160156Y-96367762D01*
X155299374Y-96274740D01*
X155299376Y-96274739D01*
X155454065Y-96210664D01*
X155618281Y-96178000D01*
X155785719Y-96178000D01*
X155949935Y-96210664D01*
G37*
G36*
X168112766Y-95544821D02*
G01*
X168249257Y-95601358D01*
X168372097Y-95683437D01*
X168476563Y-95787903D01*
X168558642Y-95910743D01*
X168615179Y-96047234D01*
X168644000Y-96192130D01*
X168644000Y-96339870D01*
X168615179Y-96484766D01*
X168558642Y-96621257D01*
X168476563Y-96744097D01*
X168372097Y-96848563D01*
X168249257Y-96930642D01*
X168112766Y-96987179D01*
X167967870Y-97016000D01*
X167820130Y-97016000D01*
X167675234Y-96987179D01*
X167538743Y-96930642D01*
X167415903Y-96848563D01*
X167311437Y-96744097D01*
X167229358Y-96621257D01*
X167172821Y-96484766D01*
X167144000Y-96339870D01*
X167144000Y-96192130D01*
X167172821Y-96047234D01*
X167229358Y-95910743D01*
X167311437Y-95787903D01*
X167415903Y-95683437D01*
X167538743Y-95601358D01*
X167675234Y-95544821D01*
X167820130Y-95516000D01*
X167967870Y-95516000D01*
X168112766Y-95544821D01*
G37*
G36*
X165572766Y-94274821D02*
G01*
X165709257Y-94331358D01*
X165832097Y-94413437D01*
X165936563Y-94517903D01*
X166018642Y-94640743D01*
X166075179Y-94777234D01*
X166104000Y-94922130D01*
X166104000Y-95069870D01*
X166075179Y-95214766D01*
X166018642Y-95351257D01*
X165936563Y-95474097D01*
X165832097Y-95578563D01*
X165709257Y-95660642D01*
X165572766Y-95717179D01*
X165427870Y-95746000D01*
X165280130Y-95746000D01*
X165135234Y-95717179D01*
X164998743Y-95660642D01*
X164875903Y-95578563D01*
X164771437Y-95474097D01*
X164689358Y-95351257D01*
X164632821Y-95214766D01*
X164604000Y-95069870D01*
X164604000Y-94922130D01*
X164632821Y-94777234D01*
X164689358Y-94640743D01*
X164771437Y-94517903D01*
X164875903Y-94413437D01*
X164998743Y-94331358D01*
X165135234Y-94274821D01*
X165280130Y-94246000D01*
X165427870Y-94246000D01*
X165572766Y-94274821D01*
G37*
G36*
X168112766Y-93004821D02*
G01*
X168249257Y-93061358D01*
X168372097Y-93143437D01*
X168476563Y-93247903D01*
X168558642Y-93370743D01*
X168615179Y-93507234D01*
X168644000Y-93652130D01*
X168644000Y-93799870D01*
X168615179Y-93944766D01*
X168558642Y-94081257D01*
X168476563Y-94204097D01*
X168372097Y-94308563D01*
X168249257Y-94390642D01*
X168112766Y-94447179D01*
X167967870Y-94476000D01*
X167820130Y-94476000D01*
X167675234Y-94447179D01*
X167538743Y-94390642D01*
X167415903Y-94308563D01*
X167311437Y-94204097D01*
X167229358Y-94081257D01*
X167172821Y-93944766D01*
X167144000Y-93799870D01*
X167144000Y-93652130D01*
X167172821Y-93507234D01*
X167229358Y-93370743D01*
X167311437Y-93247903D01*
X167415903Y-93143437D01*
X167538743Y-93061358D01*
X167675234Y-93004821D01*
X167820130Y-92976000D01*
X167967870Y-92976000D01*
X168112766Y-93004821D01*
G37*
G36*
X165572766Y-91734821D02*
G01*
X165709257Y-91791358D01*
X165832097Y-91873437D01*
X165936563Y-91977903D01*
X166018642Y-92100743D01*
X166075179Y-92237234D01*
X166104000Y-92382130D01*
X166104000Y-92529870D01*
X166075179Y-92674766D01*
X166018642Y-92811257D01*
X165936563Y-92934097D01*
X165832097Y-93038563D01*
X165709257Y-93120642D01*
X165572766Y-93177179D01*
X165427870Y-93206000D01*
X165280130Y-93206000D01*
X165135234Y-93177179D01*
X164998743Y-93120642D01*
X164875903Y-93038563D01*
X164771437Y-92934097D01*
X164689358Y-92811257D01*
X164632821Y-92674766D01*
X164604000Y-92529870D01*
X164604000Y-92382130D01*
X164632821Y-92237234D01*
X164689358Y-92100743D01*
X164771437Y-91977903D01*
X164875903Y-91873437D01*
X164998743Y-91791358D01*
X165135234Y-91734821D01*
X165280130Y-91706000D01*
X165427870Y-91706000D01*
X165572766Y-91734821D01*
G37*
G36*
X174710703Y-89647486D02*
G01*
X175001883Y-89768097D01*
X175263940Y-89943198D01*
X175486802Y-90166060D01*
X175661903Y-90428117D01*
X175782514Y-90719297D01*
X175844000Y-91028412D01*
X175844000Y-91343588D01*
X175782514Y-91652703D01*
X175661903Y-91943883D01*
X175486802Y-92205940D01*
X175263940Y-92428802D01*
X175001883Y-92603903D01*
X174710703Y-92724514D01*
X174401588Y-92786000D01*
X174086412Y-92786000D01*
X173777297Y-92724514D01*
X173486117Y-92603903D01*
X173224060Y-92428802D01*
X173001198Y-92205940D01*
X172826097Y-91943883D01*
X172705486Y-91652703D01*
X172644000Y-91343588D01*
X172644000Y-91028412D01*
X172705486Y-90719297D01*
X172826097Y-90428117D01*
X173001198Y-90166060D01*
X173224060Y-89943198D01*
X173486117Y-89768097D01*
X173777297Y-89647486D01*
X174086412Y-89586000D01*
X174401588Y-89586000D01*
X174710703Y-89647486D01*
G37*
G36*
X158581620Y-88033682D02*
G01*
X158694720Y-88067990D01*
X158798954Y-88123704D01*
X158890317Y-88198683D01*
X158965296Y-88290045D01*
X159021010Y-88394279D01*
X159055318Y-88507379D01*
X159064000Y-88595526D01*
X159064000Y-89204474D01*
X159055318Y-89292621D01*
X159021010Y-89405721D01*
X158965296Y-89509955D01*
X158890317Y-89601317D01*
X158798955Y-89676296D01*
X158694721Y-89732010D01*
X158581621Y-89766318D01*
X158464000Y-89777903D01*
X158346380Y-89766318D01*
X158233280Y-89732010D01*
X158129046Y-89676296D01*
X158037684Y-89601317D01*
X157962705Y-89509955D01*
X157906990Y-89405721D01*
X157872682Y-89292621D01*
X157864000Y-89204474D01*
X157864000Y-88595527D01*
X157872682Y-88507380D01*
X157906990Y-88394280D01*
X157962704Y-88290046D01*
X158037683Y-88198683D01*
X158129045Y-88123704D01*
X158233279Y-88067990D01*
X158346379Y-88033682D01*
X158464000Y-88022097D01*
X158581620Y-88033682D01*
G37*
G36*
X156921345Y-88028995D02*
G01*
X156954451Y-88039038D01*
X156984964Y-88055347D01*
X157011706Y-88077294D01*
X157033653Y-88104036D01*
X157049962Y-88134549D01*
X157060005Y-88167655D01*
X157064000Y-88208221D01*
X157064000Y-89591779D01*
X157060005Y-89632345D01*
X157049962Y-89665451D01*
X157033653Y-89695964D01*
X157011706Y-89722706D01*
X156984964Y-89744653D01*
X156954451Y-89760962D01*
X156921345Y-89771005D01*
X156880779Y-89775000D01*
X156047221Y-89775000D01*
X156006655Y-89771005D01*
X155973549Y-89760962D01*
X155943036Y-89744653D01*
X155916294Y-89722706D01*
X155894347Y-89695964D01*
X155878038Y-89665451D01*
X155867995Y-89632345D01*
X155864000Y-89591779D01*
X155864000Y-88208221D01*
X155867995Y-88167655D01*
X155878038Y-88134549D01*
X155894347Y-88104036D01*
X155916294Y-88077294D01*
X155943036Y-88055347D01*
X155973549Y-88039038D01*
X156006655Y-88028995D01*
X156047221Y-88025000D01*
X156880779Y-88025000D01*
X156921345Y-88028995D01*
G37*
G36*
X127251475Y-81130961D02*
G01*
X127383416Y-81185612D01*
X127502160Y-81264955D01*
X127603145Y-81365940D01*
X127682488Y-81484684D01*
X127737139Y-81616625D01*
X127765000Y-81756692D01*
X127765000Y-81899508D01*
X127737139Y-82039575D01*
X127682488Y-82171516D01*
X127603145Y-82290260D01*
X127502160Y-82391245D01*
X127383416Y-82470588D01*
X127251475Y-82525239D01*
X127111408Y-82553100D01*
X126968592Y-82553100D01*
X126828525Y-82525239D01*
X126696584Y-82470588D01*
X126577840Y-82391245D01*
X126476855Y-82290260D01*
X126397512Y-82171516D01*
X126342861Y-82039575D01*
X126315000Y-81899508D01*
X126315000Y-81756692D01*
X126342861Y-81616625D01*
X126397512Y-81484684D01*
X126476855Y-81365940D01*
X126577840Y-81264955D01*
X126696584Y-81185612D01*
X126828525Y-81130961D01*
X126968592Y-81103100D01*
X127111408Y-81103100D01*
X127251475Y-81130961D01*
G37*
G36*
X132251475Y-81130961D02*
G01*
X132383416Y-81185612D01*
X132502160Y-81264955D01*
X132603145Y-81365940D01*
X132682488Y-81484684D01*
X132737139Y-81616625D01*
X132765000Y-81756692D01*
X132765000Y-81899508D01*
X132737139Y-82039575D01*
X132682488Y-82171516D01*
X132603145Y-82290260D01*
X132502160Y-82391245D01*
X132383416Y-82470588D01*
X132251475Y-82525239D01*
X132111408Y-82553100D01*
X131968592Y-82553100D01*
X131828525Y-82525239D01*
X131696584Y-82470588D01*
X131577840Y-82391245D01*
X131476855Y-82290260D01*
X131397512Y-82171516D01*
X131342861Y-82039575D01*
X131315000Y-81899508D01*
X131315000Y-81756692D01*
X131342861Y-81616625D01*
X131397512Y-81484684D01*
X131476855Y-81365940D01*
X131577840Y-81264955D01*
X131696584Y-81185612D01*
X131828525Y-81130961D01*
X131968592Y-81103100D01*
X132111408Y-81103100D01*
X132251475Y-81130961D01*
G37*
G36*
X130390000Y-82503100D02*
G01*
X129990000Y-82503100D01*
X129990000Y-81153100D01*
X130390000Y-81153100D01*
X130390000Y-82503100D01*
G37*
G36*
X131040000Y-82503100D02*
G01*
X130640000Y-82503100D01*
X130640000Y-81153100D01*
X131040000Y-81153100D01*
X131040000Y-82503100D01*
G37*
G36*
X129740000Y-82503100D02*
G01*
X129340000Y-82503100D01*
X129340000Y-81153100D01*
X129740000Y-81153100D01*
X129740000Y-82503100D01*
G37*
G36*
X129090000Y-82503100D02*
G01*
X128690000Y-82503100D01*
X128690000Y-81153100D01*
X129090000Y-81153100D01*
X129090000Y-82503100D01*
G37*
G36*
X128440000Y-82503100D02*
G01*
X128040000Y-82503100D01*
X128040000Y-81153100D01*
X128440000Y-81153100D01*
X128440000Y-82503100D01*
G37*
G36*
X133063368Y-78177499D02*
G01*
X133075607Y-78178100D01*
X133120002Y-78178100D01*
X133152742Y-78186302D01*
X133157620Y-78186782D01*
X133270720Y-78221090D01*
X133374954Y-78276804D01*
X133466317Y-78351783D01*
X133541296Y-78443145D01*
X133597010Y-78547379D01*
X133631318Y-78660479D01*
X133640000Y-78748626D01*
X133640000Y-79507574D01*
X133631318Y-79595721D01*
X133597010Y-79708821D01*
X133541296Y-79813055D01*
X133466317Y-79904417D01*
X133374955Y-79979396D01*
X133270721Y-80035110D01*
X133157621Y-80069418D01*
X133152742Y-80069899D01*
X133128711Y-80074679D01*
X133120453Y-80078100D01*
X133075607Y-80078100D01*
X133063368Y-80078701D01*
X133040000Y-80081003D01*
X133016632Y-80078701D01*
X133004393Y-80078100D01*
X131840000Y-80078100D01*
X131840000Y-78178100D01*
X133004393Y-78178100D01*
X133016632Y-78177499D01*
X133040000Y-78175197D01*
X133063368Y-78177499D01*
G37*
G36*
X126063368Y-78177499D02*
G01*
X126075607Y-78178100D01*
X127240000Y-78178100D01*
X127240000Y-80078100D01*
X126075607Y-80078100D01*
X126063368Y-80078701D01*
X126040000Y-80081003D01*
X126016632Y-80078701D01*
X126004393Y-80078100D01*
X125959998Y-80078100D01*
X125927257Y-80069898D01*
X125922379Y-80069418D01*
X125809279Y-80035110D01*
X125705045Y-79979396D01*
X125613683Y-79904417D01*
X125538704Y-79813054D01*
X125482990Y-79708820D01*
X125448682Y-79595720D01*
X125440000Y-79507573D01*
X125440000Y-78748626D01*
X125448682Y-78660479D01*
X125482990Y-78547379D01*
X125538705Y-78443145D01*
X125613684Y-78351783D01*
X125705046Y-78276804D01*
X125809280Y-78221090D01*
X125922380Y-78186782D01*
X125927259Y-78186301D01*
X125951289Y-78181521D01*
X125959547Y-78178100D01*
X126004393Y-78178100D01*
X126016632Y-78177499D01*
X126040000Y-78175197D01*
X126063368Y-78177499D01*
G37*
G36*
X129290000Y-80078100D02*
G01*
X127790000Y-80078100D01*
X127790000Y-78178100D01*
X129290000Y-78178100D01*
X129290000Y-80078100D01*
G37*
G36*
X131290000Y-80078100D02*
G01*
X129790000Y-80078100D01*
X129790000Y-78178100D01*
X131290000Y-78178100D01*
X131290000Y-80078100D01*
G37*
M02*
